<svg width="39" height="39" fill="none" xmlns="http://www.w3.org/2000/svg"><path fill-rule="evenodd" clip-rule="evenodd" d="M5.711 33.289c-1.638-1.639-2.108-4.138-1.594-7.417C1.435 23.916 0 21.817 0 19.5s1.435-4.416 4.117-6.372C3.603 9.85 4.073 7.35 5.71 5.711c1.64-1.638 4.14-2.108 7.418-1.594C15.084 1.435 17.183 0 19.5 0s4.416 1.435 6.372 4.117c3.28-.514 5.778-.044 7.417 1.594 1.638 1.639 2.108 4.138 1.594 7.417C37.565 15.084 39 17.183 39 19.5s-1.435 4.416-4.117 6.372c.514 3.28.044 5.778-1.594 7.417-1.639 1.638-4.138 2.108-7.417 1.594C23.916 37.565 21.817 39 19.5 39s-4.416-1.435-6.372-4.117c-3.279.514-5.778.044-7.417-1.594zm7.855-2.093c.72-.154 1.46.153 1.86.77 1.56 2.413 2.953 3.489 4.074 3.489s2.513-1.076 4.075-3.488c.4-.618 1.14-.925 1.86-.77 2.809.601 4.554.377 5.347-.415.792-.793 1.016-2.538.414-5.348-.154-.72.153-1.46.77-1.86 2.413-1.56 3.489-2.953 3.489-4.074s-1.076-2.513-3.488-4.075a1.773 1.773 0 01-.77-1.86c.601-2.809.377-4.554-.415-5.347-.793-.792-2.538-1.016-5.348-.414a1.773 1.773 0 01-1.86-.77c-1.56-2.413-2.953-3.489-4.074-3.489s-2.513 1.076-4.075 3.488c-.4.618-1.14.925-1.86.77-2.809-.601-4.554-.377-5.347.415-.792.793-1.016 2.538-.414 5.348.154.72-.153 1.46-.77 1.86-2.413 1.56-3.489 2.953-3.489 4.074s1.076 2.513 3.488 4.075c.618.4.925 1.14.77 1.86-.601 2.809-.377 4.554.415 5.347.793.792 2.538 1.016 5.348.414zm11.771-18.268l-7.61 7.61-4.064-4.064-2.507 2.507 6.571 6.571 10.117-10.117-2.507-2.507z" fill="url(#paint0_linear)"/><defs><linearGradient id="paint0_linear" x1="19.5" y1="0" x2="19.5" y2="39" gradientUnits="userSpaceOnUse"><stop stop-color="#58C0E7"/><stop offset="1" stop-color="#FA9ABA"/></linearGradient></defs></svg>