<svg width="32" height="39" fill="none" xmlns="http://www.w3.org/2000/svg"><path fill-rule="evenodd" clip-rule="evenodd" d="M0 23.046C0 31.727 6.686 39 16 39s16-7.273 16-15.954c0-3.9-1.317-8.53-3.755-13.225C24.771 3.13 21.693 0 16.89 0h-1.78C10.26 0 6.382 3.902 3.708 9.918 1.124 15.731 0 19.474 0 23.046zm28.444 0c0 6.789-5.166 12.409-12.444 12.409-7.278 0-12.444-5.62-12.444-12.41 0-2.949 1.005-6.297 3.403-11.69 2.165-4.87 5.085-7.81 8.152-7.81h1.778c3.026 0 5.289 2.301 8.199 7.906 2.193 4.225 3.356 8.314 3.356 11.595zM16 29.693c-3.927 0-7.111-3.175-7.111-7.09 0-4.076 3.239-8.421 7.111-8.421s7.111 4.345 7.111 8.42c0 3.916-3.184 7.091-7.111 7.091zm3.555-7.09A3.55 3.55 0 0116 26.147a3.55 3.55 0 01-3.556-3.546c0-2.306 1.915-4.875 3.556-4.875 1.64 0 3.555 2.569 3.555 4.875z" fill="url(#paint0_linear)"/><defs><linearGradient id="paint0_linear" x1="16" y1="0" x2="16" y2="39" gradientUnits="userSpaceOnUse"><stop stop-color="#58C0E7"/><stop offset="1" stop-color="#FA9ABA"/></linearGradient></defs></svg>