<svg width="32" height="32" fill="none" xmlns="http://www.w3.org/2000/svg"><path fill-rule="evenodd" clip-rule="evenodd" d="M25.257 6.743l2.057-2.057A15.95 15.95 0 0132 16c0 8.837-7.163 16-16 16S0 24.837 0 16C0 7.654 6.39.8 14.545.065V0h2.91v14.546l1.63-1.631a4.364 4.364 0 11-4.54-1.03V8.873a7.273 7.273 0 106.597 1.985L23.2 8.8a10.15 10.15 0 012.982 7.2c0 5.623-4.559 10.182-10.182 10.182S5.818 21.623 5.818 16c0-5.13 3.793-9.373 8.727-10.079V2.99C8 3.713 2.91 9.262 2.91 16c0 7.23 5.86 13.09 13.09 13.09 7.23 0 13.09-5.86 13.09-13.09a13.05 13.05 0 00-3.833-9.257zm-7.803 9.266v-.018.019z" fill="url(#paint0_linear)"/><defs><linearGradient id="paint0_linear" x1="32" y1="16" x2="0" y2="16" gradientUnits="userSpaceOnUse"><stop stop-color="#58C0E7"/><stop offset="1" stop-color="#FA9ABA"/></linearGradient></defs></svg>