<svg width="29" height="30" fill="none" xmlns="http://www.w3.org/2000/svg"><path fill-rule="evenodd" clip-rule="evenodd" d="M16.683 6.815L18.78 8.92l-9.293 9.624a1.272 1.272 0 000 1.752c.443.46 1.182.458 1.62-.003L21.33 9.701a4.064 4.064 0 000-5.602c-1.424-1.482-3.944-1.449-5.34.003L4.83 15.655c-2.519 2.621-2.519 6.83 0 9.452 2.447 2.545 6.65 2.503 9.059-.003l13.015-13.48L29 13.727 15.987 27.206c-3.55 3.695-9.648 3.755-13.257 0-3.64-3.787-3.64-9.863.003-13.653L13.893 2C16.426-.638 20.84-.695 23.43 2c2.613 2.72 2.613 7.08-.002 9.803L13.21 22.39a4.02 4.02 0 01-5.826.006c-1.587-1.651-1.587-4.299.003-5.953l9.295-9.627z" fill="url(#paint0_linear)"/><defs><linearGradient id="paint0_linear" x1="14.5" y1="0" x2="14.5" y2="30" gradientUnits="userSpaceOnUse"><stop stop-color="#58C0E7"/><stop offset="1" stop-color="#FA9ABA"/></linearGradient></defs></svg>