<svg width="37" height="37" fill="none" xmlns="http://www.w3.org/2000/svg"><path fill-rule="evenodd" clip-rule="evenodd" d="M32.889 11.1H25.9V4.111C25.9 1.841 24.394 0 22.536 0h-8.072C12.606 0 11.1 1.84 11.1 4.111V11.1H4.111C1.841 11.1 0 12.606 0 14.464v8.072C0 24.394 1.84 25.9 4.111 25.9H11.1v6.989c0 2.27 1.506 4.111 3.364 4.111h8.072c1.858 0 3.364-1.84 3.364-4.111V25.9h6.989c2.27 0 4.111-1.506 4.111-3.364v-8.072c0-1.858-1.84-3.364-4.111-3.364zm.411 3.7H22.2V3.7h-7.4v11.1H3.7v7.4h11.1v11.1h7.4V22.2h11.1v-7.4z" fill="url(#paint0_linear)"/><defs><linearGradient id="paint0_linear" x1="18.5" y1="0" x2="18.5" y2="37" gradientUnits="userSpaceOnUse"><stop stop-color="#58C0E7"/><stop offset="1" stop-color="#FA9ABA"/></linearGradient></defs></svg>