<svg width="36" height="36" fill="none" xmlns="http://www.w3.org/2000/svg"><path fill-rule="evenodd" clip-rule="evenodd" d="M32.236 17.92c3.928 6.423 4.914 12.62 1.61 15.925-3.306 3.305-9.503 2.319-15.926-1.61-6.424 3.929-12.621 4.915-15.926 1.61-3.305-3.305-2.318-9.502 1.61-15.925-3.928-6.424-4.915-12.621-1.61-15.926 3.305-3.305 9.502-2.318 15.926 1.61 6.423-3.928 12.62-4.915 15.925-1.61 3.305 3.305 2.319 9.502-1.61 15.926zM12.61 12.61a41.369 41.369 0 015.309-4.499 41.373 41.373 0 015.308 4.499 41.375 41.375 0 014.5 5.309 41.367 41.367 0 01-4.5 5.308 41.374 41.374 0 01-5.308 4.5 41.369 41.369 0 01-5.309-4.5 41.36 41.36 0 01-4.499-5.308 41.374 41.374 0 014.5-5.309zm13.271-2.654a46.46 46.46 0 013.987 4.53c2.375-4.412 2.939-8.222 1.322-9.839-1.617-1.617-5.427-1.052-9.838 1.323a46.456 46.456 0 014.53 3.986zM14.486 29.869c-4.41 2.375-8.22 2.939-9.838 1.322-1.617-1.617-1.053-5.427 1.323-9.838a46.454 46.454 0 003.986 4.53 46.466 46.466 0 004.53 3.986zm6.867 0a46.437 46.437 0 004.53-3.987 46.437 46.437 0 003.986-4.529c2.375 4.41 2.939 8.221 1.322 9.838-1.617 1.617-5.427 1.053-9.838-1.322zM14.486 5.97c-4.41-2.374-8.22-2.939-9.838-1.322-1.617 1.617-1.053 5.427 1.322 9.838a46.45 46.45 0 013.987-4.53 46.46 46.46 0 014.53-3.986zm5.31 11.95a1.877 1.877 0 10-3.753 0 1.877 1.877 0 003.754 0z" fill="url(#paint0_linear)"/><defs><linearGradient id="paint0_linear" x1="17.92" y1="0" x2="17.92" y2="35.839" gradientUnits="userSpaceOnUse"><stop stop-color="#58C0E7"/><stop offset="1" stop-color="#FA9ABA"/></linearGradient></defs></svg>