<svg width="42" height="42" fill="none" xmlns="http://www.w3.org/2000/svg"><path fill-rule="evenodd" clip-rule="evenodd" d="M22.91 7.772a13.476 13.476 0 00-3.82 0V.086a21.268 21.268 0 013.82 0v7.686zM11.453 21a9.545 9.545 0 1019.091 0 9.545 9.545 0 00-19.09 0zm15.273 0a5.727 5.727 0 11-11.454 0 5.727 5.727 0 0111.454 0zM22.91 41.914v-7.686a13.476 13.476 0 01-3.818 0v7.686a21.29 21.29 0 003.818 0zm11.32-22.823h7.685a21.255 21.255 0 010 3.818h-7.686a13.475 13.475 0 000-3.818zM7.635 21c0-.648.047-1.286.136-1.91H.086a21.268 21.268 0 000 3.82h7.686A13.377 13.377 0 017.636 21zm21.367-10.703l5.435-5.435c.98.816 1.884 1.72 2.7 2.7l-5.435 5.435a13.441 13.441 0 00-2.7-2.7zM4.862 7.562l5.435 5.435a13.441 13.441 0 012.7-2.7L7.562 4.862c-.98.816-1.884 1.72-2.7 2.7zm26.841 21.441l5.435 5.435c-.816.98-1.72 1.883-2.7 2.7l-5.435-5.435a13.441 13.441 0 002.7-2.7zM7.562 37.138l5.435-5.435a13.441 13.441 0 01-2.7-2.7l-5.435 5.435c.816.98 1.72 1.883 2.7 2.7z" fill="url(#paint0_linear)"/><defs><linearGradient id="paint0_linear" x1="21" y1="0" x2="21" y2="42" gradientUnits="userSpaceOnUse"><stop stop-color="#58C0E7"/><stop offset="1" stop-color="#FA9ABA"/></linearGradient></defs></svg>