<svg width="34" height="41" fill="none" xmlns="http://www.w3.org/2000/svg"><path fill-rule="evenodd" clip-rule="evenodd" d="M16.989 41C5.663 36.019 0 31.049 0 26.09V7.456C0 6.024.556 5.692 2.095 4.77c.466-.278 1.022-.61 1.68-1.044C4.081 3.527 10.501 0 16.99 0c5.654 0 10.382 1.864 13.213 3.727.659.433 1.215.766 1.68 1.044 1.54.92 2.096 1.253 2.096 2.684.037.404.019 9.013.007 14.525v.008c-.004 1.876-.007 3.393-.007 4.103 0 4.97-5.663 9.94-16.99 14.909zm13.213-14.91l.004-2.32.008-3.64.006-3.153c.007-4.16.005-7.73 0-8.834l-.259-.16a83.91 83.91 0 01-1.853-1.154c-2.786-1.835-6.853-3.102-11.12-3.102-4.08 0-9.383 1.96-11.118 3.102-.447.294-1.243.781-1.853 1.155l-.242.148V26.09c0 2.811 4.208 6.65 13.216 10.813 9.006-4.153 13.212-7.991 13.212-10.813zm-6.997-12.499l-8.104 8-4.328-4.272-2.67 2.635 6.998 6.909 10.773-10.636-2.67-2.636z" fill="url(#paint0_linear)"/><defs><linearGradient id="paint0_linear" x1="17" y1="0" x2="17" y2="41" gradientUnits="userSpaceOnUse"><stop stop-color="#58C0E7"/><stop offset="1" stop-color="#FA9ABA"/></linearGradient></defs></svg>