<svg width="36" height="32" fill="none" xmlns="http://www.w3.org/2000/svg"><path fill-rule="evenodd" clip-rule="evenodd" d="M19.8 28.444v-1.903a12.618 12.618 0 008.607-5.3C33.291 20.576 36 16.396 36 10.667V5.333c0-1.963-1.612-3.555-3.6-3.555h-2.282A3.607 3.607 0 0027 0H9a3.607 3.607 0 00-3.118 1.778H3.6C1.612 1.778 0 3.37 0 5.333v5.334c0 5.73 2.708 9.909 7.594 10.574a12.618 12.618 0 008.606 5.3v1.903h-1.8c-1.988 0-3.6 1.592-3.6 3.556h14.4c0-1.964-1.612-3.556-3.6-3.556h-1.8zM3.6 5.334h1.8v8.888c0 .814.08 1.61.23 2.38-1.327-1.18-2.03-3.213-2.03-5.935V5.333zm27 0v8.888c0 .814-.079 1.61-.23 2.38 1.328-1.18 2.03-3.213 2.03-5.935V5.333h-1.8zM9 14.221V3.556h18v10.666c0 4.91-4.03 8.89-9 8.89s-9-3.98-9-8.89z" fill="url(#paint0_linear)"/><defs><linearGradient id="paint0_linear" x1="18" y1="0" x2="18" y2="32" gradientUnits="userSpaceOnUse"><stop stop-color="#58C0E7"/><stop offset="1" stop-color="#FA9ABA"/></linearGradient></defs></svg>