<svg width="30" height="30" fill="none" xmlns="http://www.w3.org/2000/svg"><path fill-rule="evenodd" clip-rule="evenodd" d="M2.645 0h23.801c1.46 0 2.645 1.447 2.645 3.232V25.86c0 1.785-1.184 3.232-2.645 3.232H2.645C1.184 29.09 0 27.644 0 25.859V3.232C0 1.447 1.184 0 2.645 0zm23.537 13.09V2.91H2.909v10.18h4.966l3.27 3.271 4.51-10.52 5.436 7.25h5.09zM2.909 16H6.67l5.457 5.457 4.219-9.844L19.636 16h6.546v10.182H2.909V16z" fill="url(#paint0_linear)"/><defs><linearGradient id="paint0_linear" x1="14.546" y1="0" x2="14.546" y2="29.091" gradientUnits="userSpaceOnUse"><stop stop-color="#58C0E7"/><stop offset="1" stop-color="#FA9ABA"/></linearGradient></defs></svg>