<svg width="42" height="42" fill="none" xmlns="http://www.w3.org/2000/svg"><path fill-rule="evenodd" clip-rule="evenodd" d="M13.364 9.545h-5.51C11.54 5.33 15.577 3.818 21 3.818c9.49 0 17.182 7.693 17.182 17.182 0 9.49-7.693 17.182-17.182 17.182-9.49 0-17.182-7.693-17.182-17.182H0c0 11.598 9.402 21 21 21s21-9.402 21-21S32.598 0 21 0C14.865 0 9.998 1.738 5.727 6.217V1.892H1.91v11.472h11.455V9.545zm17.181 9.546H22.91V9.545h-3.818V22.91h11.454v-3.818z" fill="url(#paint0_linear)"/><defs><linearGradient id="paint0_linear" x1="21" y1="0" x2="21" y2="42" gradientUnits="userSpaceOnUse"><stop stop-color="#58C0E7"/><stop offset="1" stop-color="#FA9ABA"/></linearGradient></defs></svg>