<svg width="30" height="29" fill="none" xmlns="http://www.w3.org/2000/svg"><path fill-rule="evenodd" clip-rule="evenodd" d="M14.672 23.273l-8.854 5.533v-5.533H2.91A2.91 2.91 0 010 20.363V2.91A2.91 2.91 0 012.91 0h23.272a2.91 2.91 0 012.909 2.91v17.454a2.909 2.909 0 01-2.91 2.909h-11.51zm-5.945.284l5.11-3.193h12.345V2.909H2.909v17.455h5.818v3.193zM19.335 6.244l-6.244 6.244-3.335-3.335-2.057 2.057 5.392 5.392 8.301-8.3-2.057-2.058z" fill="url(#paint0_linear)"/><defs><linearGradient id="paint0_linear" x1="14.546" y1="0" x2="14.546" y2="28.806" gradientUnits="userSpaceOnUse"><stop stop-color="#58C0E7"/><stop offset="1" stop-color="#FA9ABA"/></linearGradient></defs></svg>