<svg width="30" height="30" fill="none" xmlns="http://www.w3.org/2000/svg"><path fill-rule="evenodd" clip-rule="evenodd" d="M8.727 5.818H5.818V4.364H2.91v4.363h23.273V4.364h-2.91v1.454h-2.908V4.364H8.727v1.454zm17.455 5.818H2.909v14.546h23.273V11.636zM20.364 1.455H8.727V0H5.818v1.455H2.91A2.91 2.91 0 000 4.364v21.818a2.91 2.91 0 002.91 2.909h23.272a2.91 2.91 0 002.909-2.91V4.365a2.91 2.91 0 00-2.91-2.91h-2.908V0h-2.91v1.455zm-10.182 16h-2.91v-2.91h2.91v2.91zm2.909 0H16v-2.91h-2.91v2.91zm8.727 0H18.91v-2.91h2.91v2.91zM7.273 23.273h2.909v-2.91h-2.91v2.91zm8.727 0h-2.91v-2.91H16v2.91z" fill="url(#paint0_linear)"/><defs><linearGradient id="paint0_linear" x1="14.546" y1="0" x2="14.546" y2="29.091" gradientUnits="userSpaceOnUse"><stop stop-color="#58C0E7"/><stop offset="1" stop-color="#FA9ABA"/></linearGradient></defs></svg>