<svg width="38" height="37" fill="none" xmlns="http://www.w3.org/2000/svg"><path fill-rule="evenodd" clip-rule="evenodd" d="M25.556.146c2.018-.571 4.121.586 4.698 2.583.097.336.146.684.146 1.033v3.149h3.8c2.099 0 3.8 1.684 3.8 3.76V33.24c0 2.076-1.701 3.76-3.8 3.76H3.8C1.701 37 0 35.316 0 33.239h.05a3.723 3.723 0 01-.05-.613V10.21a3.767 3.767 0 012.756-3.617l22.8-6.447zm-10.09 33.093H34.2V10.672h-3.8v3.761h3.8v3.761h-3.8v7.985a3.767 3.767 0 01-2.756 3.616L15.466 33.24zM3.8 10.209v22.417l22.8-6.447V3.762L3.8 10.21zm19 4.224a1.89 1.89 0 01-1.9 1.88 1.89 1.89 0 01-1.9-1.88c0-1.038.85-1.88 1.9-1.88 1.05 0 1.9.841 1.9 1.88z" fill="url(#paint0_linear)"/><defs><linearGradient id="paint0_linear" x1="19" y1="0" x2="19" y2="37" gradientUnits="userSpaceOnUse"><stop stop-color="#58C0E7"/><stop offset="1" stop-color="#FA9ABA"/></linearGradient></defs></svg>