<svg width="27" height="32" fill="none" xmlns="http://www.w3.org/2000/svg"><path fill-rule="evenodd" clip-rule="evenodd" d="M2.91 0h15.147l8.125 8.125V29.09a2.909 2.909 0 01-2.91 2.91H2.91A2.91 2.91 0 010 29.09V2.91A2.91 2.91 0 012.91 0zm11.635 2.91H2.91v26.18h20.364V11.637h-5.819a2.91 2.91 0 01-2.909-2.909V2.91zm2.91.602v5.215h5.215l-5.216-5.215zM7.272 23.272v-2.908H16v2.909H7.273zm0-8.727v2.91h11.636v-2.91H7.273z" fill="url(#paint0_linear)"/><defs><linearGradient id="paint0_linear" x1="13.091" y1="0" x2="13.091" y2="32" gradientUnits="userSpaceOnUse"><stop stop-color="#58C0E7"/><stop offset="1" stop-color="#FA9ABA"/></linearGradient></defs></svg>