<svg width="491" height="466" fill="none" xmlns="http://www.w3.org/2000/svg"><path d="M260.079 352.829c10.801-14.017 31.325-29.473 54.368-35.583 18.003 51.039 59.05 84.106 122.78 92.013-28.804 21.206-55.089 34.865-78.132 42.412-105.137 34.505-136.463-50.319-99.016-98.842zM186.87 136.077c-14.762 15.096-109.097 145.927-84.253 241.175C31.685 255.047 90.375 135.718 0 107.323c50.048-56.79 122.06-47.085 186.87 28.754z" fill="#FEB6CE"/><path d="M160.398 151.832C236.01 98.997 386.515 78.869 465.727.155c37.807 103.514 25.925 165.695-15.482 213.858-38.886 44.209-100.816 66.134-135.742 103.155-21.243 13.299-39.246 26.238-50.048 40.256-42.487 54.992 0 125.08 94.695 94.17-119.539 39.177-218.555-8.267-256.721-74.402-50.408-87.34-5.401-180.791 57.969-225.36z" fill="#FFDEE9"/><path d="M453.239 217.093c-38.527 44.569-95.416 72.964-138.623 100.28C253.406 144.849 512.648 131.909 465.841 0c40.686 103.515 28.804 169.29-12.602 217.093z" fill="#FEB6CE"/></svg>