<?xml version="1.0" standalone="no"?>
<!DOCTYPE svg PUBLIC "-//W3C//DTD SVG 20010904//EN"
 "http://www.w3.org/TR/2001/REC-SVG-20010904/DTD/svg10.dtd">
<svg version="1.0" xmlns="http://www.w3.org/2000/svg"
 width="700.000000pt" height="700.000000pt" viewBox="0 0 700.000000 700.000000"
 preserveAspectRatio="xMidYMid meet">
<metadata>
Created by potrace 1.11, written by Peter Selinger 2001-2013
</metadata>
<g transform="translate(0.000000,700.000000) scale(0.100000,-0.100000)"
fill="#000000" stroke="none">
<path d="M692 6317 c-120 -307 -222 -705 -256 -1007 -20 -168 -20 -460 -1
-601 68 -515 299 -914 763 -1321 230 -201 500 -390 927 -648 407 -246 465
-282 485 -298 l21 -17 -26 -64 c-244 -599 -714 -951 -1435 -1074 l-75 -12 104
-75 c222 -158 563 -343 784 -425 209 -77 495 -146 747 -180 164 -22 508 -31
666 -16 819 77 1492 458 1872 1061 158 251 305 614 396 975 67 266 102 494
161 1025 42 390 75 594 120 749 101 350 276 552 578 666 l58 21 -99 96 c-266
255 -557 372 -886 355 -201 -11 -342 -50 -551 -152 -249 -122 -493 -312 -716
-557 -52 -57 -96 -102 -99 -101 -3 1 -61 28 -130 61 -263 125 -431 193 -1010
409 -780 290 -966 366 -1310 530 -376 180 -745 420 -971 631 l-76 72 -41 -103z"/>
</g>
</svg>
