<svg width="32" height="40" viewBox="0 0 32 40" fill="none" xmlns="http://www.w3.org/2000/svg">
<path fill-rule="evenodd" clip-rule="evenodd" d="M3.55556 0.888916H22.0697L32 10.8192V36.4445C32 38.4081 30.4081 40 28.4444 40H3.55556C1.59188 40 0 38.4081 0 36.4445V4.44447C0 2.48079 1.59188 0.888916 3.55556 0.888916ZM17.7778 4.44444H3.55556V36.4444H28.4444V15.1111H21.3333C19.3697 15.1111 17.7778 13.5193 17.7778 11.5556V4.44444ZM21.3333 5.18082V11.5556H27.7081L21.3333 5.18082ZM8.88889 29.3334V25.7778H19.5556V29.3334H8.88889ZM8.88889 18.6667V22.2222H23.1111V18.6667H8.88889Z" fill="#F2E1E7"/>
</svg>
