<svg width="33" height="38" viewBox="0 0 33 38" fill="none" xmlns="http://www.w3.org/2000/svg">
<path fill-rule="evenodd" clip-rule="evenodd" d="M16.446 37.9999C6.08244 33.383 0.900635 28.777 0.900635 24.1817V6.90907C0.900635 5.58323 1.40949 5.2751 2.81778 4.42231C3.24417 4.1641 3.75302 3.85597 4.35517 3.45454C4.63463 3.26823 10.5098 0 16.446 0C21.6196 0 25.946 1.72727 28.5369 3.45454C29.1391 3.85597 29.6479 4.1641 30.0743 4.42231C31.4826 5.2751 31.9914 5.58323 31.9914 6.90907C32.0255 7.28427 32.0088 15.2631 31.9981 20.3717V20.3726V20.3729C31.9944 22.1148 31.9914 23.5229 31.9914 24.1817C31.9914 28.7878 26.8096 33.3938 16.446 37.9999ZM28.5369 24.1818C28.5369 23.7839 28.5379 23.1174 28.5401 22.0308L28.5471 18.657C28.5493 17.5655 28.551 16.6288 28.5525 15.735C28.5589 11.8795 28.5572 8.5704 28.5535 7.54693L28.3162 7.3997L28.3162 7.39965C27.7576 7.05315 27.0296 6.60152 26.6207 6.32889C24.0708 4.62894 20.35 3.45455 16.446 3.45455C12.7118 3.45455 7.85917 5.27038 6.2714 6.32889C5.86246 6.60152 5.13447 7.05315 4.57593 7.39965L4.35517 7.53666V24.1818C4.35517 26.7873 8.20544 30.3459 16.4476 34.2034C24.6888 30.3546 28.5369 26.7972 28.5369 24.1818ZM22.1337 12.5969L14.7188 20.0118L10.7583 16.0514L8.31561 18.4941L14.7188 24.8973L24.5765 15.0396L22.1337 12.5969Z" fill="#C9E2EB"/>
</svg>
