<svg width="18" height="22" viewBox="0 0 18 22" fill="none" xmlns="http://www.w3.org/2000/svg">
<path fill-rule="evenodd" clip-rule="evenodd" d="M8.94192 21.858C2.98064 19.2024 0 16.5529 0 13.9097V3.97419C0 3.21155 0.292697 3.0343 1.10276 2.54377C1.34803 2.39524 1.64073 2.218 1.98709 1.98709C2.14784 1.87993 5.52731 0 8.94192 0C11.9178 0 14.4064 0.993547 15.8967 1.98709C16.2431 2.218 16.5358 2.39525 16.7811 2.54377C17.5911 3.0343 17.8838 3.21155 17.8838 3.97419C17.9034 4.19002 17.8938 8.78008 17.8876 11.7186C17.8855 12.7207 17.8838 13.5307 17.8838 13.9097C17.8838 16.5591 14.9032 19.2086 8.94192 21.858ZM15.8969 13.9097C15.8969 13.6808 15.8975 13.2974 15.8987 12.6724L15.9027 10.7317C15.904 10.1039 15.905 9.56512 15.9059 9.05099C15.9095 6.83325 15.9085 4.9298 15.9064 4.34109L15.7699 4.25636L15.7698 4.25632C15.4486 4.05701 15.0299 3.79726 14.7946 3.64045C13.3279 2.66262 11.1876 1.98709 8.94206 1.98709C6.79409 1.98709 4.00277 3.03158 3.08947 3.64045C2.85424 3.79728 2.43549 4.05706 2.1142 4.25637L2.11418 4.25639L1.98723 4.33518V13.9097C1.98723 15.4084 4.20195 17.4554 8.94298 19.6742C13.6834 17.4603 15.8969 15.4141 15.8969 13.9097ZM12.2136 7.24586L7.94837 11.511L5.67028 9.23295L4.26519 10.638L7.94837 14.3212L13.6186 8.65094L12.2136 7.24586Z" fill="black"/>
</svg>
