<svg width="19" height="19" viewBox="0 0 19 19" fill="none" xmlns="http://www.w3.org/2000/svg">
<path fill-rule="evenodd" clip-rule="evenodd" d="M6.33331 4.74998H4.74998V3.95831H3.16665V6.33331H15.8333V3.95831H14.25V4.74998H12.6666V3.95831H6.33331V4.74998ZM15.8333 7.91665H3.16665V15.8333H15.8333V7.91665ZM12.6666 2.37498H6.33331V1.58331H4.74998V2.37498H3.16665C2.2922 2.37498 1.58331 3.08386 1.58331 3.95831V15.8333C1.58331 16.7078 2.2922 17.4166 3.16665 17.4166H15.8333C16.7078 17.4166 17.4166 16.7078 17.4166 15.8333V3.95831C17.4166 3.08386 16.7078 2.37498 15.8333 2.37498H14.25V1.58331H12.6666V2.37498ZM5.54165 11.0833V9.49998H7.12498V11.0833H5.54165ZM8.70831 11.0833H10.2916V9.49998H8.70831V11.0833ZM13.4583 11.0833H11.875V9.49998H13.4583V11.0833ZM5.54165 12.6666V14.25H7.12498V12.6666H5.54165ZM10.2916 14.25H8.70831V12.6666H10.2916V14.25Z" fill="#58C0E7"/>
</svg>
