<svg width="23" height="23" viewBox="0 0 23 23" fill="none" xmlns="http://www.w3.org/2000/svg">
<path fill-rule="evenodd" clip-rule="evenodd" d="M19.6489 3.34247C17.4868 1.18818 14.6114 0.00126343 11.5481 0C5.23585 0 0.098598 5.11253 0.096059 11.3963C0.0952127 13.405 0.622479 15.3658 1.62468 17.0942L0 23L6.0709 21.4151C7.74368 22.3232 9.62692 22.8018 11.5434 22.8023H11.5482C17.8598 22.8023 22.9976 17.6894 23 11.4054C23.0013 8.35996 21.8112 5.49661 19.6489 3.34247ZM11.5481 20.8776H11.5442C9.83625 20.8769 8.16121 20.4201 6.69959 19.5572L6.35217 19.3518L2.7496 20.2923L3.71118 16.7967L3.48478 16.4383C2.53195 14.9301 2.02881 13.1868 2.02965 11.397C2.03163 6.17409 6.30167 1.9249 11.5519 1.9249C14.0943 1.92574 16.4842 2.91234 18.2813 4.7029C20.0783 6.49346 21.0674 8.87347 21.0665 11.4047C21.0643 16.628 16.7945 20.8776 11.5481 20.8776V20.8776ZM16.7691 13.7829C16.4831 13.6402 15.0762 12.9515 14.8138 12.8564C14.5517 12.7613 14.3608 12.714 14.1702 12.999C13.9793 13.284 13.4311 13.9255 13.264 14.1154C13.097 14.3055 12.9303 14.3294 12.6441 14.1867C12.3579 14.0443 11.436 13.7434 10.3429 12.7733C9.49235 12.0181 8.91811 11.0856 8.7511 10.8006C8.58438 10.5154 8.74969 10.3761 8.87664 10.2194C9.1864 9.83663 9.49658 9.43528 9.59194 9.24534C9.68743 9.05527 9.63961 8.88892 9.56796 8.74643C9.49658 8.60394 8.92432 7.20224 8.68594 6.63187C8.45348 6.07681 8.21777 6.15177 8.04202 6.14307C7.87529 6.13478 7.68444 6.1331 7.49359 6.1331C7.30288 6.1331 6.99284 6.20427 6.73048 6.48953C6.46826 6.77464 5.72912 7.46349 5.72912 8.86519C5.72912 10.2669 6.75446 11.621 6.89749 11.8111C7.04052 12.0012 8.91529 14.8776 11.7856 16.1109C12.4683 16.4046 13.0013 16.5797 13.4169 16.7109C14.1025 16.9277 14.7261 16.8971 15.2192 16.8238C15.7691 16.742 16.912 16.1348 17.1507 15.4697C17.3891 14.8044 17.3891 14.2343 17.3174 14.1154C17.2461 13.9967 17.0552 13.9255 16.7691 13.7829V13.7829Z" fill="black"/>
</svg>
