<svg width="280" height="58" viewBox="0 0 280 58" fill="none" xmlns="http://www.w3.org/2000/svg">
<path fill-rule="evenodd" clip-rule="evenodd" d="M94.2943 0.0619319C93.5644 0.0619319 92.8953 0.55734 92.5912 1.30047L82.92 26.1952L73.3705 1.23854C73.1272 0.495424 72.4582 0 71.6675 0C70.6334 0 69.9035 0.805051 69.9035 1.79588C69.9035 1.91975 69.9576 2.09867 70.0117 2.27758C70.0387 2.36702 70.0657 2.45646 70.086 2.53902L80.4262 29.1677C80.852 30.1586 81.5819 30.9636 82.8592 30.9636C84.1974 30.9636 84.9881 30.1586 85.353 29.1677L95.8757 2.53902C95.9974 2.29131 96.0582 2.04359 96.0582 1.79588C96.0582 0.743119 95.2675 0.0619319 94.2943 0.0619319ZM50.399 3.35695C43.7691 3.35695 38.6598 8.86847 38.6598 15.5566C38.6598 22.2448 43.7691 27.6943 50.399 27.6943C57.0289 27.6943 62.199 22.1828 62.199 15.5566C62.199 8.86847 57.0289 3.35695 50.399 3.35695ZM50.399 30.9146C41.9443 30.9146 34.9495 24.2264 34.9495 15.4947C34.9495 6.76295 41.9443 0.0128773 50.399 0.0128773C58.8536 0.0128773 65.8485 6.76295 65.8485 15.4947C65.8485 24.2884 58.8536 30.9146 50.399 30.9146ZM26.6413 29.0111C26.6413 30.0638 25.7897 30.9308 24.6341 30.9308C23.965 30.9308 23.3567 30.5592 22.931 29.94L4.4402 6.22185V29.3207C4.4402 30.1877 3.71031 30.9308 2.73711 30.9308C1.76393 30.9308 1.09484 30.2496 1.09484 29.3207V4.05439C1.09484 2.25849 0.669061 1.39152 0 1.01995C0.425775 0.524541 1.15567 0.0291172 2.1897 0.0291172C3.46703 0.0291172 4.50103 0.648389 6.44742 3.18741C6.69074 3.49705 23.2959 24.7381 23.2959 24.7381V1.70115C23.2959 0.834169 24.0258 0.0910492 24.999 0.0910492C25.9114 0.0910492 26.6413 0.834169 26.6413 1.70115V29.0111ZM104.548 20.2176H116.774L110.691 4.6119L104.548 20.2176ZM117.686 23.0662H103.696L101.081 29.6305C100.777 30.4356 100.29 30.931 99.3779 30.931C98.3439 30.931 97.7356 30.1879 97.7356 29.3209C97.7356 29.0732 97.8573 28.7016 97.9789 28.392L108.319 1.82518C108.745 0.834344 109.353 0.0292926 110.691 0.0292926C112.151 0.0292926 112.699 0.834344 113.124 1.82518L123.465 28.33C123.586 28.5777 123.708 29.0112 123.708 29.2589C123.708 30.2498 122.978 30.8691 122.005 30.8691C121.153 30.8691 120.545 30.4356 120.302 29.5686L117.686 23.0662ZM158.916 4.87394C159.424 5.15595 159.792 5.36032 160.129 5.36032C161.041 5.36032 161.71 4.74104 161.71 3.7502C161.71 2.75937 160.919 2.07816 159.642 1.52082C157.817 0.653839 155.506 0.0345678 152.404 0.0345678C144.071 0.0345678 136.954 6.97042 136.954 15.4545C136.954 24.8674 143.888 30.9363 152.404 30.9363C155.506 30.9363 157.939 30.2551 159.825 29.3881C161.041 28.7688 161.953 28.1495 161.953 27.1587C161.953 26.2298 161.224 25.5486 160.372 25.5486C159.995 25.5486 159.602 25.7635 159.049 26.0652C158.533 26.3474 157.877 26.7056 156.966 27.0348C155.81 27.4064 154.35 27.778 152.343 27.778C145.956 27.778 140.543 22.7619 140.543 15.4545C140.543 8.76632 145.956 3.25479 152.343 3.25479C154.35 3.25479 155.749 3.56442 156.905 3.93598C157.78 4.24325 158.416 4.59624 158.916 4.87394ZM168.731 1.77918C168.731 0.850265 169.461 0.0452138 170.434 0.0452138C171.407 0.0452138 172.198 0.850265 172.198 1.77918V27.3551H186.309C187.161 27.3551 187.769 28.0363 187.769 28.9652C187.769 29.8322 187.1 30.5134 186.309 30.5134H170.495C169.522 30.5134 168.792 29.7084 168.792 28.7795V1.77918H168.731ZM196.185 0.0452138C195.272 0.0452138 194.482 0.850265 194.482 1.77918V29.2129C194.482 30.1419 195.212 30.9469 196.185 30.9469C197.158 30.9469 197.949 30.1419 197.949 29.2129V1.77918C197.949 0.850265 197.158 0.0452138 196.185 0.0452138ZM233.386 29.0111C233.386 30.0638 232.534 30.9308 231.379 30.9308C230.71 30.9308 230.101 30.5592 229.676 29.94L211.124 6.22185V29.3207C211.124 30.1877 210.394 30.9308 209.421 30.9308C208.448 30.9308 207.779 30.2496 207.779 29.3207V1.94886C207.779 0.958032 208.63 0.0291172 209.725 0.0291172C210.394 0.0291172 211.002 0.400677 211.428 1.01995L229.98 24.7381V1.70115C229.98 0.834169 230.71 0.0910492 231.683 0.0910492C232.595 0.0910492 233.325 0.834169 233.325 1.70115V29.0111H233.386ZM244.982 0.0452138C244.07 0.0452138 243.279 0.850265 243.279 1.77918V29.2129C243.279 30.1419 244.009 30.9469 244.982 30.9469C245.956 30.9469 246.746 30.1419 246.746 29.2129V1.77918C246.746 0.850265 245.956 0.0452138 244.982 0.0452138ZM278.175 5.36032C277.838 5.36032 277.47 5.15595 276.962 4.87394C276.462 4.59624 275.827 4.24325 274.952 3.93598C273.796 3.56442 272.397 3.25479 270.39 3.25479C264.003 3.25479 258.59 8.76632 258.59 15.4545C258.59 22.7619 264.003 27.778 270.39 27.778C272.397 27.778 273.857 27.4064 275.012 27.0348C275.924 26.7056 276.579 26.3474 277.096 26.0652L277.096 26.0652C277.648 25.7635 278.041 25.5486 278.419 25.5486C279.27 25.5486 280 26.2298 280 27.1587C280 28.1495 279.088 28.7688 277.871 29.3881C275.986 30.2551 273.553 30.9363 270.451 30.9363C261.935 30.9363 255.001 24.8674 255.001 15.4545C255.001 6.97042 262.118 0.0345678 270.451 0.0345678C273.553 0.0345678 275.864 0.653839 277.689 1.52082C278.966 2.07816 279.757 2.75937 279.757 3.7502C279.757 4.74104 279.088 5.36032 278.175 5.36032ZM68.6267 46.3558C68.3226 46.3558 68.0793 46.6035 68.0793 46.9131V55.3352C68.0793 55.6449 68.3226 55.8926 68.6267 55.8926H74.4051C74.6484 55.8926 74.8917 55.6449 74.8917 55.3972C74.8917 55.1494 74.6484 54.9017 74.4051 54.9017H69.1133V51.5577H73.736C73.9793 51.5577 74.2226 51.3099 74.2226 51.0623C74.2226 50.8145 73.9793 50.5668 73.736 50.5668H69.1133V47.3466H74.3443C74.5876 47.3466 74.8308 47.0989 74.8308 46.8512C74.8308 46.6035 74.5876 46.3558 74.3443 46.3558H68.6267ZM78.0674 46.9131C78.0674 46.6035 78.3107 46.3558 78.6148 46.3558H84.8798C85.1839 46.3558 85.4272 46.6035 85.4272 46.9131V55.3352C85.4272 55.6449 85.1839 55.8926 84.8798 55.8926C84.5756 55.8926 84.3323 55.6449 84.3323 55.3352V47.3466H79.1014V55.3352C79.1014 55.6449 78.8581 55.8926 78.554 55.8926C78.2499 55.8926 78.0066 55.6449 78.0066 55.3352V46.9131H78.0674ZM94.9948 49.4059C94.9948 50.6444 93.9607 51.5114 92.4401 51.5114H90.1288V47.3623H92.5009C94.0216 47.3623 94.9948 48.0435 94.9948 49.4059ZM89.6422 46.3714C89.3381 46.3714 89.0947 46.6191 89.0947 46.9288V55.2889C89.0947 55.5986 89.3381 55.8463 89.6422 55.8463C89.9463 55.8463 90.1896 55.5986 90.1896 55.2889V52.5022H92.4401C94.3865 52.5022 96.0896 51.4495 96.0896 49.4059C96.0896 47.4861 94.7515 46.3714 92.6226 46.3714H89.6422ZM61.5244 51.5114C63.045 51.5114 64.079 50.6444 64.079 49.4059C64.079 48.0435 63.1058 47.3623 61.5852 47.3623H59.213V51.5114H61.5244ZM58.179 46.9288C58.179 46.6191 58.4223 46.3714 58.7264 46.3714H61.7068C63.8357 46.3714 65.1739 47.4861 65.1739 49.4059C65.1739 51.4495 63.4708 52.5022 61.5244 52.5022H59.2739V55.2889C59.2739 55.5986 59.0306 55.8463 58.7264 55.8463C58.4223 55.8463 58.179 55.5986 58.179 55.2889V46.9288ZM49.034 49.4059C49.034 50.6444 48 51.5114 46.4794 51.5114H44.1681V47.3623H46.5402C48.0608 47.3623 49.034 48.0435 49.034 49.4059ZM43.6815 46.3714C43.3773 46.3714 43.134 46.6191 43.134 46.9288V55.2889C43.134 55.5986 43.3773 55.8463 43.6815 55.8463C43.9856 55.8463 44.2289 55.5986 44.2289 55.2889V52.5022H46.4794C48.4258 52.5022 50.1289 51.4495 50.1289 49.4059C50.1289 47.4861 48.7908 46.3714 46.6619 46.3714H43.6815ZM107.034 51.1039C107.034 48.9365 105.513 47.2025 103.385 47.2025C101.256 47.2025 99.7351 48.9365 99.7351 51.1039C99.7351 53.2714 101.256 55.0053 103.385 55.0053C105.574 55.0053 107.034 53.2714 107.034 51.1039ZM98.6402 51.1039C98.6402 48.503 100.587 46.2117 103.385 46.2117C106.182 46.2117 108.129 48.503 108.129 51.1039C108.129 53.7048 106.182 55.9962 103.385 55.9962C100.587 55.9962 98.6402 53.7668 98.6402 51.1039ZM117.37 47.3485V54.9036H112.139C112.869 53.6032 113.355 51.0641 113.355 48.5871V47.3485H117.37ZM110.557 54.8417C110.253 54.8417 110.01 55.0894 110.01 55.3991C110.01 55.3991 110.01 57.4427 109.949 57.3807C109.949 57.6904 110.193 57.9381 110.497 57.9381C110.801 57.9381 111.044 57.6904 111.044 57.3807V55.8325H118.647V57.4427C118.647 57.7523 118.89 58 119.195 58C119.499 58 119.742 57.7523 119.742 57.4427V55.3991C119.742 55.0894 119.499 54.8417 119.195 54.8417H118.526V46.8531C118.526 46.5435 118.282 46.2958 117.978 46.2958H112.93C112.626 46.2958 112.382 46.5435 112.382 46.8531V47.9678C112.382 51.0641 111.896 53.4174 110.983 54.8417H110.557ZM122.372 55.7455L122.189 55.5597V55.312L122.25 55.1262C122.372 54.9404 122.554 54.8166 122.798 54.8785L122.798 54.8786C123.041 54.9405 123.284 55.0024 123.649 55.0024C124.318 55.0024 124.987 54.6308 125.535 53.578L121.885 47.1376C121.764 46.9518 121.764 46.766 121.885 46.5803C122.007 46.3945 122.128 46.3325 122.311 46.3325C122.493 46.3325 122.676 46.4564 122.737 46.5803L126.021 52.5253L128.819 46.6422C128.88 46.4564 129.062 46.3325 129.306 46.3325C129.488 46.3325 129.671 46.3945 129.732 46.5803C129.853 46.7041 129.853 46.9518 129.732 47.0757L126.386 53.8257C125.656 55.3739 124.622 55.9932 123.527 55.9932C123.162 55.9932 122.737 55.9313 122.372 55.7455ZM144.148 55.8581H151.265V57.4063C151.265 57.7159 151.508 57.9636 151.812 57.9636C152.055 57.9636 152.299 57.7778 152.299 57.4682V55.4246C152.299 55.115 152.055 54.8673 151.751 54.8673H151.082V46.8786C151.082 46.569 150.839 46.3213 150.535 46.3213C150.231 46.3213 149.987 46.569 149.987 46.8786V54.8673H144.696V46.8786C144.696 46.569 144.452 46.3213 144.148 46.3213C143.844 46.3213 143.601 46.569 143.601 46.8786V55.3007C143.601 55.6104 143.844 55.8581 144.148 55.8581ZM198.952 46.8273C198.952 46.5796 199.195 46.3319 199.439 46.3319H204.426C204.67 46.3319 204.913 46.5796 204.913 46.8273C204.913 47.0751 204.67 47.3228 204.426 47.3228H199.986V55.3114C199.986 55.621 199.743 55.8687 199.439 55.8687C199.135 55.8687 198.891 55.621 198.891 55.3114V46.8273H198.952ZM218.371 46.3558C218.066 46.3558 217.823 46.6035 217.823 46.9131V55.3352C217.823 55.6449 218.066 55.8926 218.371 55.8926C218.675 55.8926 218.918 55.6449 218.918 55.3352V51.6196H224.271V55.3352C224.271 55.6449 224.514 55.8926 224.818 55.8926C225.122 55.8926 225.365 55.6449 225.365 55.3352V46.9131C225.365 46.6035 225.122 46.3558 224.818 46.3558C224.514 46.3558 224.271 46.6035 224.271 46.9131V50.5668H218.918V46.9131C218.918 46.6035 218.675 46.3558 218.371 46.3558ZM22.3068 46.9131C22.3068 46.6035 22.5501 46.3558 22.8543 46.3558C23.1584 46.3558 23.4017 46.6035 23.4017 46.9131V50.5668H28.6934V46.9131C28.6934 46.6035 28.9367 46.3558 29.2409 46.3558C29.545 46.3558 29.7883 46.6035 29.7883 46.9131V55.3352C29.7883 55.6449 29.545 55.8926 29.2409 55.8926C28.9367 55.8926 28.6934 55.6449 28.6934 55.3352V51.6196H23.3409V55.3352C23.3409 55.6449 23.0976 55.8926 22.7934 55.8926C22.4893 55.8926 22.246 55.6449 22.246 55.3352V46.9131H22.3068ZM229.438 46.3319C229.195 46.3319 228.952 46.5796 228.952 46.8273V55.3733C228.952 55.621 229.195 55.8687 229.438 55.8687H235.278C235.521 55.8687 235.764 55.621 235.764 55.3733C235.764 55.1256 235.521 54.8779 235.278 54.8779H229.986V51.5338H234.609C234.852 51.5338 235.095 51.2861 235.095 51.0384C235.095 50.7907 234.852 50.543 234.609 50.543H229.986V47.3228H235.217C235.46 47.3228 235.703 47.0751 235.703 46.8273C235.703 46.5796 235.46 46.3319 235.217 46.3319H229.438ZM207.835 46.8273C207.835 46.5796 208.078 46.3319 208.322 46.3319H214.1C214.343 46.3319 214.587 46.5796 214.587 46.8273C214.587 47.0751 214.343 47.3228 214.1 47.3228H208.869V50.543H213.492C213.735 50.543 213.978 50.7907 213.978 51.0384C213.978 51.2861 213.735 51.5338 213.492 51.5338H208.869V54.8779H214.161C214.404 54.8779 214.647 55.1256 214.647 55.3733C214.647 55.621 214.404 55.8687 214.161 55.8687H208.322C208.078 55.8687 207.835 55.621 207.835 55.3733V46.8273ZM238.719 47.3662H241.334V55.3548C241.334 55.6644 241.577 55.9121 241.882 55.9121C242.186 55.9121 242.429 55.6644 242.429 55.3548V47.3662H245.105C245.349 47.3662 245.592 47.1185 245.592 46.8708C245.592 46.6231 245.349 46.3753 245.105 46.3753H238.719C238.475 46.3753 238.232 46.6231 238.232 46.8708C238.232 47.1185 238.475 47.3662 238.719 47.3662ZM35.8909 47.3662H33.2754C33.0321 47.3662 32.7888 47.1185 32.7888 46.8708C32.7888 46.6231 33.0321 46.3753 33.2754 46.3753H39.662C39.9053 46.3753 40.1487 46.6231 40.1487 46.8708C40.1487 47.1185 39.9053 47.3662 39.662 47.3662H36.9858V55.3548C36.9858 55.6644 36.7425 55.9121 36.4383 55.9121C36.1342 55.9121 35.8909 55.6644 35.8909 55.3548V47.3662ZM260.476 46.3563C260.172 46.3563 259.928 46.604 259.928 46.9137H259.868V55.3358C259.868 55.6454 260.111 55.8931 260.415 55.8931C260.719 55.8931 260.962 55.6454 260.962 55.3358V53.3541L262.97 51.3105L266.376 55.7073C266.497 55.8312 266.619 55.8931 266.802 55.8931C267.045 55.8931 267.227 55.7693 267.288 55.5835C267.349 55.3977 267.349 55.2119 267.227 55.0261L263.7 50.5674L266.862 47.2233C267.045 47.0375 267.045 46.8517 266.984 46.666C266.923 46.4802 266.741 46.3563 266.558 46.3563C266.437 46.3563 266.315 46.4183 266.193 46.5421L261.023 52.0536V46.9137C261.023 46.604 260.78 46.3563 260.476 46.3563ZM270.56 46.9131C270.56 46.6035 270.803 46.3558 271.107 46.3558C271.411 46.3558 271.655 46.6035 271.655 46.9131V54.2205L277.007 46.6035C277.129 46.4177 277.311 46.3558 277.555 46.3558C277.919 46.3558 278.224 46.6654 278.224 47.037V55.3352C278.224 55.6449 277.98 55.8306 277.737 55.8306C277.433 55.8306 277.19 55.5829 277.19 55.2733V47.9659L271.837 55.521C271.715 55.7068 271.533 55.8306 271.29 55.8306C270.925 55.8306 270.621 55.521 270.621 55.1494V46.9131H270.56ZM249.181 46.3558C248.876 46.3558 248.633 46.6035 248.633 46.9131H248.694V55.1494C248.694 55.521 248.998 55.8306 249.363 55.8306C249.606 55.8306 249.789 55.7068 249.911 55.521L255.263 47.9659V55.2733C255.263 55.5829 255.506 55.8306 255.811 55.8306C256.054 55.8306 256.297 55.6449 256.297 55.3352V47.037C256.297 46.6654 255.993 46.3558 255.628 46.3558C255.385 46.3558 255.202 46.4177 255.081 46.6035L249.728 54.2205V46.9131C249.728 46.6035 249.485 46.3558 249.181 46.3558ZM182.579 46.9131C182.579 46.6035 182.822 46.3558 183.126 46.3558C183.43 46.3558 183.674 46.6035 183.674 46.9131V54.2205L189.026 46.6035C189.148 46.4177 189.33 46.3558 189.574 46.3558C189.939 46.3558 190.243 46.6654 190.243 47.037V55.3352C190.243 55.6449 190 55.8306 189.756 55.8306C189.452 55.8306 189.209 55.5829 189.209 55.2733V47.9659L183.856 55.521C183.735 55.7068 183.552 55.8306 183.309 55.8306C182.944 55.8306 182.64 55.521 182.64 55.1494V46.9131H182.579ZM166.753 46.3558C166.449 46.3558 166.206 46.6035 166.206 46.9131H166.267V55.1494C166.267 55.521 166.571 55.8306 166.936 55.8306C167.179 55.8306 167.361 55.7068 167.483 55.521L172.836 47.9659V55.2733C172.836 55.5829 173.079 55.8306 173.383 55.8306C173.626 55.8306 173.87 55.6449 173.87 55.3352V47.037C173.87 46.6654 173.566 46.3558 173.201 46.3558C172.957 46.3558 172.775 46.4177 172.653 46.6035L167.301 54.2205V46.9131C167.301 46.6035 167.057 46.3558 166.753 46.3558ZM154.91 46.9131C154.91 46.6035 155.153 46.3558 155.457 46.3558C155.762 46.3558 156.005 46.6035 156.005 46.9131V54.2205L161.357 46.6035C161.479 46.4177 161.662 46.3558 161.905 46.3558C162.27 46.3558 162.574 46.6654 162.574 47.037V55.3352C162.574 55.6449 162.331 55.8306 162.087 55.8306C161.783 55.8306 161.54 55.5829 161.54 55.2733V47.9659L156.187 55.521C156.066 55.7068 155.883 55.8306 155.64 55.8306C155.275 55.8306 154.971 55.521 154.971 55.1494V46.9131H154.91ZM133.584 46.3563C133.28 46.3563 133.037 46.604 133.037 46.9137H132.915V55.3358C132.915 55.6454 133.159 55.8931 133.463 55.8931C133.767 55.8931 134.01 55.6454 134.01 55.3358V53.3541L136.017 51.3105L139.423 55.7073C139.545 55.8312 139.667 55.8931 139.849 55.8931C140.093 55.8931 140.275 55.7693 140.336 55.5835C140.397 55.3977 140.397 55.2119 140.275 55.0261L136.747 50.5674L139.971 47.2233C140.153 47.0375 140.153 46.8517 140.093 46.666C140.032 46.4802 139.849 46.3563 139.667 46.3563C139.545 46.3563 139.423 46.4183 139.302 46.5421L134.132 52.0536V46.9137C134.132 46.604 133.888 46.3563 133.584 46.3563ZM12.3187 46.9131C12.3187 46.6035 12.562 46.3558 12.8662 46.3558H18.5837C18.827 46.3558 19.0703 46.6035 19.0703 46.8512C19.0703 47.0989 18.827 47.3466 18.5837 47.3466H13.3528V50.5668H17.9754C18.2187 50.5668 18.462 50.8145 18.462 51.0623C18.462 51.3099 18.2187 51.5577 17.9754 51.5577H13.3528V54.9017H18.6445C18.8878 54.9017 19.1311 55.1494 19.1311 55.3972C19.1311 55.6449 18.8878 55.8926 18.6445 55.8926H12.8662C12.562 55.8926 12.3187 55.6449 12.3187 55.3352V46.9131ZM1.61845 55.8581H8.67413H8.73493V57.4063C8.73493 57.7159 8.97824 57.9636 9.28236 57.9636C9.52568 57.9636 9.76896 57.7778 9.76896 57.4682V55.4246C9.76896 55.115 9.52568 54.8673 9.22153 54.8673H8.55247V46.8786C8.55247 46.569 8.30915 46.3213 8.00504 46.3213C7.70092 46.3213 7.45763 46.569 7.45763 46.8786V54.8673H2.16585V46.8786C2.16585 46.569 1.92256 46.3213 1.61845 46.3213C1.3143 46.3213 1.07101 46.569 1.07101 46.8786V55.3007C1.07101 55.6104 1.3143 55.8581 1.61845 55.8581Z" fill="white"/>
</svg>
