<svg width="1108" height="228" viewBox="0 0 1108 228" fill="none" xmlns="http://www.w3.org/2000/svg">
<path d="M112.606 172.053C107.338 165.217 97.3305 157.681 86.0935 154.701C77.3146 179.589 57.2987 195.714 26.2213 199.57C40.2676 209.911 53.0848 216.571 64.3218 220.252C115.591 237.078 130.866 195.714 112.606 172.053Z" fill="#58C0E7"/>
<path d="M148.305 66.3562C155.504 73.7176 201.505 137.516 189.391 183.962C223.979 124.371 195.36 66.181 239.43 52.3347C215.025 24.642 179.909 29.3743 148.305 66.3562Z" fill="#58C0E7"/>
<path d="M161.214 74.0393C124.342 48.2746 50.9506 38.4595 12.3235 0.0754318C-6.11223 50.5531 -0.318149 80.8748 19.8733 104.361C38.8358 125.919 69.0352 136.611 86.0663 154.663C96.4254 161.148 105.204 167.458 110.472 174.294C131.19 201.11 110.472 235.287 64.2946 220.214C122.586 239.319 170.87 216.183 189.482 183.933C214.063 141.343 192.115 95.7727 161.214 74.0393Z" fill="#8BCFED"/>
<path d="M18.4139 105.863C37.2007 127.596 64.942 141.443 86.0114 154.763C115.86 70.6337 -10.5565 64.324 12.2686 0C-7.5717 50.4777 -1.77763 82.5521 18.4139 105.863Z" fill="#58C0E7"/>
<path fill-rule="evenodd" clip-rule="evenodd" d="M571.939 60.6832C569.832 60.6832 567.9 62.0853 567.022 64.1886L539.105 134.647L511.54 64.0133C510.837 61.9101 508.906 60.5079 506.624 60.5079C503.639 60.5079 501.532 62.7864 501.532 65.5907C501.532 65.9413 501.688 66.4477 501.844 66.954C501.922 67.2072 502 67.4603 502.059 67.694L531.907 143.06C533.136 145.864 535.243 148.143 538.93 148.143C542.793 148.143 545.075 145.864 546.129 143.06L576.504 67.694C576.855 66.9929 577.03 66.2918 577.03 65.5907C577.03 62.6111 574.748 60.6832 571.939 60.6832ZM445.23 70.0089C426.092 70.0089 411.343 85.6079 411.343 104.537C411.343 123.466 426.092 138.89 445.23 138.89C464.368 138.89 479.292 123.291 479.292 104.537C479.292 85.6079 464.368 70.0089 445.23 70.0089ZM445.23 148.004C420.824 148.004 400.633 129.075 400.633 104.362C400.633 79.6488 420.824 60.5443 445.23 60.5443C469.635 60.5443 489.826 79.6488 489.826 104.362C489.826 129.25 469.635 148.004 445.23 148.004ZM376.65 142.617C376.65 145.596 374.192 148.05 370.856 148.05C368.925 148.05 367.169 146.998 365.94 145.246L312.564 78.1173V143.493C312.564 145.947 310.457 148.05 307.648 148.05C304.839 148.05 302.907 146.122 302.907 143.493V71.9829C302.907 66.9 301.678 64.4463 299.747 63.3946C300.976 61.9925 303.083 60.5903 306.068 60.5903C309.755 60.5903 312.74 62.343 318.358 69.5291C319.061 70.4054 366.993 130.523 366.993 130.523V65.3226C366.993 62.8688 369.1 60.7656 371.91 60.7656C374.543 60.7656 376.65 62.8688 376.65 65.3226V142.617ZM601.537 117.729H636.828L619.271 73.5608L601.537 117.729ZM639.462 125.791H599.079L591.529 144.37C590.651 146.648 589.247 148.05 586.613 148.05C583.628 148.05 581.872 145.947 581.872 143.493C581.872 142.792 582.224 141.741 582.575 140.864L612.423 65.6736C613.652 62.8693 615.408 60.5908 619.271 60.5908C623.484 60.5908 625.065 62.8693 626.294 65.6736L656.142 140.689C656.493 141.39 656.844 142.617 656.844 143.318C656.844 146.123 654.737 147.875 651.928 147.875C649.47 147.875 647.714 146.648 647.012 144.195L639.462 125.791ZM758.476 74.3024C759.942 75.1006 761.004 75.679 761.977 75.679C764.611 75.679 766.542 73.9263 766.542 71.1219C766.542 68.3176 764.26 66.3896 760.573 64.8122C755.305 62.3584 748.633 60.6057 739.679 60.6057C715.625 60.6057 695.082 80.236 695.082 104.248C695.082 130.889 715.098 148.065 739.679 148.065C748.633 148.065 755.656 146.137 761.099 143.684C764.611 141.931 767.245 140.178 767.245 137.374C767.245 134.745 765.138 132.817 762.68 132.817C761.591 132.817 760.456 133.425 758.862 134.279C757.37 135.078 755.478 136.092 752.847 137.023C749.511 138.075 745.297 139.127 739.503 139.127C721.068 139.127 705.441 124.93 705.441 104.248C705.441 85.3188 721.068 69.7198 739.503 69.7198C745.297 69.7198 749.336 70.5961 752.672 71.6477C755.198 72.5174 757.033 73.5164 758.476 74.3024ZM786.809 65.5434C786.809 62.9144 788.916 60.6359 791.725 60.6359C794.534 60.6359 796.817 62.9144 796.817 65.5434V137.93H837.551C840.009 137.93 841.765 139.858 841.765 142.487C841.765 144.941 839.833 146.869 837.551 146.869H791.901C789.091 146.869 786.984 144.59 786.984 141.961V65.5434H786.809ZM866.058 60.6359C863.424 60.6359 861.141 62.9144 861.141 65.5434V143.188C861.141 145.817 863.248 148.095 866.058 148.095C868.867 148.095 871.149 145.817 871.149 143.188V65.5434C871.149 62.9144 868.867 60.6359 866.058 60.6359ZM973.443 142.617C973.443 145.596 970.985 148.05 967.649 148.05C965.718 148.05 963.962 146.998 962.733 145.246L909.182 78.1173V143.493C909.182 145.947 907.075 148.05 904.265 148.05C901.456 148.05 899.525 146.122 899.525 143.493V66.0237C899.525 63.2194 901.983 60.5903 905.143 60.5903C907.075 60.5903 908.83 61.6419 910.059 63.3946L963.611 130.523V65.3226C963.611 62.8688 965.718 60.7656 968.527 60.7656C971.161 60.7656 973.268 62.8688 973.268 65.3226V142.617H973.443ZM1006.92 60.6359C1004.28 60.6359 1002 62.9144 1002 65.5434V143.188C1002 145.817 1004.11 148.095 1006.92 148.095C1009.73 148.095 1012.01 145.817 1012.01 143.188V65.5434C1012.01 62.9144 1009.73 60.6359 1006.92 60.6359ZM1102.73 75.679C1101.76 75.679 1100.7 75.1006 1099.23 74.3024C1097.79 73.5164 1095.95 72.5174 1093.43 71.6477C1090.09 70.5961 1086.05 69.7198 1080.26 69.7198C1061.82 69.7198 1046.2 85.3188 1046.2 104.248C1046.2 124.93 1061.82 139.127 1080.26 139.127C1086.05 139.127 1090.27 138.075 1093.6 137.023C1096.23 136.092 1098.13 135.078 1099.62 134.279L1099.62 134.279C1101.21 133.425 1102.35 132.817 1103.43 132.817C1105.89 132.817 1108 134.745 1108 137.374C1108 140.178 1105.37 141.931 1101.85 143.684C1096.41 146.137 1089.39 148.065 1080.43 148.065C1055.85 148.065 1035.84 130.889 1035.84 104.248C1035.84 80.236 1056.38 60.6057 1080.43 60.6057C1089.39 60.6057 1096.06 62.3584 1101.33 64.8122C1105.02 66.3896 1107.3 68.3176 1107.3 71.1219C1107.3 73.9263 1105.37 75.679 1102.73 75.679ZM497.846 191.707C496.968 191.707 496.266 192.408 496.266 193.284V217.121C496.266 217.997 496.968 218.698 497.846 218.698H514.526C515.228 218.698 515.931 217.997 515.931 217.296C515.931 216.595 515.228 215.894 514.526 215.894H499.251V206.429H512.595C513.297 206.429 513.999 205.728 513.999 205.027C513.999 204.326 513.297 203.625 512.595 203.625H499.251V194.511H514.35C515.053 194.511 515.755 193.81 515.755 193.109C515.755 192.408 515.053 191.707 514.35 191.707H497.846ZM525.098 193.284C525.098 192.408 525.8 191.707 526.678 191.707H544.762C545.64 191.707 546.343 192.408 546.343 193.284V217.121C546.343 217.997 545.64 218.698 544.762 218.698C543.885 218.698 543.182 217.997 543.182 217.121V194.511H528.083V217.121C528.083 217.997 527.38 218.698 526.502 218.698C525.624 218.698 524.922 217.997 524.922 217.121V193.284H525.098ZM573.961 200.339C573.961 203.844 570.976 206.298 566.586 206.298H559.914V194.555H566.762C571.151 194.555 573.961 196.483 573.961 200.339ZM558.51 191.751C557.632 191.751 556.93 192.452 556.93 193.328V216.99C556.93 217.866 557.632 218.567 558.51 218.567C559.388 218.567 560.09 217.866 560.09 216.99V209.103H566.586C572.205 209.103 577.121 206.123 577.121 200.339C577.121 194.906 573.258 191.751 567.113 191.751H558.51ZM477.344 206.298C481.734 206.298 484.719 203.844 484.719 200.339C484.719 196.483 481.909 194.555 477.52 194.555H470.672V206.298H477.344ZM467.688 193.328C467.688 192.452 468.39 191.751 469.268 191.751H477.871C484.016 191.751 487.879 194.906 487.879 200.339C487.879 206.123 482.963 209.103 477.344 209.103H470.848V216.99C470.848 217.866 470.146 218.567 469.268 218.567C468.39 218.567 467.688 217.866 467.688 216.99V193.328ZM441.29 200.339C441.29 203.844 438.305 206.298 433.915 206.298H427.243V194.555H434.091C438.48 194.555 441.29 196.483 441.29 200.339ZM425.839 191.751C424.961 191.751 424.258 192.452 424.258 193.328V216.99C424.258 217.866 424.961 218.567 425.839 218.567C426.717 218.567 427.419 217.866 427.419 216.99V209.103H433.915C439.534 209.103 444.45 206.123 444.45 200.339C444.45 194.906 440.587 191.751 434.442 191.751H425.839ZM608.713 205.145C608.713 199.01 604.324 194.103 598.179 194.103C592.034 194.103 587.644 199.01 587.644 205.145C587.644 211.279 592.034 216.187 598.179 216.187C604.5 216.187 608.713 211.279 608.713 205.145ZM584.484 205.145C584.484 197.784 590.102 191.299 598.179 191.299C606.255 191.299 611.874 197.784 611.874 205.145C611.874 212.506 606.255 218.991 598.179 218.991C590.102 218.991 584.484 212.682 584.484 205.145ZM638.549 194.516V215.899H623.449C625.556 212.218 626.961 205.032 626.961 198.022V194.516H638.549ZM618.884 215.724C618.006 215.724 617.304 216.425 617.304 217.301C617.304 217.301 617.304 223.085 617.128 222.91C617.128 223.786 617.831 224.487 618.709 224.487C619.586 224.487 620.289 223.786 620.289 222.91V218.528H642.236V223.085C642.236 223.962 642.938 224.663 643.816 224.663C644.694 224.663 645.396 223.962 645.396 223.085V217.301C645.396 216.425 644.694 215.724 643.816 215.724H641.885V193.114C641.885 192.238 641.183 191.537 640.305 191.537H625.732C624.854 191.537 624.151 192.238 624.151 193.114V196.269C624.151 205.032 622.747 211.693 620.113 215.724H618.884ZM652.988 218.282L652.461 217.756V217.055L652.636 216.529C652.988 216.003 653.514 215.653 654.217 215.828L654.217 215.828C654.919 216.003 655.621 216.179 656.675 216.179C658.606 216.179 660.537 215.127 662.118 212.147L651.583 193.919C651.232 193.393 651.232 192.868 651.583 192.342C651.934 191.816 652.285 191.641 652.812 191.641C653.339 191.641 653.865 191.991 654.041 192.342L663.522 209.168L671.599 192.517C671.774 191.991 672.301 191.641 673.003 191.641C673.53 191.641 674.057 191.816 674.232 192.342C674.584 192.692 674.584 193.393 674.232 193.744L664.576 212.848C662.469 217.23 659.484 218.983 656.324 218.983C655.27 218.983 654.041 218.808 652.988 218.282ZM715.848 218.6H736.391V222.982C736.391 223.859 737.093 224.56 737.971 224.56C738.673 224.56 739.375 224.034 739.375 223.157V217.374C739.375 216.497 738.673 215.796 737.795 215.796H735.864V193.186C735.864 192.31 735.161 191.609 734.284 191.609C733.406 191.609 732.703 192.31 732.703 193.186V215.796H717.428V193.186C717.428 192.31 716.726 191.609 715.848 191.609C714.97 191.609 714.268 192.31 714.268 193.186V217.023C714.268 217.899 714.97 218.6 715.848 218.6ZM874.046 193.041C874.046 192.34 874.748 191.639 875.45 191.639H889.848C890.55 191.639 891.252 192.34 891.252 193.041C891.252 193.742 890.55 194.443 889.848 194.443H877.031V217.053C877.031 217.929 876.328 218.631 875.45 218.631C874.573 218.631 873.87 217.929 873.87 217.053V193.041H874.046ZM930.099 191.707C929.221 191.707 928.519 192.408 928.519 193.284V217.121C928.519 217.997 929.221 218.698 930.099 218.698C930.977 218.698 931.68 217.997 931.68 217.121V206.604H947.13V217.121C947.13 217.997 947.833 218.698 948.711 218.698C949.588 218.698 950.291 217.997 950.291 217.121V193.284C950.291 192.408 949.588 191.707 948.711 191.707C947.833 191.707 947.13 192.408 947.13 193.284V203.625H931.68V193.284C931.68 192.408 930.977 191.707 930.099 191.707ZM364.138 193.284C364.138 192.408 364.841 191.707 365.719 191.707C366.596 191.707 367.299 192.408 367.299 193.284V203.625H382.574V193.284C382.574 192.408 383.276 191.707 384.154 191.707C385.032 191.707 385.734 192.408 385.734 193.284V217.121C385.734 217.997 385.032 218.698 384.154 218.698C383.276 218.698 382.574 217.997 382.574 217.121V206.604H367.123V217.121C367.123 217.997 366.421 218.698 365.543 218.698C364.665 218.698 363.963 217.997 363.963 217.121V193.284H364.138ZM962.048 191.639C961.346 191.639 960.643 192.34 960.643 193.041V217.228C960.643 217.929 961.346 218.631 962.048 218.631H978.904C979.606 218.631 980.308 217.929 980.308 217.228C980.308 216.527 979.606 215.826 978.904 215.826H963.628V206.362H976.972C977.675 206.362 978.377 205.661 978.377 204.96C978.377 204.258 977.675 203.557 976.972 203.557H963.628V194.443H978.728C979.43 194.443 980.133 193.742 980.133 193.041C980.133 192.34 979.43 191.639 978.728 191.639H962.048ZM899.687 193.041C899.687 192.34 900.39 191.639 901.092 191.639H917.772C918.474 191.639 919.177 192.34 919.177 193.041C919.177 193.742 918.474 194.443 917.772 194.443H902.672V203.557H916.016C916.718 203.557 917.421 204.258 917.421 204.96C917.421 205.661 916.718 206.362 916.016 206.362H902.672V215.826H917.947C918.65 215.826 919.352 216.527 919.352 217.228C919.352 217.929 918.65 218.631 917.947 218.631H901.092C900.39 218.631 899.687 217.929 899.687 217.228V193.041ZM988.837 194.566H996.387V217.176C996.387 218.052 997.089 218.753 997.967 218.753C998.845 218.753 999.547 218.052 999.547 217.176V194.566H1007.27C1007.97 194.566 1008.68 193.865 1008.68 193.164C1008.68 192.463 1007.97 191.762 1007.27 191.762H988.837C988.134 191.762 987.432 192.463 987.432 193.164C987.432 193.865 988.134 194.566 988.837 194.566ZM403.35 194.566H395.8C395.098 194.566 394.396 193.865 394.396 193.164C394.396 192.463 395.098 191.762 395.8 191.762H414.236C414.939 191.762 415.641 192.463 415.641 193.164C415.641 193.865 414.939 194.566 414.236 194.566H406.511V217.176C406.511 218.052 405.808 218.753 404.931 218.753C404.053 218.753 403.35 218.052 403.35 217.176V194.566ZM1051.64 191.708C1050.76 191.708 1050.06 192.409 1050.06 193.285H1049.89V217.122C1049.89 217.999 1050.59 218.7 1051.47 218.7C1052.34 218.7 1053.05 217.999 1053.05 217.122V211.514L1058.84 205.73L1068.67 218.174C1069.02 218.524 1069.37 218.7 1069.9 218.7C1070.6 218.7 1071.13 218.349 1071.31 217.823C1071.48 217.297 1071.48 216.772 1071.13 216.246L1060.95 203.626L1070.08 194.162C1070.6 193.636 1070.6 193.11 1070.43 192.584C1070.25 192.059 1069.73 191.708 1069.2 191.708C1068.85 191.708 1068.5 191.883 1068.15 192.234L1053.22 207.833V193.285C1053.22 192.409 1052.52 191.708 1051.64 191.708ZM1080.75 193.284C1080.75 192.408 1081.45 191.707 1082.33 191.707C1083.21 191.707 1083.91 192.408 1083.91 193.284V213.966L1099.36 192.408C1099.71 191.882 1100.24 191.707 1100.94 191.707C1101.99 191.707 1102.87 192.583 1102.87 193.634V217.121C1102.87 217.997 1102.17 218.523 1101.47 218.523C1100.59 218.523 1099.89 217.822 1099.89 216.945V196.264L1084.44 217.646C1084.09 218.172 1083.56 218.523 1082.86 218.523C1081.8 218.523 1080.93 217.646 1080.93 216.595V193.284H1080.75ZM1019.04 191.707C1018.16 191.707 1017.46 192.408 1017.46 193.284H1017.63V216.595C1017.63 217.646 1018.51 218.523 1019.56 218.523C1020.27 218.523 1020.79 218.172 1021.14 217.646L1036.59 196.264V216.945C1036.59 217.822 1037.3 218.523 1038.17 218.523C1038.88 218.523 1039.58 217.997 1039.58 217.121V193.634C1039.58 192.583 1038.7 191.707 1037.65 191.707C1036.95 191.707 1036.42 191.882 1036.07 192.408L1020.62 213.966V193.284C1020.62 192.408 1019.91 191.707 1019.04 191.707ZM826.783 193.284C826.783 192.408 827.485 191.707 828.363 191.707C829.241 191.707 829.943 192.408 829.943 193.284V213.966L845.394 192.408C845.745 191.882 846.272 191.707 846.974 191.707C848.028 191.707 848.905 192.583 848.905 193.634V217.121C848.905 217.997 848.203 218.523 847.501 218.523C846.623 218.523 845.921 217.822 845.921 216.945V196.264L830.47 217.646C830.119 218.172 829.592 218.523 828.89 218.523C827.836 218.523 826.958 217.646 826.958 216.595V193.284H826.783ZM781.1 191.707C780.222 191.707 779.52 192.408 779.52 193.284H779.695V216.595C779.695 217.646 780.573 218.523 781.627 218.523C782.329 218.523 782.856 218.172 783.207 217.646L798.658 196.264V216.945C798.658 217.822 799.36 218.523 800.238 218.523C800.94 218.523 801.642 217.997 801.642 217.121V193.634C801.642 192.583 800.765 191.707 799.711 191.707C799.009 191.707 798.482 191.882 798.131 192.408L782.68 213.966V193.284C782.68 192.408 781.978 191.707 781.1 191.707ZM746.913 193.284C746.913 192.408 747.615 191.707 748.493 191.707C749.371 191.707 750.073 192.408 750.073 193.284V213.966L765.524 192.408C765.875 191.882 766.402 191.707 767.104 191.707C768.158 191.707 769.036 192.583 769.036 193.634V217.121C769.036 217.997 768.333 218.523 767.631 218.523C766.753 218.523 766.051 217.822 766.051 216.945V196.264L750.6 217.646C750.249 218.172 749.722 218.523 749.02 218.523C747.966 218.523 747.088 217.646 747.088 216.595V193.284H746.913ZM685.354 191.708C684.476 191.708 683.774 192.409 683.774 193.285H683.422V217.122C683.422 217.999 684.125 218.7 685.003 218.7C685.881 218.7 686.583 217.999 686.583 217.122V211.514L692.377 205.73L702.209 218.174C702.56 218.524 702.912 218.7 703.438 218.7C704.141 218.7 704.667 218.349 704.843 217.823C705.019 217.297 705.019 216.772 704.667 216.246L694.484 203.626L703.789 194.162C704.316 193.636 704.316 193.11 704.141 192.584C703.965 192.059 703.438 191.708 702.912 191.708C702.56 191.708 702.209 191.883 701.858 192.234L686.934 207.833V193.285C686.934 192.409 686.232 191.708 685.354 191.708ZM335.306 193.284C335.306 192.408 336.009 191.707 336.887 191.707H353.391C354.093 191.707 354.796 192.408 354.796 193.109C354.796 193.81 354.093 194.511 353.391 194.511H338.291V203.625H351.635C352.338 203.625 353.04 204.326 353.04 205.027C353.04 205.728 352.338 206.429 351.635 206.429H338.291V215.894H353.567C354.269 215.894 354.971 216.595 354.971 217.296C354.971 217.997 354.269 218.698 353.567 218.698H336.887C336.009 218.698 335.306 217.997 335.306 217.121V193.284ZM304.419 218.6H324.786H324.961V222.982C324.961 223.859 325.664 224.56 326.542 224.56C327.244 224.56 327.946 224.034 327.946 223.157V217.374C327.946 216.497 327.244 215.796 326.366 215.796H324.435V193.186C324.435 192.31 323.732 191.609 322.854 191.609C321.977 191.609 321.274 192.31 321.274 193.186V215.796H305.999V193.186C305.999 192.31 305.297 191.609 304.419 191.609C303.541 191.609 302.839 192.31 302.839 193.186V217.023C302.839 217.899 303.541 218.6 304.419 218.6Z" fill="#424242"/>
</svg>
