<svg width="250" height="27" viewBox="0 0 250 27" fill="none" xmlns="http://www.w3.org/2000/svg">
<path fill-rule="evenodd" clip-rule="evenodd" d="M84.1913 0.0540041C83.5396 0.0540041 82.9422 0.485995 82.6707 1.134L74.0358 22.842L65.5094 1.08C65.2922 0.432005 64.6948 0 63.9888 0C63.0656 0 62.4139 0.701998 62.4139 1.56599C62.4139 1.674 62.4621 1.83002 62.5104 1.98603C62.5346 2.06402 62.5587 2.14201 62.5768 2.214L71.8091 25.434C72.1893 26.298 72.841 27 73.9814 27C75.1762 27 75.8822 26.298 76.2081 25.434L85.6033 2.214C85.712 1.998 85.7663 1.782 85.7663 1.56599C85.7663 0.647993 85.0603 0.0540041 84.1913 0.0540041ZM44.9991 2.92723C39.0795 2.92723 34.5177 7.73323 34.5177 13.5652C34.5177 19.3972 39.0795 24.1492 44.9991 24.1492C50.9186 24.1492 55.5348 19.3432 55.5348 13.5652C55.5348 7.73323 50.9186 2.92723 44.9991 2.92723ZM44.9991 26.9572C37.4503 26.9572 31.2049 21.1252 31.2049 13.5112C31.2049 5.89723 37.4503 0.0112288 44.9991 0.0112288C52.5479 0.0112288 58.7933 5.89723 58.7933 13.5112C58.7933 21.1792 52.5479 26.9572 44.9991 26.9572ZM23.7869 25.2974C23.7869 26.2154 23.0265 26.9714 21.9947 26.9714C21.3973 26.9714 20.8542 26.6474 20.4741 26.1074L3.96447 5.4254V25.5674C3.96447 26.3234 3.31278 26.9714 2.44384 26.9714C1.57494 26.9714 0.977532 26.3774 0.977532 25.5674V3.53539C0.977532 1.96938 0.597376 1.2134 0 0.889386C0.380156 0.457395 1.03184 0.02539 1.95509 0.02539C3.09556 0.02539 4.01878 0.565389 5.75662 2.77939C5.97387 3.0494 20.7999 21.5714 20.7999 21.5714V1.48339C20.7999 0.727387 21.4516 0.0793941 22.3205 0.0793941C23.1352 0.0793941 23.7869 0.727387 23.7869 1.48339V25.2974ZM93.3464 17.6295H104.262L98.8315 4.02154L93.3464 17.6295ZM105.077 20.1135H92.5861L90.2509 25.8375C89.9793 26.5395 89.5449 26.9715 88.7303 26.9715C87.807 26.9715 87.264 26.3235 87.264 25.5675C87.264 25.3515 87.3726 25.0275 87.4812 24.7575L96.7135 1.59154C97.0937 0.72754 97.6368 0.0255428 98.8315 0.0255428C100.135 0.0255428 100.624 0.72754 101.004 1.59154L110.236 24.7035C110.345 24.9195 110.453 25.2975 110.453 25.5135C110.453 26.3775 109.802 26.9175 108.933 26.9175C108.172 26.9175 107.629 26.5395 107.412 25.7835L105.077 20.1135ZM141.889 4.25004C142.342 4.49594 142.671 4.67415 142.972 4.67415C143.787 4.67415 144.384 4.13415 144.384 3.27014C144.384 2.40614 143.678 1.81214 142.538 1.32614C140.908 0.570142 138.845 0.0301428 136.075 0.0301428C128.635 0.0301428 122.281 6.07814 122.281 13.4761C122.281 21.6841 128.472 26.9761 136.075 26.9761C138.845 26.9761 141.017 26.3821 142.7 25.6261C143.787 25.0861 144.601 24.5461 144.601 23.6821C144.601 22.8721 143.95 22.2781 143.189 22.2781C142.853 22.2781 142.501 22.4655 142.008 22.7286C141.547 22.9747 140.962 23.287 140.148 23.5741C139.116 23.8981 137.813 24.2221 136.021 24.2221C130.318 24.2221 125.485 19.8481 125.485 13.4761C125.485 7.64415 130.318 2.83815 136.021 2.83815C137.813 2.83815 139.062 3.10814 140.094 3.43214C140.875 3.70007 141.443 4.00788 141.889 4.25004ZM150.653 1.55143C150.653 0.741424 151.304 0.039426 152.173 0.039426C153.042 0.039426 153.748 0.741424 153.748 1.55143V23.8534H166.348C167.108 23.8534 167.651 24.4474 167.651 25.2574C167.651 26.0134 167.054 26.6074 166.348 26.6074H152.228C151.359 26.6074 150.707 25.9054 150.707 25.0954V1.55143H150.653ZM175.165 0.039426C174.35 0.039426 173.644 0.741424 173.644 1.55143V25.4734C173.644 26.2834 174.296 26.9854 175.165 26.9854C176.034 26.9854 176.74 26.2834 176.74 25.4734V1.55143C176.74 0.741424 176.034 0.039426 175.165 0.039426ZM208.38 25.2974C208.38 26.2154 207.62 26.9714 206.588 26.9714C205.991 26.9714 205.448 26.6474 205.068 26.1074L188.504 5.4254V25.5674C188.504 26.3234 187.852 26.9714 186.983 26.9714C186.114 26.9714 185.517 26.3774 185.517 25.5674V1.69939C185.517 0.835396 186.277 0.02539 187.255 0.02539C187.852 0.02539 188.395 0.349387 188.775 0.889386L205.339 21.5714V1.48339C205.339 0.727387 205.991 0.0793941 206.86 0.0793941C207.674 0.0793941 208.326 0.727387 208.326 1.48339V25.2974H208.38ZM218.734 0.039426C217.92 0.039426 217.214 0.741424 217.214 1.55143V25.4734C217.214 26.2834 217.865 26.9854 218.734 26.9854C219.603 26.9854 220.309 26.2834 220.309 25.4734V1.55143C220.309 0.741424 219.603 0.039426 218.734 0.039426ZM248.371 4.67415C248.07 4.67415 247.741 4.49594 247.288 4.25004C246.841 4.00788 246.274 3.70007 245.492 3.43214C244.461 3.10814 243.212 2.83815 241.419 2.83815C235.717 2.83815 230.884 7.64415 230.884 13.4761C230.884 19.8481 235.717 24.2221 241.419 24.2221C243.212 24.2221 244.515 23.8981 245.547 23.5741C246.36 23.287 246.946 22.9747 247.407 22.7286C247.9 22.4656 248.251 22.2781 248.588 22.2781C249.348 22.2781 250 22.8721 250 23.6821C250 24.5461 249.185 25.0861 248.099 25.6261C246.416 26.3821 244.243 26.9761 241.474 26.9761C233.871 26.9761 227.679 21.6841 227.679 13.4761C227.679 6.07814 234.033 0.0301428 241.474 0.0301428C244.243 0.0301428 246.307 0.570142 247.936 1.32614C249.077 1.81214 249.783 2.40614 249.783 3.27014C249.783 4.13415 249.185 4.67415 248.371 4.67415Z" fill="white"/>
</svg>
