<svg>
	<symbol xmlns="http://www.w3.org/2000/svg" viewBox="0 0 23 23" id="icon-whatsapp">
		<path d="M19.6489 3.34247C17.4868 1.18818 14.6114 0.00126343 11.5481 0C5.23585 0 0.098598 5.11253 0.096059 11.3963C0.0952127 13.405 0.622479 15.3658 1.62468 17.0942L0 23L6.0709 21.4151C7.74368 22.3232 9.62692 22.8018 11.5434 22.8023H11.5482C17.8598 22.8023 22.9976 17.6894 23 11.4054C23.0013 8.35996 21.8112 5.49661 19.6489 3.34247ZM11.5481 20.8776H11.5442C9.83625 20.8769 8.16121 20.4201 6.69959 19.5572L6.35217 19.3518L2.7496 20.2923L3.71118 16.7967L3.48478 16.4383C2.53195 14.9301 2.02881 13.1868 2.02965 11.397C2.03163 6.17409 6.30167 1.9249 11.5519 1.9249C14.0943 1.92574 16.4842 2.91234 18.2813 4.7029C20.0783 6.49346 21.0674 8.87347 21.0665 11.4047C21.0643 16.628 16.7945 20.8776 11.5481 20.8776V20.8776ZM16.7691 13.7829C16.4831 13.6402 15.0762 12.9515 14.8138 12.8564C14.5517 12.7613 14.3608 12.714 14.1702 12.999C13.9793 13.284 13.4311 13.9255 13.264 14.1154C13.097 14.3055 12.9303 14.3294 12.6441 14.1867C12.3579 14.0443 11.436 13.7434 10.3429 12.7733C9.49235 12.0181 8.91811 11.0856 8.7511 10.8006C8.58438 10.5154 8.74969 10.3761 8.87664 10.2194C9.1864 9.83663 9.49658 9.43528 9.59194 9.24534C9.68743 9.05527 9.63961 8.88892 9.56796 8.74643C9.49658 8.60394 8.92432 7.20224 8.68594 6.63187C8.45348 6.07681 8.21777 6.15177 8.04202 6.14307C7.87529 6.13478 7.68444 6.1331 7.49359 6.1331C7.30288 6.1331 6.99284 6.20427 6.73048 6.48953C6.46826 6.77464 5.72912 7.46349 5.72912 8.86519C5.72912 10.2669 6.75446 11.621 6.89749 11.8111C7.04052 12.0012 8.91529 14.8776 11.7856 16.1109C12.4683 16.4046 13.0013 16.5797 13.4169 16.7109C14.1025 16.9277 14.7261 16.8971 15.2192 16.8238C15.7691 16.742 16.912 16.1348 17.1507 15.4697C17.3891 14.8044 17.3891 14.2343 17.3174 14.1154C17.2461 13.9967 17.0552 13.9255 16.7691 13.7829V13.7829Z" />
	</symbol>
	<symbol xmlns="http://www.w3.org/2000/svg" viewBox="0 0 21 21" id="icon-anketa">
		<path d="M4 19.8042L10.0868 16H18C19.1046 16 20 15.1046 20 14V2C20 0.89543 19.1046 0 18 0H2C0.89543 0 0 0.89543 0 2V14C0 15.1046 0.89543 16 2 16H4V19.8042ZM9.5132 14L6 16.1958V14H2V2H18V14H9.5132ZM5 11V9H12V11H5ZM5 5V7H14V5H5Z" />
	</symbol>
	<symbol xmlns="http://www.w3.org/2000/svg" viewBox="0 0 21 21" id="icon-telephone">
		<path d="M8.8614 6.33888C9.3795 5.64067 9.56529 4.90482 8.97932 4.25529C7.66437 2.41531 6.78003 1.27747 6.22533 0.729514C5.17077 -0.312219 3.436 -0.171309 2.52267 0.728624C2.03212 1.21199 1.86604 1.37797 1.36235 1.88959C-1.4433 4.69674 0.267729 10.631 4.81627 15.184C9.36378 19.736 15.2975 21.4479 18.109 18.6348C18.5738 18.1867 18.9673 17.793 19.2777 17.465C20.1727 16.5189 20.3086 14.8607 19.2718 13.7834C18.7402 13.2311 17.6552 12.3894 15.7378 11.0179C15.1506 10.4928 14.4543 10.6066 13.8159 11.0254C13.5089 11.2269 13.2854 11.4307 12.8634 11.853L12.0972 12.6197C11.9963 12.7207 10.6259 12.0344 9.2956 10.7028C7.9646 9.37051 7.27878 8.00004 7.37923 7.89959L8.146 7.1324C8.27988 6.99839 8.34388 6.93351 8.42596 6.84725C8.59697 6.66752 8.73856 6.50441 8.8614 6.33888ZM13.5106 14.0339L14.277 13.2671C14.5092 13.0346 14.6597 12.8917 14.7822 12.7932C16.4618 13.9994 17.4346 14.7578 17.8319 15.1707C18.0705 15.4185 18.0334 15.8708 17.8261 16.09C17.5391 16.3934 17.1662 16.7664 16.7086 17.2078C14.8906 19.0266 10.1008 17.6447 6.23001 13.7701C2.35803 9.89429 0.976766 5.10377 2.78108 3.29846C3.28274 2.78895 3.44168 2.63009 3.92524 2.15363C4.10654 1.97498 4.6004 1.93487 4.82096 2.15274C5.24802 2.57461 6.04022 3.58897 7.20559 5.21231C7.14526 5.28721 7.06991 5.37185 6.97821 5.46822C6.91091 5.53895 6.85484 5.59579 6.73226 5.71849L5.96624 6.48493C4.66309 7.78797 5.7729 10.0057 7.88186 12.1167C9.98936 14.2263 12.2079 15.3373 13.5106 14.0339ZM11.6599 0.0704155C15.9832 0.594453 19.4113 4.0225 19.9353 8.34582L17.9599 8.67506C17.5785 5.19269 14.8131 2.42728 11.3307 2.04585L11.6599 0.0704155V0.0704155ZM11.0012 4.02299C13.6427 4.25926 15.7465 6.36306 15.9828 9.00459L14.001 9.33488C13.9169 7.53399 12.4718 6.08887 10.6709 6.00477L11.0012 4.02299V4.02299Z" />
	</symbol>
	<symbol xmlns="http://www.w3.org/2000/svg" viewBox="0 0 18 23" id="icon-pin">
		<path fill-rule="evenodd" clip-rule="evenodd" d="M9 22.3276L9.65773 21.7532C15.1887 16.9237 18 12.7068 18 9C18 3.75067 13.9029 0 9 0C4.09705 0 0 3.75067 0 9C0 12.7068 2.81131 16.9237 8.34227 21.7532L9 22.3276ZM9 19.6634C4.30661 15.4335 2 11.8492 2 9C2 4.89661 5.16411 2 9 2C12.8359 2 16 4.89661 16 9C16 11.8492 13.6934 15.4335 9 19.6634ZM9 4C11.7614 4 14 6.23859 14 9C14 11.7614 11.7614 14 9 14C6.23858 14 4 11.7614 4 9C4 6.23859 6.23858 4 9 4ZM6 9C6 7.34314 7.34315 6 9 6C10.6569 6 12 7.34314 12 9C12 10.6569 10.6569 12 9 12C7.34315 12 6 10.6569 6 9Z" />
	</symbol>
	<symbol xmlns="http://www.w3.org/2000/svg" viewBox="0 0 31 8" id="icon-arrow">
		<path fill-rule="evenodd" clip-rule="evenodd" d="M27.1716 0.46444L30.3536 3.64642C30.5488 3.84168 30.5488 4.15826 30.3536 4.35353L27.1716 7.53551C26.9763 7.73077 26.6597 7.73077 26.4645 7.53551C26.2692 7.34025 26.2692 7.02366 26.4645 6.8284L28.7929 4.49997H0V3.49997H28.7929L26.4645 1.17155C26.2692 0.976284 26.2692 0.659702 26.4645 0.46444C26.6597 0.269178 26.9763 0.269178 27.1716 0.46444Z" />
	</symbol>
	<symbol xmlns="http://www.w3.org/2000/svg" viewBox="0 0 32 40" id="icon-document">
		<path fill-rule="evenodd" clip-rule="evenodd" d="M3.55556 0.888916H22.0697L32 10.8192V36.4445C32 38.4081 30.4081 40 28.4444 40H3.55556C1.59188 40 0 38.4081 0 36.4445V4.44447C0 2.48079 1.59188 0.888916 3.55556 0.888916ZM17.7778 4.44444H3.55556V36.4444H28.4444V15.1111H21.3333C19.3697 15.1111 17.7778 13.5193 17.7778 11.5556V4.44444ZM21.3333 5.18082V11.5556H27.7081L21.3333 5.18082ZM8.88889 29.3334V25.7778H19.5556V29.3334H8.88889ZM8.88889 18.6667V22.2222H23.1111V18.6667H8.88889Z" />
	</symbol>
	<symbol xmlns="http://www.w3.org/2000/svg" viewBox="0 0 33 38" id="icon-shield">
		<path fill-rule="evenodd" clip-rule="evenodd" d="M16.446 37.9999C6.08244 33.383 0.900635 28.777 0.900635 24.1817V6.90907C0.900635 5.58323 1.40949 5.2751 2.81778 4.42231C3.24417 4.1641 3.75302 3.85597 4.35517 3.45454C4.63463 3.26823 10.5098 0 16.446 0C21.6196 0 25.946 1.72727 28.5369 3.45454C29.1391 3.85597 29.6479 4.1641 30.0743 4.42231C31.4826 5.2751 31.9914 5.58323 31.9914 6.90907C32.0255 7.28427 32.0088 15.2631 31.9981 20.3717V20.3726V20.3729C31.9944 22.1148 31.9914 23.5229 31.9914 24.1817C31.9914 28.7878 26.8096 33.3938 16.446 37.9999ZM28.5369 24.1818C28.5369 23.7839 28.5379 23.1174 28.5401 22.0308L28.5471 18.657C28.5493 17.5655 28.551 16.6288 28.5525 15.735C28.5589 11.8795 28.5572 8.5704 28.5535 7.54693L28.3162 7.3997L28.3162 7.39965C27.7576 7.05315 27.0296 6.60152 26.6207 6.32889C24.0708 4.62894 20.35 3.45455 16.446 3.45455C12.7118 3.45455 7.85917 5.27038 6.2714 6.32889C5.86246 6.60152 5.13447 7.05315 4.57593 7.39965L4.35517 7.53666V24.1818C4.35517 26.7873 8.20544 30.3459 16.4476 34.2034C24.6888 30.3546 28.5369 26.7972 28.5369 24.1818ZM22.1337 12.5969L14.7188 20.0118L10.7583 16.0514L8.31561 18.4941L14.7188 24.8973L24.5765 15.0396L22.1337 12.5969Z" />
	</symbol>
	<symbol xmlns="http://www.w3.org/2000/svg" viewBox="0 0 43 40" id="icon-star">
		<path fill-rule="evenodd" clip-rule="evenodd" d="M11.2384 25.7404L8.79267 40L21.5986 33.2675L34.4045 40L31.9588 25.7404L42.319 15.6417L28.0016 13.5612L21.5986 0.587402L15.1956 13.5612L0.878174 15.6417L11.2384 25.7404ZM29.684 33.5026L21.5986 29.2518L13.5132 33.5026L15.0573 24.4993L8.51609 18.1232L17.5559 16.8097L21.5986 8.61823L25.6413 16.8097L34.6811 18.1232L28.1398 24.4993L29.684 33.5026Z" />
	</symbol>
	<symbol xmlns="http://www.w3.org/2000/svg" viewBox="0 0 280 58" id="logo-zero">
		<path fill-rule="evenodd" clip-rule="evenodd" d="M94.2943 0.0619319C93.5644 0.0619319 92.8953 0.55734 92.5912 1.30047L82.92 26.1952L73.3705 1.23854C73.1272 0.495424 72.4582 0 71.6675 0C70.6334 0 69.9035 0.805051 69.9035 1.79588C69.9035 1.91975 69.9576 2.09867 70.0117 2.27758C70.0387 2.36702 70.0657 2.45646 70.086 2.53902L80.4262 29.1677C80.852 30.1586 81.5819 30.9636 82.8592 30.9636C84.1974 30.9636 84.9881 30.1586 85.353 29.1677L95.8757 2.53902C95.9974 2.29131 96.0582 2.04359 96.0582 1.79588C96.0582 0.743119 95.2675 0.0619319 94.2943 0.0619319ZM50.399 3.35695C43.7691 3.35695 38.6598 8.86847 38.6598 15.5566C38.6598 22.2448 43.7691 27.6943 50.399 27.6943C57.0289 27.6943 62.199 22.1828 62.199 15.5566C62.199 8.86847 57.0289 3.35695 50.399 3.35695ZM50.399 30.9146C41.9443 30.9146 34.9495 24.2264 34.9495 15.4947C34.9495 6.76295 41.9443 0.0128773 50.399 0.0128773C58.8536 0.0128773 65.8485 6.76295 65.8485 15.4947C65.8485 24.2884 58.8536 30.9146 50.399 30.9146ZM26.6413 29.0111C26.6413 30.0638 25.7897 30.9308 24.6341 30.9308C23.965 30.9308 23.3567 30.5592 22.931 29.94L4.4402 6.22185V29.3207C4.4402 30.1877 3.71031 30.9308 2.73711 30.9308C1.76393 30.9308 1.09484 30.2496 1.09484 29.3207V4.05439C1.09484 2.25849 0.669061 1.39152 0 1.01995C0.425775 0.524541 1.15567 0.0291172 2.1897 0.0291172C3.46703 0.0291172 4.50103 0.648389 6.44742 3.18741C6.69074 3.49705 23.2959 24.7381 23.2959 24.7381V1.70115C23.2959 0.834169 24.0258 0.0910492 24.999 0.0910492C25.9114 0.0910492 26.6413 0.834169 26.6413 1.70115V29.0111ZM104.548 20.2176H116.774L110.691 4.6119L104.548 20.2176ZM117.686 23.0662H103.696L101.081 29.6305C100.777 30.4356 100.29 30.931 99.3779 30.931C98.3439 30.931 97.7356 30.1879 97.7356 29.3209C97.7356 29.0732 97.8573 28.7016 97.9789 28.392L108.319 1.82518C108.745 0.834344 109.353 0.0292926 110.691 0.0292926C112.151 0.0292926 112.699 0.834344 113.124 1.82518L123.465 28.33C123.586 28.5777 123.708 29.0112 123.708 29.2589C123.708 30.2498 122.978 30.8691 122.005 30.8691C121.153 30.8691 120.545 30.4356 120.302 29.5686L117.686 23.0662ZM158.916 4.87394C159.424 5.15595 159.792 5.36032 160.129 5.36032C161.041 5.36032 161.71 4.74104 161.71 3.7502C161.71 2.75937 160.919 2.07816 159.642 1.52082C157.817 0.653839 155.506 0.0345678 152.404 0.0345678C144.071 0.0345678 136.954 6.97042 136.954 15.4545C136.954 24.8674 143.888 30.9363 152.404 30.9363C155.506 30.9363 157.939 30.2551 159.825 29.3881C161.041 28.7688 161.953 28.1495 161.953 27.1587C161.953 26.2298 161.224 25.5486 160.372 25.5486C159.995 25.5486 159.602 25.7635 159.049 26.0652C158.533 26.3474 157.877 26.7056 156.966 27.0348C155.81 27.4064 154.35 27.778 152.343 27.778C145.956 27.778 140.543 22.7619 140.543 15.4545C140.543 8.76632 145.956 3.25479 152.343 3.25479C154.35 3.25479 155.749 3.56442 156.905 3.93598C157.78 4.24325 158.416 4.59624 158.916 4.87394ZM168.731 1.77918C168.731 0.850265 169.461 0.0452138 170.434 0.0452138C171.407 0.0452138 172.198 0.850265 172.198 1.77918V27.3551H186.309C187.161 27.3551 187.769 28.0363 187.769 28.9652C187.769 29.8322 187.1 30.5134 186.309 30.5134H170.495C169.522 30.5134 168.792 29.7084 168.792 28.7795V1.77918H168.731ZM196.185 0.0452138C195.272 0.0452138 194.482 0.850265 194.482 1.77918V29.2129C194.482 30.1419 195.212 30.9469 196.185 30.9469C197.158 30.9469 197.949 30.1419 197.949 29.2129V1.77918C197.949 0.850265 197.158 0.0452138 196.185 0.0452138ZM233.386 29.0111C233.386 30.0638 232.534 30.9308 231.379 30.9308C230.71 30.9308 230.101 30.5592 229.676 29.94L211.124 6.22185V29.3207C211.124 30.1877 210.394 30.9308 209.421 30.9308C208.448 30.9308 207.779 30.2496 207.779 29.3207V1.94886C207.779 0.958032 208.63 0.0291172 209.725 0.0291172C210.394 0.0291172 211.002 0.400677 211.428 1.01995L229.98 24.7381V1.70115C229.98 0.834169 230.71 0.0910492 231.683 0.0910492C232.595 0.0910492 233.325 0.834169 233.325 1.70115V29.0111H233.386ZM244.982 0.0452138C244.07 0.0452138 243.279 0.850265 243.279 1.77918V29.2129C243.279 30.1419 244.009 30.9469 244.982 30.9469C245.956 30.9469 246.746 30.1419 246.746 29.2129V1.77918C246.746 0.850265 245.956 0.0452138 244.982 0.0452138ZM278.175 5.36032C277.838 5.36032 277.47 5.15595 276.962 4.87394C276.462 4.59624 275.827 4.24325 274.952 3.93598C273.796 3.56442 272.397 3.25479 270.39 3.25479C264.003 3.25479 258.59 8.76632 258.59 15.4545C258.59 22.7619 264.003 27.778 270.39 27.778C272.397 27.778 273.857 27.4064 275.012 27.0348C275.924 26.7056 276.579 26.3474 277.096 26.0652L277.096 26.0652C277.648 25.7635 278.041 25.5486 278.419 25.5486C279.27 25.5486 280 26.2298 280 27.1587C280 28.1495 279.088 28.7688 277.871 29.3881C275.986 30.2551 273.553 30.9363 270.451 30.9363C261.935 30.9363 255.001 24.8674 255.001 15.4545C255.001 6.97042 262.118 0.0345678 270.451 0.0345678C273.553 0.0345678 275.864 0.653839 277.689 1.52082C278.966 2.07816 279.757 2.75937 279.757 3.7502C279.757 4.74104 279.088 5.36032 278.175 5.36032ZM68.6267 46.3558C68.3226 46.3558 68.0793 46.6035 68.0793 46.9131V55.3352C68.0793 55.6449 68.3226 55.8926 68.6267 55.8926H74.4051C74.6484 55.8926 74.8917 55.6449 74.8917 55.3972C74.8917 55.1494 74.6484 54.9017 74.4051 54.9017H69.1133V51.5577H73.736C73.9793 51.5577 74.2226 51.3099 74.2226 51.0623C74.2226 50.8145 73.9793 50.5668 73.736 50.5668H69.1133V47.3466H74.3443C74.5876 47.3466 74.8308 47.0989 74.8308 46.8512C74.8308 46.6035 74.5876 46.3558 74.3443 46.3558H68.6267ZM78.0674 46.9131C78.0674 46.6035 78.3107 46.3558 78.6148 46.3558H84.8798C85.1839 46.3558 85.4272 46.6035 85.4272 46.9131V55.3352C85.4272 55.6449 85.1839 55.8926 84.8798 55.8926C84.5756 55.8926 84.3323 55.6449 84.3323 55.3352V47.3466H79.1014V55.3352C79.1014 55.6449 78.8581 55.8926 78.554 55.8926C78.2499 55.8926 78.0066 55.6449 78.0066 55.3352V46.9131H78.0674ZM94.9948 49.4059C94.9948 50.6444 93.9607 51.5114 92.4401 51.5114H90.1288V47.3623H92.5009C94.0216 47.3623 94.9948 48.0435 94.9948 49.4059ZM89.6422 46.3714C89.3381 46.3714 89.0947 46.6191 89.0947 46.9288V55.2889C89.0947 55.5986 89.3381 55.8463 89.6422 55.8463C89.9463 55.8463 90.1896 55.5986 90.1896 55.2889V52.5022H92.4401C94.3865 52.5022 96.0896 51.4495 96.0896 49.4059C96.0896 47.4861 94.7515 46.3714 92.6226 46.3714H89.6422ZM61.5244 51.5114C63.045 51.5114 64.079 50.6444 64.079 49.4059C64.079 48.0435 63.1058 47.3623 61.5852 47.3623H59.213V51.5114H61.5244ZM58.179 46.9288C58.179 46.6191 58.4223 46.3714 58.7264 46.3714H61.7068C63.8357 46.3714 65.1739 47.4861 65.1739 49.4059C65.1739 51.4495 63.4708 52.5022 61.5244 52.5022H59.2739V55.2889C59.2739 55.5986 59.0306 55.8463 58.7264 55.8463C58.4223 55.8463 58.179 55.5986 58.179 55.2889V46.9288ZM49.034 49.4059C49.034 50.6444 48 51.5114 46.4794 51.5114H44.1681V47.3623H46.5402C48.0608 47.3623 49.034 48.0435 49.034 49.4059ZM43.6815 46.3714C43.3773 46.3714 43.134 46.6191 43.134 46.9288V55.2889C43.134 55.5986 43.3773 55.8463 43.6815 55.8463C43.9856 55.8463 44.2289 55.5986 44.2289 55.2889V52.5022H46.4794C48.4258 52.5022 50.1289 51.4495 50.1289 49.4059C50.1289 47.4861 48.7908 46.3714 46.6619 46.3714H43.6815ZM107.034 51.1039C107.034 48.9365 105.513 47.2025 103.385 47.2025C101.256 47.2025 99.7351 48.9365 99.7351 51.1039C99.7351 53.2714 101.256 55.0053 103.385 55.0053C105.574 55.0053 107.034 53.2714 107.034 51.1039ZM98.6402 51.1039C98.6402 48.503 100.587 46.2117 103.385 46.2117C106.182 46.2117 108.129 48.503 108.129 51.1039C108.129 53.7048 106.182 55.9962 103.385 55.9962C100.587 55.9962 98.6402 53.7668 98.6402 51.1039ZM117.37 47.3485V54.9036H112.139C112.869 53.6032 113.355 51.0641 113.355 48.5871V47.3485H117.37ZM110.557 54.8417C110.253 54.8417 110.01 55.0894 110.01 55.3991C110.01 55.3991 110.01 57.4427 109.949 57.3807C109.949 57.6904 110.193 57.9381 110.497 57.9381C110.801 57.9381 111.044 57.6904 111.044 57.3807V55.8325H118.647V57.4427C118.647 57.7523 118.89 58 119.195 58C119.499 58 119.742 57.7523 119.742 57.4427V55.3991C119.742 55.0894 119.499 54.8417 119.195 54.8417H118.526V46.8531C118.526 46.5435 118.282 46.2958 117.978 46.2958H112.93C112.626 46.2958 112.382 46.5435 112.382 46.8531V47.9678C112.382 51.0641 111.896 53.4174 110.983 54.8417H110.557ZM122.372 55.7455L122.189 55.5597V55.312L122.25 55.1262C122.372 54.9404 122.554 54.8166 122.798 54.8785L122.798 54.8786C123.041 54.9405 123.284 55.0024 123.649 55.0024C124.318 55.0024 124.987 54.6308 125.535 53.578L121.885 47.1376C121.764 46.9518 121.764 46.766 121.885 46.5803C122.007 46.3945 122.128 46.3325 122.311 46.3325C122.493 46.3325 122.676 46.4564 122.737 46.5803L126.021 52.5253L128.819 46.6422C128.88 46.4564 129.062 46.3325 129.306 46.3325C129.488 46.3325 129.671 46.3945 129.732 46.5803C129.853 46.7041 129.853 46.9518 129.732 47.0757L126.386 53.8257C125.656 55.3739 124.622 55.9932 123.527 55.9932C123.162 55.9932 122.737 55.9313 122.372 55.7455ZM144.148 55.8581H151.265V57.4063C151.265 57.7159 151.508 57.9636 151.812 57.9636C152.055 57.9636 152.299 57.7778 152.299 57.4682V55.4246C152.299 55.115 152.055 54.8673 151.751 54.8673H151.082V46.8786C151.082 46.569 150.839 46.3213 150.535 46.3213C150.231 46.3213 149.987 46.569 149.987 46.8786V54.8673H144.696V46.8786C144.696 46.569 144.452 46.3213 144.148 46.3213C143.844 46.3213 143.601 46.569 143.601 46.8786V55.3007C143.601 55.6104 143.844 55.8581 144.148 55.8581ZM198.952 46.8273C198.952 46.5796 199.195 46.3319 199.439 46.3319H204.426C204.67 46.3319 204.913 46.5796 204.913 46.8273C204.913 47.0751 204.67 47.3228 204.426 47.3228H199.986V55.3114C199.986 55.621 199.743 55.8687 199.439 55.8687C199.135 55.8687 198.891 55.621 198.891 55.3114V46.8273H198.952ZM218.371 46.3558C218.066 46.3558 217.823 46.6035 217.823 46.9131V55.3352C217.823 55.6449 218.066 55.8926 218.371 55.8926C218.675 55.8926 218.918 55.6449 218.918 55.3352V51.6196H224.271V55.3352C224.271 55.6449 224.514 55.8926 224.818 55.8926C225.122 55.8926 225.365 55.6449 225.365 55.3352V46.9131C225.365 46.6035 225.122 46.3558 224.818 46.3558C224.514 46.3558 224.271 46.6035 224.271 46.9131V50.5668H218.918V46.9131C218.918 46.6035 218.675 46.3558 218.371 46.3558ZM22.3068 46.9131C22.3068 46.6035 22.5501 46.3558 22.8543 46.3558C23.1584 46.3558 23.4017 46.6035 23.4017 46.9131V50.5668H28.6934V46.9131C28.6934 46.6035 28.9367 46.3558 29.2409 46.3558C29.545 46.3558 29.7883 46.6035 29.7883 46.9131V55.3352C29.7883 55.6449 29.545 55.8926 29.2409 55.8926C28.9367 55.8926 28.6934 55.6449 28.6934 55.3352V51.6196H23.3409V55.3352C23.3409 55.6449 23.0976 55.8926 22.7934 55.8926C22.4893 55.8926 22.246 55.6449 22.246 55.3352V46.9131H22.3068ZM229.438 46.3319C229.195 46.3319 228.952 46.5796 228.952 46.8273V55.3733C228.952 55.621 229.195 55.8687 229.438 55.8687H235.278C235.521 55.8687 235.764 55.621 235.764 55.3733C235.764 55.1256 235.521 54.8779 235.278 54.8779H229.986V51.5338H234.609C234.852 51.5338 235.095 51.2861 235.095 51.0384C235.095 50.7907 234.852 50.543 234.609 50.543H229.986V47.3228H235.217C235.46 47.3228 235.703 47.0751 235.703 46.8273C235.703 46.5796 235.46 46.3319 235.217 46.3319H229.438ZM207.835 46.8273C207.835 46.5796 208.078 46.3319 208.322 46.3319H214.1C214.343 46.3319 214.587 46.5796 214.587 46.8273C214.587 47.0751 214.343 47.3228 214.1 47.3228H208.869V50.543H213.492C213.735 50.543 213.978 50.7907 213.978 51.0384C213.978 51.2861 213.735 51.5338 213.492 51.5338H208.869V54.8779H214.161C214.404 54.8779 214.647 55.1256 214.647 55.3733C214.647 55.621 214.404 55.8687 214.161 55.8687H208.322C208.078 55.8687 207.835 55.621 207.835 55.3733V46.8273ZM238.719 47.3662H241.334V55.3548C241.334 55.6644 241.577 55.9121 241.882 55.9121C242.186 55.9121 242.429 55.6644 242.429 55.3548V47.3662H245.105C245.349 47.3662 245.592 47.1185 245.592 46.8708C245.592 46.6231 245.349 46.3753 245.105 46.3753H238.719C238.475 46.3753 238.232 46.6231 238.232 46.8708C238.232 47.1185 238.475 47.3662 238.719 47.3662ZM35.8909 47.3662H33.2754C33.0321 47.3662 32.7888 47.1185 32.7888 46.8708C32.7888 46.6231 33.0321 46.3753 33.2754 46.3753H39.662C39.9053 46.3753 40.1487 46.6231 40.1487 46.8708C40.1487 47.1185 39.9053 47.3662 39.662 47.3662H36.9858V55.3548C36.9858 55.6644 36.7425 55.9121 36.4383 55.9121C36.1342 55.9121 35.8909 55.6644 35.8909 55.3548V47.3662ZM260.476 46.3563C260.172 46.3563 259.928 46.604 259.928 46.9137H259.868V55.3358C259.868 55.6454 260.111 55.8931 260.415 55.8931C260.719 55.8931 260.962 55.6454 260.962 55.3358V53.3541L262.97 51.3105L266.376 55.7073C266.497 55.8312 266.619 55.8931 266.802 55.8931C267.045 55.8931 267.227 55.7693 267.288 55.5835C267.349 55.3977 267.349 55.2119 267.227 55.0261L263.7 50.5674L266.862 47.2233C267.045 47.0375 267.045 46.8517 266.984 46.666C266.923 46.4802 266.741 46.3563 266.558 46.3563C266.437 46.3563 266.315 46.4183 266.193 46.5421L261.023 52.0536V46.9137C261.023 46.604 260.78 46.3563 260.476 46.3563ZM270.56 46.9131C270.56 46.6035 270.803 46.3558 271.107 46.3558C271.411 46.3558 271.655 46.6035 271.655 46.9131V54.2205L277.007 46.6035C277.129 46.4177 277.311 46.3558 277.555 46.3558C277.919 46.3558 278.224 46.6654 278.224 47.037V55.3352C278.224 55.6449 277.98 55.8306 277.737 55.8306C277.433 55.8306 277.19 55.5829 277.19 55.2733V47.9659L271.837 55.521C271.715 55.7068 271.533 55.8306 271.29 55.8306C270.925 55.8306 270.621 55.521 270.621 55.1494V46.9131H270.56ZM249.181 46.3558C248.876 46.3558 248.633 46.6035 248.633 46.9131H248.694V55.1494C248.694 55.521 248.998 55.8306 249.363 55.8306C249.606 55.8306 249.789 55.7068 249.911 55.521L255.263 47.9659V55.2733C255.263 55.5829 255.506 55.8306 255.811 55.8306C256.054 55.8306 256.297 55.6449 256.297 55.3352V47.037C256.297 46.6654 255.993 46.3558 255.628 46.3558C255.385 46.3558 255.202 46.4177 255.081 46.6035L249.728 54.2205V46.9131C249.728 46.6035 249.485 46.3558 249.181 46.3558ZM182.579 46.9131C182.579 46.6035 182.822 46.3558 183.126 46.3558C183.43 46.3558 183.674 46.6035 183.674 46.9131V54.2205L189.026 46.6035C189.148 46.4177 189.33 46.3558 189.574 46.3558C189.939 46.3558 190.243 46.6654 190.243 47.037V55.3352C190.243 55.6449 190 55.8306 189.756 55.8306C189.452 55.8306 189.209 55.5829 189.209 55.2733V47.9659L183.856 55.521C183.735 55.7068 183.552 55.8306 183.309 55.8306C182.944 55.8306 182.64 55.521 182.64 55.1494V46.9131H182.579ZM166.753 46.3558C166.449 46.3558 166.206 46.6035 166.206 46.9131H166.267V55.1494C166.267 55.521 166.571 55.8306 166.936 55.8306C167.179 55.8306 167.361 55.7068 167.483 55.521L172.836 47.9659V55.2733C172.836 55.5829 173.079 55.8306 173.383 55.8306C173.626 55.8306 173.87 55.6449 173.87 55.3352V47.037C173.87 46.6654 173.566 46.3558 173.201 46.3558C172.957 46.3558 172.775 46.4177 172.653 46.6035L167.301 54.2205V46.9131C167.301 46.6035 167.057 46.3558 166.753 46.3558ZM154.91 46.9131C154.91 46.6035 155.153 46.3558 155.457 46.3558C155.762 46.3558 156.005 46.6035 156.005 46.9131V54.2205L161.357 46.6035C161.479 46.4177 161.662 46.3558 161.905 46.3558C162.27 46.3558 162.574 46.6654 162.574 47.037V55.3352C162.574 55.6449 162.331 55.8306 162.087 55.8306C161.783 55.8306 161.54 55.5829 161.54 55.2733V47.9659L156.187 55.521C156.066 55.7068 155.883 55.8306 155.64 55.8306C155.275 55.8306 154.971 55.521 154.971 55.1494V46.9131H154.91ZM133.584 46.3563C133.28 46.3563 133.037 46.604 133.037 46.9137H132.915V55.3358C132.915 55.6454 133.159 55.8931 133.463 55.8931C133.767 55.8931 134.01 55.6454 134.01 55.3358V53.3541L136.017 51.3105L139.423 55.7073C139.545 55.8312 139.667 55.8931 139.849 55.8931C140.093 55.8931 140.275 55.7693 140.336 55.5835C140.397 55.3977 140.397 55.2119 140.275 55.0261L136.747 50.5674L139.971 47.2233C140.153 47.0375 140.153 46.8517 140.093 46.666C140.032 46.4802 139.849 46.3563 139.667 46.3563C139.545 46.3563 139.423 46.4183 139.302 46.5421L134.132 52.0536V46.9137C134.132 46.604 133.888 46.3563 133.584 46.3563ZM12.3187 46.9131C12.3187 46.6035 12.562 46.3558 12.8662 46.3558H18.5837C18.827 46.3558 19.0703 46.6035 19.0703 46.8512C19.0703 47.0989 18.827 47.3466 18.5837 47.3466H13.3528V50.5668H17.9754C18.2187 50.5668 18.462 50.8145 18.462 51.0623C18.462 51.3099 18.2187 51.5577 17.9754 51.5577H13.3528V54.9017H18.6445C18.8878 54.9017 19.1311 55.1494 19.1311 55.3972C19.1311 55.6449 18.8878 55.8926 18.6445 55.8926H12.8662C12.562 55.8926 12.3187 55.6449 12.3187 55.3352V46.9131ZM1.61845 55.8581H8.67413H8.73493V57.4063C8.73493 57.7159 8.97824 57.9636 9.28236 57.9636C9.52568 57.9636 9.76896 57.7778 9.76896 57.4682V55.4246C9.76896 55.115 9.52568 54.8673 9.22153 54.8673H8.55247V46.8786C8.55247 46.569 8.30915 46.3213 8.00504 46.3213C7.70092 46.3213 7.45763 46.569 7.45763 46.8786V54.8673H2.16585V46.8786C2.16585 46.569 1.92256 46.3213 1.61845 46.3213C1.3143 46.3213 1.07101 46.569 1.07101 46.8786V55.3007C1.07101 55.6104 1.3143 55.8581 1.61845 55.8581Z" />
	</symbol>
	<symbol xmlns="http://www.w3.org/2000/svg" viewBox="0 0 250 27" id="logo-name-zero">
		<path fill-rule="evenodd" clip-rule="evenodd" d="M84.1913 0.0540041C83.5396 0.0540041 82.9422 0.485995 82.6707 1.134L74.0358 22.842L65.5094 1.08C65.2922 0.432005 64.6948 0 63.9888 0C63.0656 0 62.4139 0.701998 62.4139 1.56599C62.4139 1.674 62.4621 1.83002 62.5104 1.98603C62.5346 2.06402 62.5587 2.14201 62.5768 2.214L71.8091 25.434C72.1893 26.298 72.841 27 73.9814 27C75.1762 27 75.8822 26.298 76.2081 25.434L85.6033 2.214C85.712 1.998 85.7663 1.782 85.7663 1.56599C85.7663 0.647993 85.0603 0.0540041 84.1913 0.0540041ZM44.9991 2.92723C39.0795 2.92723 34.5177 7.73323 34.5177 13.5652C34.5177 19.3972 39.0795 24.1492 44.9991 24.1492C50.9186 24.1492 55.5348 19.3432 55.5348 13.5652C55.5348 7.73323 50.9186 2.92723 44.9991 2.92723ZM44.9991 26.9572C37.4503 26.9572 31.2049 21.1252 31.2049 13.5112C31.2049 5.89723 37.4503 0.0112288 44.9991 0.0112288C52.5479 0.0112288 58.7933 5.89723 58.7933 13.5112C58.7933 21.1792 52.5479 26.9572 44.9991 26.9572ZM23.7869 25.2974C23.7869 26.2154 23.0265 26.9714 21.9947 26.9714C21.3973 26.9714 20.8542 26.6474 20.4741 26.1074L3.96447 5.4254V25.5674C3.96447 26.3234 3.31278 26.9714 2.44384 26.9714C1.57494 26.9714 0.977532 26.3774 0.977532 25.5674V3.53539C0.977532 1.96938 0.597376 1.2134 0 0.889386C0.380156 0.457395 1.03184 0.02539 1.95509 0.02539C3.09556 0.02539 4.01878 0.565389 5.75662 2.77939C5.97387 3.0494 20.7999 21.5714 20.7999 21.5714V1.48339C20.7999 0.727387 21.4516 0.0793941 22.3205 0.0793941C23.1352 0.0793941 23.7869 0.727387 23.7869 1.48339V25.2974ZM93.3464 17.6295H104.262L98.8315 4.02154L93.3464 17.6295ZM105.077 20.1135H92.5861L90.2509 25.8375C89.9793 26.5395 89.5449 26.9715 88.7303 26.9715C87.807 26.9715 87.264 26.3235 87.264 25.5675C87.264 25.3515 87.3726 25.0275 87.4812 24.7575L96.7135 1.59154C97.0937 0.72754 97.6368 0.0255428 98.8315 0.0255428C100.135 0.0255428 100.624 0.72754 101.004 1.59154L110.236 24.7035C110.345 24.9195 110.453 25.2975 110.453 25.5135C110.453 26.3775 109.802 26.9175 108.933 26.9175C108.172 26.9175 107.629 26.5395 107.412 25.7835L105.077 20.1135ZM141.889 4.25004C142.342 4.49594 142.671 4.67415 142.972 4.67415C143.787 4.67415 144.384 4.13415 144.384 3.27014C144.384 2.40614 143.678 1.81214 142.538 1.32614C140.908 0.570142 138.845 0.0301428 136.075 0.0301428C128.635 0.0301428 122.281 6.07814 122.281 13.4761C122.281 21.6841 128.472 26.9761 136.075 26.9761C138.845 26.9761 141.017 26.3821 142.7 25.6261C143.787 25.0861 144.601 24.5461 144.601 23.6821C144.601 22.8721 143.95 22.2781 143.189 22.2781C142.853 22.2781 142.501 22.4655 142.008 22.7286C141.547 22.9747 140.962 23.287 140.148 23.5741C139.116 23.8981 137.813 24.2221 136.021 24.2221C130.318 24.2221 125.485 19.8481 125.485 13.4761C125.485 7.64415 130.318 2.83815 136.021 2.83815C137.813 2.83815 139.062 3.10814 140.094 3.43214C140.875 3.70007 141.443 4.00788 141.889 4.25004ZM150.653 1.55143C150.653 0.741424 151.304 0.039426 152.173 0.039426C153.042 0.039426 153.748 0.741424 153.748 1.55143V23.8534H166.348C167.108 23.8534 167.651 24.4474 167.651 25.2574C167.651 26.0134 167.054 26.6074 166.348 26.6074H152.228C151.359 26.6074 150.707 25.9054 150.707 25.0954V1.55143H150.653ZM175.165 0.039426C174.35 0.039426 173.644 0.741424 173.644 1.55143V25.4734C173.644 26.2834 174.296 26.9854 175.165 26.9854C176.034 26.9854 176.74 26.2834 176.74 25.4734V1.55143C176.74 0.741424 176.034 0.039426 175.165 0.039426ZM208.38 25.2974C208.38 26.2154 207.62 26.9714 206.588 26.9714C205.991 26.9714 205.448 26.6474 205.068 26.1074L188.504 5.4254V25.5674C188.504 26.3234 187.852 26.9714 186.983 26.9714C186.114 26.9714 185.517 26.3774 185.517 25.5674V1.69939C185.517 0.835396 186.277 0.02539 187.255 0.02539C187.852 0.02539 188.395 0.349387 188.775 0.889386L205.339 21.5714V1.48339C205.339 0.727387 205.991 0.0793941 206.86 0.0793941C207.674 0.0793941 208.326 0.727387 208.326 1.48339V25.2974H208.38ZM218.734 0.039426C217.92 0.039426 217.214 0.741424 217.214 1.55143V25.4734C217.214 26.2834 217.865 26.9854 218.734 26.9854C219.603 26.9854 220.309 26.2834 220.309 25.4734V1.55143C220.309 0.741424 219.603 0.039426 218.734 0.039426ZM248.371 4.67415C248.07 4.67415 247.741 4.49594 247.288 4.25004C246.841 4.00788 246.274 3.70007 245.492 3.43214C244.461 3.10814 243.212 2.83815 241.419 2.83815C235.717 2.83815 230.884 7.64415 230.884 13.4761C230.884 19.8481 235.717 24.2221 241.419 24.2221C243.212 24.2221 244.515 23.8981 245.547 23.5741C246.36 23.287 246.946 22.9747 247.407 22.7286C247.9 22.4656 248.251 22.2781 248.588 22.2781C249.348 22.2781 250 22.8721 250 23.6821C250 24.5461 249.185 25.0861 248.099 25.6261C246.416 26.3821 244.243 26.9761 241.474 26.9761C233.871 26.9761 227.679 21.6841 227.679 13.4761C227.679 6.07814 234.033 0.0301428 241.474 0.0301428C244.243 0.0301428 246.307 0.570142 247.936 1.32614C249.077 1.81214 249.783 2.40614 249.783 3.27014C249.783 4.13415 249.185 4.67415 248.371 4.67415Z" />
	</symbol>
	<symbol xmlns="http://www.w3.org/2000/svg" viewBox="0 0 18 23" id="icon-pin">
		<path fill-rule="evenodd" clip-rule="evenodd" d="M9 22.3276L9.65773 21.7532C15.1887 16.9237 18 12.7068 18 9C18 3.75067 13.9029 0 9 0C4.09705 0 0 3.75067 0 9C0 12.7068 2.81131 16.9237 8.34227 21.7532L9 22.3276ZM9 19.6634C4.30661 15.4335 2 11.8492 2 9C2 4.89661 5.16411 2 9 2C12.8359 2 16 4.89661 16 9C16 11.8492 13.6934 15.4335 9 19.6634ZM9 4C11.7614 4 14 6.23859 14 9C14 11.7614 11.7614 14 9 14C6.23858 14 4 11.7614 4 9C4 6.23859 6.23858 4 9 4ZM6 9C6 7.34314 7.34315 6 9 6C10.6569 6 12 7.34314 12 9C12 10.6569 10.6569 12 9 12C7.34315 12 6 10.6569 6 9Z" fill="#5CC0E5"/>
	</symbol>
	<symbol xmlns="http://www.w3.org/2000/svg" viewBox="0 0 30 30" id="icon-close">
		<path fill-rule="evenodd" clip-rule="evenodd" d="M16.4142 15L22.7782 21.3639L21.364 22.7782L15 16.4142L8.63604 22.7782L7.22183 21.3639L13.5858 15L7.22183 8.63602L8.63604 7.22181L15 13.5858L21.364 7.22181L22.7782 8.63602L16.4142 15Z" />
	</symbol>
</svg>