<svg width="866" height="822" viewBox="0 0 866 822" fill="none" xmlns="http://www.w3.org/2000/svg">
<g opacity="0.2">
<path d="M458.713 622.302C477.764 597.578 513.962 570.319 554.606 559.542C586.358 649.561 658.754 707.883 771.158 721.83C720.354 759.232 673.995 783.322 633.352 796.634C447.917 857.492 392.667 707.883 458.713 622.302Z" fill="#FEB6CE"/>
<path d="M329.592 240.005C303.555 266.631 137.171 497.384 180.99 665.377C55.8846 449.838 159.398 239.371 -8.97204e-06 189.29C88.2722 89.1283 215.283 106.245 329.592 240.005Z" fill="#FEB6CE"/>
<path d="M282.902 267.794C416.263 174.605 681.714 139.105 821.426 0.272461C888.106 182.846 867.149 292.517 794.119 377.465C725.533 455.439 616.304 494.109 554.704 559.405C517.236 582.86 485.483 605.682 466.432 630.406C391.496 727.398 466.432 851.016 633.45 796.497C422.613 865.596 247.974 781.916 180.658 665.272C91.7512 511.225 171.133 346.402 282.902 267.794Z" fill="#FFDEE9"/>
<path d="M799.399 382.898C731.448 461.506 631.11 511.587 554.904 559.766C446.945 255.477 904.182 232.655 821.625 0C893.386 182.574 872.43 298.584 799.399 382.898Z" fill="#FEB6CE"/>
</g>
</svg>
