<svg width="850" height="807" viewBox="0 0 850 807" fill="none" xmlns="http://www.w3.org/2000/svg">
<g opacity="0.1">
<path d="M399.623 610.591C380.93 586.333 345.413 559.586 305.535 549.012C274.379 637.337 203.346 694.562 93.0569 708.246C142.905 744.945 188.391 768.581 228.27 781.643C410.216 841.356 464.425 694.562 399.623 610.591Z" fill="#58C0E7"/>
<path d="M526.314 235.489C551.861 261.613 715.114 488.024 672.12 652.856C794.871 441.373 693.305 234.867 849.703 185.729C763.092 87.4514 638.472 104.246 526.314 235.489Z" fill="#58C0E7"/>
<path d="M572.126 262.755C441.274 171.32 180.818 136.487 43.7355 0.267578C-21.6901 179.406 -1.12778 287.013 70.5289 370.362C137.824 446.869 244.997 484.811 305.438 548.878C342.201 571.892 373.356 594.284 392.049 618.543C465.575 713.71 392.049 835.001 228.174 781.509C435.043 849.307 606.396 767.202 672.445 652.753C759.679 501.605 681.791 339.883 572.126 262.755Z" fill="#8BCFED"/>
<path d="M65.3481 375.692C132.02 452.821 230.47 501.96 305.242 549.232C411.169 250.669 -37.4636 228.277 43.5396 0C-26.8709 179.138 -6.30854 292.965 65.3481 375.692Z" fill="#58C0E7"/>
</g>
</svg>
