<svg width="20" height="20" viewBox="0 0 20 20" fill="none" xmlns="http://www.w3.org/2000/svg">
<path fill-rule="evenodd" clip-rule="evenodd" d="M0.833313 9.99998C0.833313 15.0626 4.93737 19.1666 9.99998 19.1666C15.0626 19.1666 19.1666 15.0626 19.1666 9.99998C19.1666 4.93737 15.0626 0.833313 9.99998 0.833313C4.93737 0.833313 0.833313 4.93737 0.833313 9.99998ZM17.5 9.99998C17.5 14.1421 14.1421 17.5 9.99998 17.5C5.85784 17.5 2.49998 14.1421 2.49998 9.99998C2.49998 5.85784 5.85784 2.49998 9.99998 2.49998C14.1421 2.49998 17.5 5.85784 17.5 9.99998ZM10.0003 14.1653C10.4606 14.1653 10.8339 13.7922 10.8339 13.3319C10.8339 12.8717 10.4606 12.4986 10.0003 12.4986C9.53987 12.4986 9.16665 12.8717 9.16665 13.3319C9.16665 13.7922 9.53987 14.1653 10.0003 14.1653ZM9.16665 11.6666H10.8333C10.8333 11.0014 10.9378 10.8794 11.6227 10.537C12.8128 9.94192 13.3333 9.33469 13.3333 7.91665C13.3333 6.1005 11.9036 4.99998 9.99998 4.99998C8.15903 4.99998 6.66665 6.49236 6.66665 8.33331H8.33331C8.33331 7.41284 9.0795 6.66665 9.99998 6.66665C11.0643 6.66665 11.6666 7.13032 11.6666 7.91665C11.6666 8.58194 11.5621 8.70388 10.8773 9.04629C9.68713 9.64138 9.16665 10.2486 9.16665 11.6666Z" fill="#FA9ABA"/>
</svg>
