<svg width="23" height="23" fill="none" xmlns="http://www.w3.org/2000/svg"><path fill-rule="evenodd" clip-rule="evenodd" d="M19.649 3.342A11.405 11.405 0 0011.549 0C5.235 0 .098 5.113.095 11.396c0 2.009.526 3.97 1.529 5.698L0 23l6.07-1.585a11.483 11.483 0 005.473 1.387h.005c6.312 0 11.45-5.113 11.452-11.397a11.3 11.3 0 00-3.351-8.063zm-8.1 17.536h-.005a9.542 9.542 0 01-4.844-1.32l-.348-.206-3.602.94.961-3.495-.226-.359a9.416 9.416 0 01-1.455-5.041c.002-5.223 4.272-9.472 9.522-9.472 2.542 0 4.932.987 6.73 2.778a9.394 9.394 0 012.785 6.702c-.003 5.223-4.273 9.473-9.519 9.473zm5.22-7.095c-.286-.143-1.693-.832-1.955-.927-.262-.095-.453-.142-.644.143-.19.285-.739.926-.906 1.116-.167.19-.334.214-.62.072-.286-.143-1.208-.444-2.301-1.414-.85-.755-1.425-1.687-1.592-1.972-.167-.286-.001-.425.126-.582.31-.382.62-.784.715-.974.095-.19.048-.356-.024-.499-.071-.142-.644-1.544-.882-2.114-.233-.555-.468-.48-.644-.489-.167-.008-.358-.01-.548-.01-.191 0-.501.071-.764.357-.262.285-1 .973-1 2.375 0 1.402 1.024 2.756 1.167 2.946.144.19 2.018 3.067 4.889 4.3a16.28 16.28 0 001.63.6c.686.217 1.31.186 1.803.113.55-.082 1.693-.69 1.932-1.354.238-.666.238-1.236.166-1.355-.07-.118-.262-.19-.548-.332z" fill="#000"/></svg>