<svg width="18" height="22" fill="none" xmlns="http://www.w3.org/2000/svg"><path fill-rule="evenodd" clip-rule="evenodd" d="M8.942 21.858C2.98 19.202 0 16.553 0 13.91V3.974c0-.762.293-.94 1.103-1.43.245-.149.538-.326.884-.557C2.147 1.88 5.527 0 8.942 0c2.976 0 5.464.994 6.955 1.987.346.231.639.408.884.557.81.49 1.103.668 1.103 1.43.02.216.01 4.806.004 7.745a820.148 820.148 0 00-.004 2.19c0 2.65-2.98 5.3-8.942 7.949zm6.955-7.948l.002-1.238.004-1.94.003-1.681c.003-2.218.002-4.121 0-4.71l-.136-.085c-.321-.199-.74-.459-.975-.616-1.467-.977-3.607-1.653-5.853-1.653-2.148 0-4.94 1.045-5.853 1.653-.235.157-.654.417-.975.616l-.127.08v9.574c0 1.498 2.215 3.545 6.956 5.764 4.74-2.214 6.954-4.26 6.954-5.764zm-3.683-6.664L7.948 11.51 5.67 9.233l-1.405 1.405 3.683 3.683 5.67-5.67-1.404-1.405z" fill="#000"/></svg>