<svg width="33" height="38" fill="none" xmlns="http://www.w3.org/2000/svg"><path fill-rule="evenodd" clip-rule="evenodd" d="M16.446 38C6.082 33.383.901 28.777.901 24.182V6.909c0-1.326.508-1.634 1.917-2.487.426-.258.935-.566 1.537-.967C4.635 3.268 10.51 0 16.446 0c5.174 0 9.5 1.727 12.09 3.455.603.401 1.112.71 1.538.967 1.409.853 1.917 1.161 1.917 2.487.035.375.018 8.354.007 13.463-.004 1.743-.007 3.15-.007 3.81 0 4.606-5.181 9.212-15.545 13.818zm12.09-13.818l.004-2.151.007-3.374.005-2.922c.007-3.855.005-7.165.002-8.188l-.238-.147a76.405 76.405 0 01-1.695-1.071c-2.55-1.7-6.271-2.874-10.175-2.874-3.734 0-8.587 1.815-10.175 2.874-.409.273-1.137.724-1.695 1.07l-.22.138v16.645c0 2.605 3.85 6.164 12.092 10.021 8.24-3.848 12.089-7.406 12.089-10.021zm-6.402-11.585l-7.415 7.415-3.96-3.96-2.443 2.442 6.403 6.403 9.857-9.857-2.442-2.443z" fill="#C9E2EB"/></svg>