<svg width="250" height="27" fill="none" xmlns="http://www.w3.org/2000/svg"><path fill-rule="evenodd" clip-rule="evenodd" d="M84.191.054c-.651 0-1.249.432-1.52 1.08l-8.635 21.708L65.509 1.08A1.581 1.581 0 0063.99 0c-.923 0-1.575.702-1.575 1.566 0 .108.048.264.096.42.025.078.049.156.067.228l9.232 23.22c.38.864 1.032 1.566 2.172 1.566 1.195 0 1.901-.702 2.227-1.566l9.395-23.22a1.43 1.43 0 00.163-.648c0-.918-.706-1.512-1.575-1.512zM45 2.927c-5.92 0-10.481 4.806-10.481 10.638S39.08 24.15 44.999 24.15c5.92 0 10.536-4.806 10.536-10.584 0-5.832-4.616-10.638-10.536-10.638zm0 24.03c-7.549 0-13.794-5.832-13.794-13.446S37.45.011 44.999.011s13.794 5.886 13.794 13.5c0 7.668-6.245 13.446-13.794 13.446zm-21.212-1.66c0 .918-.76 1.674-1.792 1.674-.598 0-1.14-.324-1.52-.864L3.964 5.425v20.142c0 .756-.652 1.404-1.521 1.404-.87 0-1.466-.594-1.466-1.404V3.535C.978 1.97.598 1.213 0 .89A2.564 2.564 0 011.955.025c1.14 0 2.064.54 3.802 2.754L20.8 21.571V1.483c0-.756.652-1.404 1.52-1.404.815 0 1.467.648 1.467 1.404v23.814zm69.56-7.668h10.915l-5.43-13.607-5.486 13.607zm11.73 2.484h-12.49l-2.336 5.724c-.272.703-.706 1.134-1.52 1.134-.924 0-1.467-.648-1.467-1.404 0-.215.109-.54.217-.81l9.233-23.165c.38-.864.923-1.566 2.118-1.566 1.303 0 1.792.702 2.172 1.566l9.232 23.111c.109.216.217.595.217.81 0 .864-.651 1.404-1.52 1.404-.761 0-1.304-.378-1.521-1.134l-2.335-5.67zM141.889 4.25c.453.246.782.424 1.083.424.815 0 1.412-.54 1.412-1.404 0-.864-.706-1.458-1.846-1.944C140.908.57 138.845.03 136.075.03c-7.44 0-13.794 6.048-13.794 13.446 0 8.208 6.191 13.5 13.794 13.5 2.77 0 4.942-.594 6.625-1.35 1.087-.54 1.901-1.08 1.901-1.944 0-.81-.651-1.404-1.412-1.404-.336 0-.688.188-1.181.45-.461.247-1.046.559-1.86.846a13.157 13.157 0 01-4.127.648c-5.703 0-10.536-4.374-10.536-10.746 0-5.832 4.833-10.638 10.536-10.638 1.792 0 3.041.27 4.073.594.781.268 1.349.576 1.795.818zm8.764-2.699c0-.81.651-1.512 1.52-1.512s1.575.702 1.575 1.512v22.302h12.6c.76 0 1.303.594 1.303 1.404 0 .756-.597 1.35-1.303 1.35h-14.12a1.514 1.514 0 01-1.521-1.512V1.551h-.054zM175.165.04c-.815 0-1.521.702-1.521 1.512v23.922c0 .81.652 1.512 1.521 1.512.869 0 1.575-.702 1.575-1.512V1.551c0-.81-.706-1.512-1.575-1.512zm33.215 25.258c0 .918-.76 1.674-1.792 1.674-.597 0-1.14-.324-1.52-.864L188.504 5.425v20.142c0 .756-.652 1.404-1.521 1.404-.869 0-1.466-.594-1.466-1.404V1.7c0-.864.76-1.674 1.738-1.674.597 0 1.14.324 1.52.864l16.564 20.682V1.483c0-.756.652-1.404 1.521-1.404.814 0 1.466.648 1.466 1.404v23.814h.054zM218.734.04c-.814 0-1.52.702-1.52 1.512v23.922c0 .81.651 1.512 1.52 1.512s1.575-.702 1.575-1.512V1.551c0-.81-.706-1.512-1.575-1.512zm29.637 4.635c-.301 0-.63-.178-1.083-.424-.447-.242-1.014-.55-1.796-.818-1.031-.324-2.28-.594-4.073-.594-5.702 0-10.535 4.806-10.535 10.638 0 6.372 4.833 10.746 10.535 10.746a13.16 13.16 0 004.128-.648c.813-.287 1.399-.6 1.86-.845.493-.263.844-.45 1.181-.45.76 0 1.412.593 1.412 1.403 0 .864-.815 1.404-1.901 1.944-1.683.756-3.856 1.35-6.625 1.35-7.603 0-13.795-5.292-13.795-13.5 0-7.398 6.354-13.446 13.795-13.446 2.769 0 4.833.54 6.462 1.296 1.141.486 1.847 1.08 1.847 1.944 0 .864-.598 1.404-1.412 1.404z" fill="#fff"/></svg>