<svg width="1108" height="228" fill="none" xmlns="http://www.w3.org/2000/svg"><path d="M112.606 172.053c-5.268-6.836-15.275-14.372-26.512-17.352-8.78 24.888-28.795 41.013-59.873 44.869 14.047 10.341 26.864 17.001 38.1 20.682 51.27 16.826 66.545-24.538 48.285-48.199zm35.699-105.697c7.199 7.362 53.2 71.16 41.086 117.606 34.588-59.591 5.969-117.781 50.039-131.627-24.405-27.693-59.521-22.96-91.125 14.021z" fill="#58C0E7"/><path d="M161.214 74.04C124.342 48.274 50.951 38.46 12.324.074c-18.436 50.478-12.642 80.8 7.55 104.286 18.962 21.558 49.161 32.25 66.192 50.302 10.36 6.485 19.138 12.795 24.406 19.631 20.718 26.816 0 60.993-46.177 45.92 58.291 19.105 106.575-4.031 125.187-36.281 24.581-42.59 2.633-88.16-28.268-109.894z" fill="#8BCFED"/><path d="M18.414 105.863c18.787 21.733 46.528 35.58 67.597 48.9C115.86 70.633-10.556 64.324 12.27 0-7.57 50.478-1.777 82.552 18.415 105.863z" fill="#58C0E7"/><path fill-rule="evenodd" clip-rule="evenodd" d="M571.939 60.683c-2.107 0-4.039 1.402-4.917 3.506l-27.917 70.458-27.565-70.634c-.703-2.103-2.634-3.505-4.916-3.505-2.985 0-5.092 2.278-5.092 5.083 0 .35.156.857.312 1.363.078.253.156.506.215.74l29.848 75.366c1.229 2.804 3.336 5.083 7.023 5.083 3.863 0 6.145-2.279 7.199-5.083l30.375-75.366c.351-.701.526-1.402.526-2.103 0-2.98-2.282-4.908-5.091-4.908zM445.23 70.01c-19.138 0-33.887 15.599-33.887 34.528s14.749 34.353 33.887 34.353c19.138 0 34.062-15.599 34.062-34.353 0-18.93-14.924-34.528-34.062-34.528zm0 77.995c-24.406 0-44.597-18.929-44.597-43.642 0-24.713 20.191-43.818 44.597-43.818 24.405 0 44.596 19.105 44.596 43.818 0 24.888-20.191 43.642-44.596 43.642zm-68.58-5.387c0 2.979-2.458 5.433-5.794 5.433-1.931 0-3.687-1.052-4.916-2.804l-53.376-67.129v65.376c0 2.454-2.107 4.557-4.916 4.557s-4.741-1.928-4.741-4.557v-71.51c0-5.083-1.229-7.537-3.16-8.588 1.229-1.403 3.336-2.805 6.321-2.805 3.687 0 6.672 1.753 12.29 8.94.703.875 48.635 60.993 48.635 60.993v-65.2c0-2.454 2.107-4.557 4.917-4.557 2.633 0 4.74 2.103 4.74 4.557v77.294zm224.887-24.888h35.291l-17.557-44.168-17.734 44.168zm37.925 8.062h-40.383l-7.55 18.579c-.878 2.278-2.282 3.68-4.916 3.68-2.985 0-4.741-2.103-4.741-4.557 0-.701.352-1.752.703-2.629l29.848-75.19c1.229-2.805 2.985-5.083 6.848-5.083 4.213 0 5.794 2.278 7.023 5.083l29.848 75.015c.351.701.702 1.928.702 2.629 0 2.805-2.107 4.557-4.916 4.557-2.458 0-4.214-1.227-4.916-3.68l-7.55-18.404zm119.014-51.489c1.466.799 2.528 1.377 3.501 1.377 2.634 0 4.565-1.753 4.565-4.557 0-2.804-2.282-4.732-5.969-6.31-5.268-2.454-11.94-4.206-20.894-4.206-24.054 0-44.597 19.63-44.597 43.642 0 26.641 20.016 43.817 44.597 43.817 8.954 0 15.977-1.928 21.42-4.381 3.512-1.753 6.146-3.506 6.146-6.31 0-2.629-2.107-4.557-4.565-4.557-1.089 0-2.224.608-3.818 1.462-1.492.799-3.384 1.813-6.015 2.744-3.336 1.052-7.55 2.104-13.344 2.104-18.435 0-34.062-14.197-34.062-34.879 0-18.93 15.627-34.528 34.062-34.528 5.794 0 9.833.876 13.169 1.928 2.526.87 4.361 1.868 5.804 2.654zm28.333-8.759c0-2.629 2.107-4.907 4.916-4.907s5.092 2.278 5.092 4.907v72.387h40.734c2.458 0 4.214 1.928 4.214 4.557 0 2.454-1.932 4.382-4.214 4.382h-45.65c-2.81 0-4.917-2.279-4.917-4.908V65.543h-.175zm79.249-4.907c-2.634 0-4.917 2.278-4.917 4.907v77.645c0 2.629 2.107 4.907 4.917 4.907 2.809 0 5.091-2.278 5.091-4.907V65.543c0-2.629-2.282-4.907-5.091-4.907zm107.385 81.981c0 2.979-2.458 5.433-5.794 5.433-1.931 0-3.687-1.052-4.916-2.804l-53.551-67.129v65.376c0 2.454-2.107 4.557-4.917 4.557-2.809 0-4.74-1.928-4.74-4.557v-77.47c0-2.804 2.458-5.433 5.618-5.433 1.932 0 3.687 1.052 4.916 2.805l53.552 67.128v-65.2c0-2.454 2.107-4.557 4.916-4.557 2.634 0 4.741 2.103 4.741 4.557v77.294h.175zm33.477-81.981c-2.64 0-4.92 2.278-4.92 4.907v77.645c0 2.629 2.11 4.907 4.92 4.907s5.09-2.278 5.09-4.907V65.543c0-2.629-2.28-4.907-5.09-4.907zm95.81 15.043c-.97 0-2.03-.578-3.5-1.377-1.44-.786-3.28-1.785-5.8-2.654-3.34-1.052-7.38-1.928-13.17-1.928-18.44 0-34.06 15.599-34.06 34.528 0 20.682 15.62 34.879 34.06 34.879 5.79 0 10.01-1.052 13.34-2.104 2.63-.931 4.53-1.945 6.02-2.744 1.59-.854 2.73-1.462 3.81-1.462 2.46 0 4.57 1.928 4.57 4.557 0 2.804-2.63 4.557-6.15 6.31-5.44 2.453-12.46 4.381-21.42 4.381-24.58 0-44.59-17.176-44.59-43.817 0-24.012 20.54-43.642 44.59-43.642 8.96 0 15.63 1.752 20.9 4.206 3.69 1.578 5.97 3.506 5.97 6.31s-1.93 4.557-4.57 4.557zM497.846 191.707c-.878 0-1.58.701-1.58 1.577v23.837c0 .876.702 1.577 1.58 1.577h16.68c.702 0 1.405-.701 1.405-1.402s-.703-1.402-1.405-1.402h-15.275v-9.465h13.344c.702 0 1.404-.701 1.404-1.402s-.702-1.402-1.404-1.402h-13.344v-9.114h15.099c.703 0 1.405-.701 1.405-1.402s-.702-1.402-1.405-1.402h-16.504zm27.252 1.577c0-.876.702-1.577 1.58-1.577h18.084c.878 0 1.581.701 1.581 1.577v23.837c0 .876-.703 1.577-1.581 1.577-.877 0-1.58-.701-1.58-1.577v-22.61h-15.099v22.61c0 .876-.703 1.577-1.581 1.577s-1.58-.701-1.58-1.577v-23.837h.176zm48.863 7.055c0 3.505-2.985 5.959-7.375 5.959h-6.672v-11.743h6.848c4.389 0 7.199 1.928 7.199 5.784zm-15.451-8.588c-.878 0-1.58.701-1.58 1.577v23.662c0 .876.702 1.577 1.58 1.577.878 0 1.58-.701 1.58-1.577v-7.887h6.496c5.619 0 10.535-2.98 10.535-8.764 0-5.433-3.863-8.588-10.008-8.588h-8.603zm-81.166 14.547c4.39 0 7.375-2.454 7.375-5.959 0-3.856-2.81-5.784-7.199-5.784h-6.848v11.743h6.672zm-9.656-12.97c0-.876.702-1.577 1.58-1.577h8.603c6.145 0 10.008 3.155 10.008 8.588 0 5.784-4.916 8.764-10.535 8.764h-6.496v7.887c0 .876-.702 1.577-1.58 1.577-.878 0-1.58-.701-1.58-1.577v-23.662zm-26.398 7.011c0 3.505-2.985 5.959-7.375 5.959h-6.672v-11.743h6.848c4.389 0 7.199 1.928 7.199 5.784zm-15.451-8.588c-.878 0-1.581.701-1.581 1.577v23.662c0 .876.703 1.577 1.581 1.577s1.58-.701 1.58-1.577v-7.887h6.496c5.619 0 10.535-2.98 10.535-8.764 0-5.433-3.863-8.588-10.008-8.588h-8.603zm182.874 13.394c0-6.135-4.389-11.042-10.534-11.042-6.145 0-10.535 4.907-10.535 11.042 0 6.134 4.39 11.042 10.535 11.042 6.321 0 10.534-4.908 10.534-11.042zm-24.229 0c0-7.361 5.618-13.846 13.695-13.846 8.076 0 13.695 6.485 13.695 13.846s-5.619 13.846-13.695 13.846c-8.077 0-13.695-6.309-13.695-13.846zm54.065-10.629v21.383h-15.1c2.107-3.681 3.512-10.867 3.512-17.877v-3.506h11.588zm-19.665 21.208c-.878 0-1.58.701-1.58 1.577 0 0 0 5.784-.176 5.609 0 .876.703 1.577 1.581 1.577.877 0 1.58-.701 1.58-1.577v-4.382h21.947v4.557c0 .877.702 1.578 1.58 1.578.878 0 1.58-.701 1.58-1.578v-5.784c0-.876-.702-1.577-1.58-1.577h-1.931v-22.61c0-.876-.702-1.577-1.58-1.577h-14.573c-.878 0-1.581.701-1.581 1.577v3.155c0 8.763-1.404 15.424-4.038 19.455h-1.229zm34.104 2.558l-.527-.526v-.701l.175-.526c.352-.526.878-.876 1.581-.701.702.175 1.404.351 2.458.351 1.931 0 3.862-1.052 5.443-4.032l-10.535-18.228c-.351-.526-.351-1.051 0-1.577s.702-.701 1.229-.701c.527 0 1.053.35 1.229.701l9.481 16.826 8.077-16.651c.175-.526.702-.876 1.404-.876.527 0 1.054.175 1.229.701.352.35.352 1.051 0 1.402l-9.656 19.104c-2.107 4.382-5.092 6.135-8.252 6.135-1.054 0-2.283-.175-3.336-.701zm62.86.318h20.543v4.382c0 .877.702 1.578 1.58 1.578.702 0 1.404-.526 1.404-1.403v-5.783c0-.877-.702-1.578-1.58-1.578h-1.931v-22.61c0-.876-.703-1.577-1.58-1.577-.878 0-1.581.701-1.581 1.577v22.61h-15.275v-22.61c0-.876-.702-1.577-1.58-1.577-.878 0-1.58.701-1.58 1.577v23.837c0 .876.702 1.577 1.58 1.577zm158.198-25.559c0-.701.702-1.402 1.404-1.402h14.398c.702 0 1.404.701 1.404 1.402s-.702 1.402-1.404 1.402h-12.817v22.61c0 .876-.703 1.578-1.581 1.578-.877 0-1.58-.702-1.58-1.578v-24.012h.176zm56.053-1.334c-.878 0-1.58.701-1.58 1.577v23.837c0 .876.702 1.577 1.58 1.577.878 0 1.581-.701 1.581-1.577v-10.517h15.45v10.517c0 .876.703 1.577 1.581 1.577.877 0 1.58-.701 1.58-1.577v-23.837c0-.876-.703-1.577-1.58-1.577-.878 0-1.581.701-1.581 1.577v10.341h-15.45v-10.341c0-.876-.703-1.577-1.581-1.577zm-565.961 1.577c0-.876.703-1.577 1.581-1.577.877 0 1.58.701 1.58 1.577v10.341h15.275v-10.341c0-.876.702-1.577 1.58-1.577.878 0 1.58.701 1.58 1.577v23.837c0 .876-.702 1.577-1.58 1.577-.878 0-1.58-.701-1.58-1.577v-10.517h-15.451v10.517c0 .876-.702 1.577-1.58 1.577-.878 0-1.58-.701-1.58-1.577v-23.837h.175zm597.91-1.645c-.702 0-1.405.701-1.405 1.402v24.187c0 .701.703 1.403 1.405 1.403h16.856c.702 0 1.404-.702 1.404-1.403 0-.701-.702-1.402-1.404-1.402h-15.276v-9.464h13.344c.703 0 1.405-.701 1.405-1.402 0-.702-.702-1.403-1.405-1.403h-13.344v-9.114h15.1c.702 0 1.405-.701 1.405-1.402s-.703-1.402-1.405-1.402h-16.68zm-62.361 1.402c0-.701.703-1.402 1.405-1.402h16.68c.702 0 1.405.701 1.405 1.402s-.703 1.402-1.405 1.402h-15.1v9.114h13.344c.702 0 1.405.701 1.405 1.403 0 .701-.703 1.402-1.405 1.402h-13.344v9.464h15.275c.703 0 1.405.701 1.405 1.402s-.702 1.403-1.405 1.403h-16.855c-.702 0-1.405-.702-1.405-1.403v-24.187zm89.15 1.525h7.55v22.61c0 .876.702 1.577 1.58 1.577.878 0 1.58-.701 1.58-1.577v-22.61h7.723c.7 0 1.41-.701 1.41-1.402s-.71-1.402-1.41-1.402h-18.433c-.703 0-1.405.701-1.405 1.402s.702 1.402 1.405 1.402zm-585.487 0h-7.55c-.702 0-1.404-.701-1.404-1.402s.702-1.402 1.404-1.402h18.436c.703 0 1.405.701 1.405 1.402s-.702 1.402-1.405 1.402h-7.725v22.61c0 .876-.703 1.577-1.58 1.577a1.573 1.573 0 01-1.581-1.577v-22.61zm648.29-2.858c-.88 0-1.58.701-1.58 1.577h-.17v23.837c0 .877.7 1.578 1.58 1.578.87 0 1.58-.701 1.58-1.578v-5.608l5.79-5.784 9.83 12.444c.35.35.7.526 1.23.526.7 0 1.23-.351 1.41-.877.17-.526.17-1.051-.18-1.577l-10.18-12.62 9.13-9.464c.52-.526.52-1.052.35-1.578-.18-.525-.7-.876-1.23-.876-.35 0-.7.175-1.05.526l-14.93 15.599v-14.548c0-.876-.7-1.577-1.58-1.577zm29.11 1.576c0-.876.7-1.577 1.58-1.577.88 0 1.58.701 1.58 1.577v20.682l15.45-21.558c.35-.526.88-.701 1.58-.701 1.05 0 1.93.876 1.93 1.927v23.487c0 .876-.7 1.402-1.4 1.402a1.57 1.57 0 01-1.58-1.578v-20.681l-15.45 21.382c-.35.526-.88.877-1.58.877-1.06 0-1.93-.877-1.93-1.928v-23.311h-.18zm-61.71-1.577c-.88 0-1.58.701-1.58 1.577h.17v23.311c0 1.051.88 1.928 1.93 1.928.71 0 1.23-.351 1.58-.877l15.45-21.382v20.681c0 .877.71 1.578 1.58 1.578.71 0 1.41-.526 1.41-1.402v-23.487c0-1.051-.88-1.927-1.93-1.927-.7 0-1.23.175-1.58.701l-15.45 21.558v-20.682c0-.876-.71-1.577-1.58-1.577zm-192.257 1.577c0-.876.702-1.577 1.58-1.577.878 0 1.58.701 1.58 1.577v20.682l15.451-21.558c.351-.526.878-.701 1.58-.701 1.054 0 1.931.876 1.931 1.927v23.487c0 .876-.702 1.402-1.404 1.402-.878 0-1.58-.701-1.58-1.578v-20.681l-15.451 21.382c-.351.526-.878.877-1.58.877a1.947 1.947 0 01-1.932-1.928v-23.311h-.175zm-45.683-1.577c-.878 0-1.58.701-1.58 1.577h.175v23.311c0 1.051.878 1.928 1.932 1.928.702 0 1.229-.351 1.58-.877l15.451-21.382v20.681c0 .877.702 1.578 1.58 1.578.702 0 1.404-.526 1.404-1.402v-23.487a1.946 1.946 0 00-1.931-1.927c-.702 0-1.229.175-1.58.701l-15.451 21.558v-20.682c0-.876-.702-1.577-1.58-1.577zm-34.187 1.577c0-.876.702-1.577 1.58-1.577.878 0 1.58.701 1.58 1.577v20.682l15.451-21.558c.351-.526.878-.701 1.58-.701 1.054 0 1.932.876 1.932 1.927v23.487c0 .876-.703 1.402-1.405 1.402-.878 0-1.58-.701-1.58-1.578v-20.681L750.6 217.646c-.351.526-.878.877-1.58.877a1.947 1.947 0 01-1.932-1.928v-23.311h-.175zm-61.559-1.576c-.878 0-1.58.701-1.58 1.577h-.352v23.837c0 .877.703 1.578 1.581 1.578s1.58-.701 1.58-1.578v-5.608l5.794-5.784 9.832 12.444c.351.35.703.526 1.229.526.703 0 1.229-.351 1.405-.877.176-.526.176-1.051-.176-1.577l-10.183-12.62 9.305-9.464c.527-.526.527-1.052.352-1.578a1.322 1.322 0 00-1.229-.876c-.352 0-.703.175-1.054.526l-14.924 15.599v-14.548c0-.876-.702-1.577-1.58-1.577zm-350.048 1.576c0-.876.703-1.577 1.581-1.577h16.504c.702 0 1.405.701 1.405 1.402s-.703 1.402-1.405 1.402h-15.1v9.114h13.344c.703 0 1.405.701 1.405 1.402s-.702 1.402-1.405 1.402h-13.344v9.465h15.276c.702 0 1.404.701 1.404 1.402s-.702 1.402-1.404 1.402h-16.68a1.573 1.573 0 01-1.581-1.577v-23.837zM304.419 218.6h20.542v4.382c0 .877.703 1.578 1.581 1.578.702 0 1.404-.526 1.404-1.403v-5.783c0-.877-.702-1.578-1.58-1.578h-1.931v-22.61c0-.876-.703-1.577-1.581-1.577-.877 0-1.58.701-1.58 1.577v22.61h-15.275v-22.61c0-.876-.702-1.577-1.58-1.577-.878 0-1.58.701-1.58 1.577v23.837c0 .876.702 1.577 1.58 1.577z" fill="#424242"/></svg>