<svg width="280" height="58" fill="none" xmlns="http://www.w3.org/2000/svg"><path fill-rule="evenodd" clip-rule="evenodd" d="M94.294.062c-.73 0-1.399.495-1.703 1.238L82.92 26.195 73.37 1.24A1.775 1.775 0 0071.668 0c-1.034 0-1.764.805-1.764 1.796 0 .124.055.303.109.482.027.089.054.178.074.261l10.34 26.629c.426.99 1.156 1.796 2.433 1.796 1.338 0 2.13-.805 2.494-1.796L95.876 2.539a1.68 1.68 0 00.182-.743c0-1.053-.79-1.734-1.764-1.734zM50.4 3.357c-6.63 0-11.74 5.511-11.74 12.2 0 6.688 5.11 12.137 11.74 12.137s11.8-5.511 11.8-12.137c0-6.689-5.17-12.2-11.8-12.2zm0 27.558c-8.455 0-15.45-6.689-15.45-15.42C34.95 6.763 41.944.013 50.4.013c8.455 0 15.45 6.75 15.45 15.482 0 8.793-6.995 15.42-15.45 15.42zM26.641 29.01c0 1.053-.851 1.92-2.007 1.92-.669 0-1.277-.372-1.703-.991L4.441 6.222V29.32c0 .867-.73 1.61-1.704 1.61-.973 0-1.642-.681-1.642-1.61V4.054C1.095 2.258.669 1.392 0 1.02A2.844 2.844 0 012.19.03c1.277 0 2.31.617 4.257 3.156.244.31 16.849 21.551 16.849 21.551V1.701c0-.867.73-1.61 1.703-1.61.912 0 1.642.743 1.642 1.61v27.31zm77.907-8.793h12.226l-6.083-15.606-6.143 15.606zm13.138 2.848h-13.99l-2.615 6.565c-.304.805-.791 1.3-1.703 1.3-1.034 0-1.642-.743-1.642-1.61 0-.248.121-.62.243-.929l10.34-26.567c.426-.99 1.034-1.796 2.372-1.796 1.46 0 2.008.805 2.433 1.796l10.341 26.505c.121.248.243.681.243.929 0 .99-.73 1.61-1.703 1.61-.852 0-1.46-.433-1.703-1.3l-2.616-6.503zm41.23-18.192c.508.282.876.486 1.213.486.912 0 1.581-.619 1.581-1.61 0-.99-.791-1.672-2.068-2.23-1.825-.866-4.136-1.485-7.238-1.485-8.333 0-15.45 6.935-15.45 15.42 0 9.412 6.934 15.481 15.45 15.481 3.102 0 5.535-.68 7.421-1.548 1.216-.62 2.128-1.239 2.128-2.23 0-.928-.729-1.61-1.581-1.61-.377 0-.77.216-1.323.517-.516.282-1.172.64-2.083.97-1.156.371-2.616.743-4.623.743-6.387 0-11.8-5.016-11.8-12.323 0-6.689 5.413-12.2 11.8-12.2 2.007 0 3.406.31 4.562.681.875.307 1.511.66 2.011.938zm9.815-3.095c0-.929.73-1.734 1.703-1.734.973 0 1.764.805 1.764 1.734v25.576h14.111c.852 0 1.46.681 1.46 1.61 0 .867-.669 1.548-1.46 1.548h-15.814c-.973 0-1.703-.805-1.703-1.734v-27h-.061zM196.185.045c-.913 0-1.703.805-1.703 1.734v27.434c0 .929.73 1.734 1.703 1.734.973 0 1.764-.805 1.764-1.734V1.779c0-.929-.791-1.734-1.764-1.734zm37.201 28.966c0 1.053-.852 1.92-2.007 1.92-.669 0-1.278-.372-1.703-.991L211.124 6.222V29.32c0 .867-.73 1.61-1.703 1.61-.973 0-1.642-.681-1.642-1.61V1.949c0-.991.851-1.92 1.946-1.92.669 0 1.277.372 1.703.99l18.552 23.72V1.7c0-.867.73-1.61 1.703-1.61.912 0 1.642.743 1.642 1.61v27.31h.061zM244.982.045c-.912 0-1.703.805-1.703 1.734v27.434c0 .929.73 1.734 1.703 1.734.974 0 1.764-.805 1.764-1.734V1.779c0-.929-.79-1.734-1.764-1.734zm33.193 5.315c-.337 0-.705-.204-1.213-.486-.5-.278-1.135-.63-2.01-.938-1.156-.372-2.555-.681-4.562-.681-6.387 0-11.8 5.511-11.8 12.2 0 7.307 5.413 12.323 11.8 12.323 2.007 0 3.467-.372 4.622-.743.912-.33 1.567-.688 2.084-.97.552-.302.945-.516 1.323-.516.851 0 1.581.68 1.581 1.61 0 .99-.912 1.61-2.129 2.23-1.885.866-4.318 1.547-7.42 1.547-8.516 0-15.45-6.069-15.45-15.482 0-8.484 7.117-15.42 15.45-15.42 3.102 0 5.413.62 7.238 1.487 1.277.557 2.068 1.238 2.068 2.23 0 .99-.669 1.61-1.582 1.61zM68.627 46.356a.55.55 0 00-.548.557v8.422c0 .31.244.558.548.558h5.778c.243 0 .487-.248.487-.496s-.244-.495-.487-.495h-5.292v-3.344h4.623c.243 0 .487-.248.487-.496 0-.247-.244-.495-.487-.495h-4.623v-3.22h5.231c.244 0 .487-.248.487-.496s-.243-.495-.487-.495h-5.717zm9.44.557a.55.55 0 01.548-.557h6.265a.55.55 0 01.547.557v8.422a.55.55 0 01-.547.558.55.55 0 01-.548-.558v-7.988h-5.23v7.988a.55.55 0 01-.548.558.55.55 0 01-.547-.558v-8.422h.06zm16.928 2.493c0 1.238-1.034 2.105-2.555 2.105h-2.31v-4.149h2.37c1.52 0 2.494.681 2.494 2.044zm-5.353-3.035a.55.55 0 00-.547.558v8.36c0 .31.243.557.547.557a.55.55 0 00.548-.557v-2.787h2.25c1.947 0 3.65-1.053 3.65-3.096 0-1.92-1.339-3.035-3.467-3.035h-2.98zm-28.118 5.14c1.521 0 2.555-.867 2.555-2.105 0-1.362-.973-2.044-2.494-2.044h-2.372v4.15h2.311zM58.18 46.93a.55.55 0 01.547-.558h2.98c2.13 0 3.468 1.115 3.468 3.035 0 2.044-1.703 3.096-3.65 3.096h-2.25v2.787a.55.55 0 01-.548.557.55.55 0 01-.547-.557v-8.36zm-9.145 2.477c0 1.238-1.034 2.105-2.555 2.105h-2.31v-4.149h2.371c1.52 0 2.494.681 2.494 2.044zm-5.352-3.035a.55.55 0 00-.548.558v8.36c0 .31.243.557.547.557a.55.55 0 00.548-.557v-2.787h2.25c1.947 0 3.65-1.053 3.65-3.096 0-1.92-1.338-3.035-3.467-3.035h-2.98zm63.352 4.733c0-2.167-1.521-3.901-3.649-3.901-2.129 0-3.65 1.733-3.65 3.9 0 2.168 1.521 3.902 3.65 3.902 2.189 0 3.649-1.734 3.649-3.901zm-8.394 0c0-2.601 1.947-4.892 4.745-4.892 2.797 0 4.744 2.291 4.744 4.892 0 2.6-1.947 4.892-4.744 4.892-2.798 0-4.745-2.23-4.745-4.892zm18.73-3.755v7.555h-5.231c.73-1.3 1.216-3.84 1.216-6.317v-1.239h4.015zm-6.813 7.493a.55.55 0 00-.547.557s0 2.044-.061 1.982c0 .31.244.557.548.557a.55.55 0 00.547-.557v-1.548h7.603v1.61c0 .31.243.557.548.557a.55.55 0 00.547-.557V55.4a.55.55 0 00-.547-.557h-.669v-7.989a.55.55 0 00-.548-.557h-5.048a.55.55 0 00-.548.557v1.115c0 3.096-.486 5.45-1.399 6.874h-.426zm11.815.904l-.183-.186v-.248l.061-.186c.122-.186.304-.31.548-.247.243.062.486.123.851.123.669 0 1.338-.371 1.886-1.424l-3.65-6.44a.473.473 0 010-.558c.122-.185.243-.247.426-.247a.51.51 0 01.426.247l3.284 5.945 2.798-5.883c.061-.186.243-.31.487-.31.182 0 .365.063.426.248a.384.384 0 010 .496l-3.346 6.75c-.73 1.548-1.764 2.167-2.859 2.167-.365 0-.79-.062-1.155-.248zm21.776.112h7.117v1.548c0 .31.243.558.547.558a.484.484 0 00.487-.496v-2.043a.55.55 0 00-.548-.558h-.669V46.88a.55.55 0 00-.547-.558.55.55 0 00-.548.558v7.988h-5.291V46.88a.55.55 0 00-.548-.558.55.55 0 00-.547.558v8.42c0 .31.243.557.547.557zm54.804-9.03c0-.248.243-.496.487-.496h4.987c.244 0 .487.248.487.495 0 .248-.243.496-.487.496h-4.44v7.988a.55.55 0 01-.547.558.55.55 0 01-.548-.558v-8.484h.061zm19.419-.472a.55.55 0 00-.548.557v8.422c0 .31.243.558.548.558a.55.55 0 00.547-.558V51.62h5.353v3.715c0 .31.243.558.547.558a.55.55 0 00.547-.558v-8.422a.55.55 0 00-.547-.557.55.55 0 00-.547.557v3.654h-5.353v-3.654a.55.55 0 00-.547-.557zm-196.064.557a.55.55 0 01.547-.557.55.55 0 01.548.557v3.654h5.291v-3.654a.55.55 0 01.548-.557.55.55 0 01.547.557v8.422a.55.55 0 01-.547.558.55.55 0 01-.548-.558V51.62h-5.352v3.715a.55.55 0 01-.548.558.55.55 0 01-.547-.558v-8.422h.06zm207.131-.581c-.243 0-.486.248-.486.495v8.546c0 .248.243.496.486.496h5.84c.243 0 .486-.248.486-.496 0-.247-.243-.495-.486-.495h-5.292v-3.344h4.623c.243 0 .486-.248.486-.496 0-.247-.243-.495-.486-.495h-4.623v-3.22h5.231c.243 0 .486-.248.486-.496 0-.247-.243-.495-.486-.495h-5.779zm-21.603.495c0-.247.243-.495.487-.495h5.778c.243 0 .487.248.487.495 0 .248-.244.496-.487.496h-5.231v3.22h4.623c.243 0 .486.248.486.495 0 .248-.243.496-.486.496h-4.623v3.344h5.292c.243 0 .486.248.486.495 0 .248-.243.496-.486.496h-5.839c-.244 0-.487-.248-.487-.496v-8.546zm30.884.54h2.615v7.988c0 .31.243.557.548.557a.55.55 0 00.547-.557v-7.989h2.676c.244 0 .487-.248.487-.495 0-.248-.243-.496-.487-.496h-6.386c-.244 0-.487.248-.487.496 0 .247.243.495.487.495zm-202.828 0h-2.616c-.243 0-.486-.248-.486-.496s.243-.496.486-.496h6.387c.243 0 .487.248.487.496 0 .247-.244.495-.487.495h-2.676v7.989a.55.55 0 01-.548.557.55.55 0 01-.547-.557v-7.989zm224.585-1.01a.55.55 0 00-.548.557h-.06v8.422c0 .31.243.557.547.557a.55.55 0 00.547-.557v-1.982l2.008-2.044 3.406 4.397a.546.546 0 00.426.186c.243 0 .425-.124.486-.31a.61.61 0 00-.061-.557l-3.527-4.459 3.162-3.344c.183-.185.183-.371.122-.557a.458.458 0 00-.426-.31c-.121 0-.243.062-.365.186l-5.17 5.512v-5.14a.55.55 0 00-.547-.558zm10.084.556a.55.55 0 01.547-.557.55.55 0 01.548.557v7.308l5.352-7.617c.122-.186.304-.248.548-.248.364 0 .669.31.669.681v8.298c0 .31-.244.496-.487.496a.55.55 0 01-.547-.558v-7.307l-5.353 7.555a.636.636 0 01-.547.31.681.681 0 01-.669-.682v-8.236h-.061zm-21.379-.557a.55.55 0 00-.548.557h.061v8.236c0 .372.304.682.669.682a.638.638 0 00.548-.31l5.352-7.555v7.307c0 .31.243.558.548.558a.484.484 0 00.486-.496v-8.298a.681.681 0 00-.669-.681c-.243 0-.426.062-.547.247l-5.353 7.617v-7.307a.55.55 0 00-.547-.557zm-66.602.557a.55.55 0 01.547-.557.55.55 0 01.548.557v7.308l5.352-7.617c.122-.186.304-.248.548-.248.365 0 .669.31.669.681v8.298c0 .31-.243.496-.487.496a.55.55 0 01-.547-.558v-7.307l-5.353 7.555a.635.635 0 01-.547.31.681.681 0 01-.669-.682v-8.236h-.061zm-15.826-.557a.55.55 0 00-.547.557h.061v8.236c0 .372.304.682.669.682a.636.636 0 00.547-.31l5.353-7.555v7.307c0 .31.243.558.547.558a.484.484 0 00.487-.496v-8.298a.681.681 0 00-.669-.681c-.244 0-.426.062-.548.247l-5.352 7.617v-7.307a.55.55 0 00-.548-.557zm-11.843.557a.55.55 0 01.547-.557.55.55 0 01.548.557v7.308l5.352-7.617c.122-.186.305-.248.548-.248.365 0 .669.31.669.681v8.298c0 .31-.243.496-.487.496a.55.55 0 01-.547-.558v-7.307l-5.353 7.555a.635.635 0 01-.547.31.681.681 0 01-.669-.682v-8.236h-.061zm-21.326-.557a.55.55 0 00-.547.558h-.122v8.422c0 .31.244.557.548.557a.55.55 0 00.547-.557v-1.982l2.007-2.044 3.406 4.397a.55.55 0 00.426.186c.244 0 .426-.124.487-.31a.61.61 0 00-.061-.557l-3.528-4.459 3.224-3.344c.182-.185.182-.371.122-.557a.459.459 0 00-.426-.31c-.122 0-.244.062-.365.186l-5.17 5.512v-5.14a.55.55 0 00-.548-.558zm-121.265.557a.55.55 0 01.547-.557h5.718c.243 0 .486.247.486.495s-.243.496-.486.496h-5.231v3.22h4.622c.244 0 .487.248.487.495 0 .248-.243.496-.487.496h-4.622v3.344h5.292c.243 0 .486.247.486.495s-.243.496-.486.496h-5.779a.55.55 0 01-.547-.558v-8.422zm-10.7 8.945h7.113v1.548c0 .31.244.558.548.558a.484.484 0 00.487-.496v-2.043a.55.55 0 00-.547-.558h-.67V46.88a.55.55 0 00-.547-.558.55.55 0 00-.547.558v7.988H2.166V46.88a.55.55 0 00-.548-.558.55.55 0 00-.547.558v8.42c0 .31.243.557.547.557z" fill="#fff"/></svg>