<svg><symbol xmlns="http://www.w3.org/2000/svg" viewBox="0 0 23 23" id="icon-whatsapp"><path d="M19.649 3.342A11.405 11.405 0 0011.549 0C5.235 0 .098 5.113.095 11.396c0 2.009.526 3.97 1.529 5.698L0 23l6.07-1.585a11.483 11.483 0 005.473 1.387h.005c6.312 0 11.45-5.113 11.452-11.397a11.3 11.3 0 00-3.351-8.063zm-8.1 17.536h-.005a9.542 9.542 0 01-4.844-1.32l-.348-.206-3.602.94.961-3.495-.226-.359a9.416 9.416 0 01-1.455-5.041c.002-5.223 4.272-9.472 9.522-9.472 2.542 0 4.932.987 6.73 2.778a9.394 9.394 0 012.785 6.702c-.003 5.223-4.273 9.473-9.519 9.473zm5.22-7.095c-.286-.143-1.693-.832-1.955-.927-.262-.095-.453-.142-.644.143-.19.285-.739.926-.906 1.116-.167.19-.334.214-.62.072-.286-.143-1.208-.444-2.301-1.414-.85-.755-1.425-1.687-1.592-1.972-.167-.286-.001-.425.126-.582.31-.382.62-.784.715-.974.095-.19.048-.356-.024-.499-.071-.142-.644-1.544-.882-2.114-.233-.555-.468-.48-.644-.489-.167-.008-.358-.01-.548-.01-.191 0-.501.071-.764.357-.262.285-1 .973-1 2.375 0 1.402 1.024 2.756 1.167 2.946.144.19 2.018 3.067 4.889 4.3a16.28 16.28 0 001.63.6c.686.217 1.31.186 1.803.113.55-.082 1.693-.69 1.932-1.354.238-.666.238-1.236.166-1.355-.07-.118-.262-.19-.548-.332z"/></symbol><symbol xmlns="http://www.w3.org/2000/svg" viewBox="0 0 21 21" id="icon-anketa"><path d="M4 19.804L10.087 16H18a2 2 0 002-2V2a2 2 0 00-2-2H2a2 2 0 00-2 2v12a2 2 0 002 2h2v3.804zM9.513 14L6 16.196V14H2V2h16v12H9.513zM5 11V9h7v2H5zm0-6v2h9V5H5z"/></symbol><symbol xmlns="http://www.w3.org/2000/svg" viewBox="0 0 21 21" id="icon-telephone"><path d="M8.861 6.339c.518-.698.704-1.434.118-2.084C7.664 2.415 6.78 1.277 6.225.73 5.171-.312 3.436-.171 2.523.729c-.49.483-.657.649-1.16 1.16-2.806 2.808-1.095 8.742 3.453 13.295 4.548 4.552 10.482 6.264 13.293 3.45.465-.447.858-.841 1.169-1.169.895-.946 1.03-2.604-.006-3.682-.532-.552-1.617-1.394-3.534-2.765-.587-.525-1.284-.411-1.922.007-.307.202-.53.406-.953.828l-.766.767c-.1.1-1.471-.586-2.801-1.917C7.965 9.37 7.279 8 7.379 7.9l.767-.768a14.9 14.9 0 00.28-.285c.171-.18.313-.343.435-.508zm4.65 7.695l.766-.767c.232-.232.383-.375.505-.474 1.68 1.206 2.653 1.965 3.05 2.378.238.248.201.7-.006.919-.287.303-.66.676-1.117 1.118-1.818 1.819-6.608.437-10.479-3.438C2.358 9.894.977 5.104 2.781 3.298c.502-.51.66-.668 1.144-1.144.182-.179.675-.22.896-.001.427.422 1.22 1.436 2.385 3.06-.06.074-.136.159-.228.255-.067.07-.123.128-.246.25l-.766.767c-1.303 1.303-.193 3.52 1.916 5.632 2.107 2.11 4.326 3.22 5.629 1.917zM11.66.07a9.505 9.505 0 018.275 8.276l-1.975.33a7.503 7.503 0 00-6.63-6.63L11.66.07zM11 4.023a5.502 5.502 0 014.982 4.982L14 9.335a3.5 3.5 0 00-3.33-3.33L11 4.023z"/></symbol><symbol xmlns="http://www.w3.org/2000/svg" viewBox="0 0 18 23" id="icon-pin"><path fill-rule="evenodd" clip-rule="evenodd" d="M9 22.328l.658-.575C15.188 16.923 18 12.707 18 9c0-5.25-4.097-9-9-9S0 3.75 0 9c0 3.707 2.811 7.924 8.342 12.753l.658.575zm0-2.665C4.307 15.433 2 11.85 2 9c0-4.103 3.164-7 7-7s7 2.897 7 7c0 2.85-2.307 6.434-7 10.663zM9 4a5 5 0 110 10A5 5 0 019 4zM6 9a3 3 0 116 0 3 3 0 01-6 0z"/></symbol><symbol xmlns="http://www.w3.org/2000/svg" viewBox="0 0 31 8" id="icon-arrow"><path fill-rule="evenodd" clip-rule="evenodd" d="M27.172.464l3.182 3.182a.5.5 0 010 .708l-3.182 3.182a.5.5 0 11-.707-.708L28.793 4.5H0v-1h28.793l-2.328-2.328a.5.5 0 11.707-.708z"/></symbol><symbol xmlns="http://www.w3.org/2000/svg" viewBox="0 0 32 40" id="icon-document"><path fill-rule="evenodd" clip-rule="evenodd" d="M3.556.889H22.07l9.93 9.93v25.625A3.556 3.556 0 0128.444 40H3.556A3.556 3.556 0 010 36.444v-32A3.556 3.556 0 013.556.89zm14.222 3.555H3.556v32h24.888V15.111h-7.11a3.555 3.555 0 01-3.556-3.555V4.444zm3.555.737v6.375h6.375L21.333 5.18zM8.89 29.333v-3.555h10.667v3.555H8.889zm0-10.666v3.555h14.22v-3.555H8.89z"/></symbol><symbol xmlns="http://www.w3.org/2000/svg" viewBox="0 0 33 38" id="icon-shield"><path fill-rule="evenodd" clip-rule="evenodd" d="M16.446 38C6.082 33.383.901 28.777.901 24.182V6.909c0-1.326.508-1.634 1.917-2.487.426-.258.935-.566 1.537-.967C4.635 3.268 10.51 0 16.446 0c5.174 0 9.5 1.727 12.09 3.455.603.401 1.112.71 1.538.967 1.409.853 1.917 1.161 1.917 2.487.035.375.018 8.354.007 13.463-.004 1.743-.007 3.15-.007 3.81 0 4.606-5.181 9.212-15.545 13.818zm12.09-13.818l.004-2.151.007-3.374.005-2.922c.007-3.855.005-7.165.002-8.188l-.238-.147a76.405 76.405 0 01-1.695-1.071c-2.55-1.7-6.271-2.874-10.175-2.874-3.734 0-8.587 1.815-10.175 2.874-.409.273-1.137.724-1.695 1.07l-.22.138v16.645c0 2.605 3.85 6.164 12.092 10.021 8.24-3.848 12.089-7.406 12.089-10.021zm-6.402-11.585l-7.415 7.415-3.96-3.96-2.443 2.442 6.403 6.403 9.857-9.857-2.442-2.443z"/></symbol><symbol xmlns="http://www.w3.org/2000/svg" viewBox="0 0 43 40" id="icon-star"><path fill-rule="evenodd" clip-rule="evenodd" d="M11.238 25.74L8.793 40l12.806-6.733L34.404 40 31.96 25.74l10.36-10.098-14.317-2.08L21.599.586 15.196 13.56.878 15.64l10.36 10.1zm18.446 7.763l-8.085-4.251-8.086 4.25 1.544-9.003-6.54-6.376 9.039-1.313 4.043-8.192 4.042 8.192 9.04 1.313L28.14 24.5l1.544 9.004z"/></symbol><symbol xmlns="http://www.w3.org/2000/svg" viewBox="0 0 280 58" id="logo-zero"><path fill-rule="evenodd" clip-rule="evenodd" d="M94.294.062c-.73 0-1.399.495-1.703 1.238L82.92 26.195 73.37 1.24A1.775 1.775 0 0071.668 0c-1.034 0-1.764.805-1.764 1.796 0 .124.055.303.109.482.027.089.054.178.074.261l10.34 26.629c.426.99 1.156 1.796 2.433 1.796 1.338 0 2.13-.805 2.494-1.796L95.876 2.539a1.68 1.68 0 00.182-.743c0-1.053-.79-1.734-1.764-1.734zM50.4 3.357c-6.63 0-11.74 5.511-11.74 12.2 0 6.688 5.11 12.137 11.74 12.137s11.8-5.511 11.8-12.137c0-6.689-5.17-12.2-11.8-12.2zm0 27.558c-8.455 0-15.45-6.689-15.45-15.42C34.95 6.763 41.944.013 50.4.013c8.455 0 15.45 6.75 15.45 15.482 0 8.793-6.995 15.42-15.45 15.42zM26.641 29.01c0 1.053-.851 1.92-2.007 1.92-.669 0-1.277-.372-1.703-.991L4.441 6.222V29.32c0 .867-.73 1.61-1.704 1.61-.973 0-1.642-.681-1.642-1.61V4.054C1.095 2.258.669 1.392 0 1.02A2.844 2.844 0 012.19.03c1.277 0 2.31.617 4.257 3.156.244.31 16.849 21.551 16.849 21.551V1.701c0-.867.73-1.61 1.703-1.61.912 0 1.642.743 1.642 1.61v27.31zm77.907-8.793h12.226l-6.083-15.606-6.143 15.606zm13.138 2.848h-13.99l-2.615 6.565c-.304.805-.791 1.3-1.703 1.3-1.034 0-1.642-.743-1.642-1.61 0-.248.121-.62.243-.929l10.34-26.567c.426-.99 1.034-1.796 2.372-1.796 1.46 0 2.008.805 2.433 1.796l10.341 26.505c.121.248.243.681.243.929 0 .99-.73 1.61-1.703 1.61-.852 0-1.46-.433-1.703-1.3l-2.616-6.503zm41.23-18.192c.508.282.876.486 1.213.486.912 0 1.581-.619 1.581-1.61 0-.99-.791-1.672-2.068-2.23-1.825-.866-4.136-1.485-7.238-1.485-8.333 0-15.45 6.935-15.45 15.42 0 9.412 6.934 15.481 15.45 15.481 3.102 0 5.535-.68 7.421-1.548 1.216-.62 2.128-1.239 2.128-2.23 0-.928-.729-1.61-1.581-1.61-.377 0-.77.216-1.323.517-.516.282-1.172.64-2.083.97-1.156.371-2.616.743-4.623.743-6.387 0-11.8-5.016-11.8-12.323 0-6.689 5.413-12.2 11.8-12.2 2.007 0 3.406.31 4.562.681.875.307 1.511.66 2.011.938zm9.815-3.095c0-.929.73-1.734 1.703-1.734.973 0 1.764.805 1.764 1.734v25.576h14.111c.852 0 1.46.681 1.46 1.61 0 .867-.669 1.548-1.46 1.548h-15.814c-.973 0-1.703-.805-1.703-1.734v-27h-.061zM196.185.045c-.913 0-1.703.805-1.703 1.734v27.434c0 .929.73 1.734 1.703 1.734.973 0 1.764-.805 1.764-1.734V1.779c0-.929-.791-1.734-1.764-1.734zm37.201 28.966c0 1.053-.852 1.92-2.007 1.92-.669 0-1.278-.372-1.703-.991L211.124 6.222V29.32c0 .867-.73 1.61-1.703 1.61-.973 0-1.642-.681-1.642-1.61V1.949c0-.991.851-1.92 1.946-1.92.669 0 1.277.372 1.703.99l18.552 23.72V1.7c0-.867.73-1.61 1.703-1.61.912 0 1.642.743 1.642 1.61v27.31h.061zM244.982.045c-.912 0-1.703.805-1.703 1.734v27.434c0 .929.73 1.734 1.703 1.734.974 0 1.764-.805 1.764-1.734V1.779c0-.929-.79-1.734-1.764-1.734zm33.193 5.315c-.337 0-.705-.204-1.213-.486-.5-.278-1.135-.63-2.01-.938-1.156-.372-2.555-.681-4.562-.681-6.387 0-11.8 5.511-11.8 12.2 0 7.307 5.413 12.323 11.8 12.323 2.007 0 3.467-.372 4.622-.743.912-.33 1.567-.688 2.084-.97.552-.302.945-.516 1.323-.516.851 0 1.581.68 1.581 1.61 0 .99-.912 1.61-2.129 2.23-1.885.866-4.318 1.547-7.42 1.547-8.516 0-15.45-6.069-15.45-15.482 0-8.484 7.117-15.42 15.45-15.42 3.102 0 5.413.62 7.238 1.487 1.277.557 2.068 1.238 2.068 2.23 0 .99-.669 1.61-1.582 1.61zM68.627 46.356a.55.55 0 00-.548.557v8.422c0 .31.244.558.548.558h5.778c.243 0 .487-.248.487-.496s-.244-.495-.487-.495h-5.292v-3.344h4.623c.243 0 .487-.248.487-.496 0-.247-.244-.495-.487-.495h-4.623v-3.22h5.231c.244 0 .487-.248.487-.496s-.243-.495-.487-.495h-5.717zm9.44.557a.55.55 0 01.548-.557h6.265a.55.55 0 01.547.557v8.422a.55.55 0 01-.547.558.55.55 0 01-.548-.558v-7.988h-5.23v7.988a.55.55 0 01-.548.558.55.55 0 01-.547-.558v-8.422h.06zm16.928 2.493c0 1.238-1.034 2.105-2.555 2.105h-2.31v-4.149h2.37c1.52 0 2.494.681 2.494 2.044zm-5.353-3.035a.55.55 0 00-.547.558v8.36c0 .31.243.557.547.557a.55.55 0 00.548-.557v-2.787h2.25c1.947 0 3.65-1.053 3.65-3.096 0-1.92-1.339-3.035-3.467-3.035h-2.98zm-28.118 5.14c1.521 0 2.555-.867 2.555-2.105 0-1.362-.973-2.044-2.494-2.044h-2.372v4.15h2.311zM58.18 46.93a.55.55 0 01.547-.558h2.98c2.13 0 3.468 1.115 3.468 3.035 0 2.044-1.703 3.096-3.65 3.096h-2.25v2.787a.55.55 0 01-.548.557.55.55 0 01-.547-.557v-8.36zm-9.145 2.477c0 1.238-1.034 2.105-2.555 2.105h-2.31v-4.149h2.371c1.52 0 2.494.681 2.494 2.044zm-5.352-3.035a.55.55 0 00-.548.558v8.36c0 .31.243.557.547.557a.55.55 0 00.548-.557v-2.787h2.25c1.947 0 3.65-1.053 3.65-3.096 0-1.92-1.338-3.035-3.467-3.035h-2.98zm63.352 4.733c0-2.167-1.521-3.901-3.649-3.901-2.129 0-3.65 1.733-3.65 3.9 0 2.168 1.521 3.902 3.65 3.902 2.189 0 3.649-1.734 3.649-3.901zm-8.394 0c0-2.601 1.947-4.892 4.745-4.892 2.797 0 4.744 2.291 4.744 4.892 0 2.6-1.947 4.892-4.744 4.892-2.798 0-4.745-2.23-4.745-4.892zm18.73-3.755v7.555h-5.231c.73-1.3 1.216-3.84 1.216-6.317v-1.239h4.015zm-6.813 7.493a.55.55 0 00-.547.557s0 2.044-.061 1.982c0 .31.244.557.548.557a.55.55 0 00.547-.557v-1.548h7.603v1.61c0 .31.243.557.548.557a.55.55 0 00.547-.557V55.4a.55.55 0 00-.547-.557h-.669v-7.989a.55.55 0 00-.548-.557h-5.048a.55.55 0 00-.548.557v1.115c0 3.096-.486 5.45-1.399 6.874h-.426zm11.815.904l-.183-.186v-.248l.061-.186c.122-.186.304-.31.548-.247.243.062.486.123.851.123.669 0 1.338-.371 1.886-1.424l-3.65-6.44a.473.473 0 010-.558c.122-.185.243-.247.426-.247a.51.51 0 01.426.247l3.284 5.945 2.798-5.883c.061-.186.243-.31.487-.31.182 0 .365.063.426.248a.384.384 0 010 .496l-3.346 6.75c-.73 1.548-1.764 2.167-2.859 2.167-.365 0-.79-.062-1.155-.248zm21.776.112h7.117v1.548c0 .31.243.558.547.558a.484.484 0 00.487-.496v-2.043a.55.55 0 00-.548-.558h-.669V46.88a.55.55 0 00-.547-.558.55.55 0 00-.548.558v7.988h-5.291V46.88a.55.55 0 00-.548-.558.55.55 0 00-.547.558v8.42c0 .31.243.557.547.557zm54.804-9.03c0-.248.243-.496.487-.496h4.987c.244 0 .487.248.487.495 0 .248-.243.496-.487.496h-4.44v7.988a.55.55 0 01-.547.558.55.55 0 01-.548-.558v-8.484h.061zm19.419-.472a.55.55 0 00-.548.557v8.422c0 .31.243.558.548.558a.55.55 0 00.547-.558V51.62h5.353v3.715c0 .31.243.558.547.558a.55.55 0 00.547-.558v-8.422a.55.55 0 00-.547-.557.55.55 0 00-.547.557v3.654h-5.353v-3.654a.55.55 0 00-.547-.557zm-196.064.557a.55.55 0 01.547-.557.55.55 0 01.548.557v3.654h5.291v-3.654a.55.55 0 01.548-.557.55.55 0 01.547.557v8.422a.55.55 0 01-.547.558.55.55 0 01-.548-.558V51.62h-5.352v3.715a.55.55 0 01-.548.558.55.55 0 01-.547-.558v-8.422h.06zm207.131-.581c-.243 0-.486.248-.486.495v8.546c0 .248.243.496.486.496h5.84c.243 0 .486-.248.486-.496 0-.247-.243-.495-.486-.495h-5.292v-3.344h4.623c.243 0 .486-.248.486-.496 0-.247-.243-.495-.486-.495h-4.623v-3.22h5.231c.243 0 .486-.248.486-.496 0-.247-.243-.495-.486-.495h-5.779zm-21.603.495c0-.247.243-.495.487-.495h5.778c.243 0 .487.248.487.495 0 .248-.244.496-.487.496h-5.231v3.22h4.623c.243 0 .486.248.486.495 0 .248-.243.496-.486.496h-4.623v3.344h5.292c.243 0 .486.248.486.495 0 .248-.243.496-.486.496h-5.839c-.244 0-.487-.248-.487-.496v-8.546zm30.884.54h2.615v7.988c0 .31.243.557.548.557a.55.55 0 00.547-.557v-7.989h2.676c.244 0 .487-.248.487-.495 0-.248-.243-.496-.487-.496h-6.386c-.244 0-.487.248-.487.496 0 .247.243.495.487.495zm-202.828 0h-2.616c-.243 0-.486-.248-.486-.496s.243-.496.486-.496h6.387c.243 0 .487.248.487.496 0 .247-.244.495-.487.495h-2.676v7.989a.55.55 0 01-.548.557.55.55 0 01-.547-.557v-7.989zm224.585-1.01a.55.55 0 00-.548.557h-.06v8.422c0 .31.243.557.547.557a.55.55 0 00.547-.557v-1.982l2.008-2.044 3.406 4.397a.546.546 0 00.426.186c.243 0 .425-.124.486-.31a.61.61 0 00-.061-.557l-3.527-4.459 3.162-3.344c.183-.185.183-.371.122-.557a.458.458 0 00-.426-.31c-.121 0-.243.062-.365.186l-5.17 5.512v-5.14a.55.55 0 00-.547-.558zm10.084.556a.55.55 0 01.547-.557.55.55 0 01.548.557v7.308l5.352-7.617c.122-.186.304-.248.548-.248.364 0 .669.31.669.681v8.298c0 .31-.244.496-.487.496a.55.55 0 01-.547-.558v-7.307l-5.353 7.555a.636.636 0 01-.547.31.681.681 0 01-.669-.682v-8.236h-.061zm-21.379-.557a.55.55 0 00-.548.557h.061v8.236c0 .372.304.682.669.682a.638.638 0 00.548-.31l5.352-7.555v7.307c0 .31.243.558.548.558a.484.484 0 00.486-.496v-8.298a.681.681 0 00-.669-.681c-.243 0-.426.062-.547.247l-5.353 7.617v-7.307a.55.55 0 00-.547-.557zm-66.602.557a.55.55 0 01.547-.557.55.55 0 01.548.557v7.308l5.352-7.617c.122-.186.304-.248.548-.248.365 0 .669.31.669.681v8.298c0 .31-.243.496-.487.496a.55.55 0 01-.547-.558v-7.307l-5.353 7.555a.635.635 0 01-.547.31.681.681 0 01-.669-.682v-8.236h-.061zm-15.826-.557a.55.55 0 00-.547.557h.061v8.236c0 .372.304.682.669.682a.636.636 0 00.547-.31l5.353-7.555v7.307c0 .31.243.558.547.558a.484.484 0 00.487-.496v-8.298a.681.681 0 00-.669-.681c-.244 0-.426.062-.548.247l-5.352 7.617v-7.307a.55.55 0 00-.548-.557zm-11.843.557a.55.55 0 01.547-.557.55.55 0 01.548.557v7.308l5.352-7.617c.122-.186.305-.248.548-.248.365 0 .669.31.669.681v8.298c0 .31-.243.496-.487.496a.55.55 0 01-.547-.558v-7.307l-5.353 7.555a.635.635 0 01-.547.31.681.681 0 01-.669-.682v-8.236h-.061zm-21.326-.557a.55.55 0 00-.547.558h-.122v8.422c0 .31.244.557.548.557a.55.55 0 00.547-.557v-1.982l2.007-2.044 3.406 4.397a.55.55 0 00.426.186c.244 0 .426-.124.487-.31a.61.61 0 00-.061-.557l-3.528-4.459 3.224-3.344c.182-.185.182-.371.122-.557a.459.459 0 00-.426-.31c-.122 0-.244.062-.365.186l-5.17 5.512v-5.14a.55.55 0 00-.548-.558zm-121.265.557a.55.55 0 01.547-.557h5.718c.243 0 .486.247.486.495s-.243.496-.486.496h-5.231v3.22h4.622c.244 0 .487.248.487.495 0 .248-.243.496-.487.496h-4.622v3.344h5.292c.243 0 .486.247.486.495s-.243.496-.486.496h-5.779a.55.55 0 01-.547-.558v-8.422zm-10.7 8.945h7.113v1.548c0 .31.244.558.548.558a.484.484 0 00.487-.496v-2.043a.55.55 0 00-.547-.558h-.67V46.88a.55.55 0 00-.547-.558.55.55 0 00-.547.558v7.988H2.166V46.88a.55.55 0 00-.548-.558.55.55 0 00-.547.558v8.42c0 .31.243.557.547.557z"/></symbol><symbol xmlns="http://www.w3.org/2000/svg" viewBox="0 0 250 27" id="logo-name-zero"><path fill-rule="evenodd" clip-rule="evenodd" d="M84.191.054c-.651 0-1.249.432-1.52 1.08l-8.635 21.708L65.509 1.08A1.581 1.581 0 0063.99 0c-.923 0-1.575.702-1.575 1.566 0 .108.048.264.096.42.025.078.049.156.067.228l9.232 23.22c.38.864 1.032 1.566 2.172 1.566 1.195 0 1.901-.702 2.227-1.566l9.395-23.22a1.43 1.43 0 00.163-.648c0-.918-.706-1.512-1.575-1.512zM45 2.927c-5.92 0-10.481 4.806-10.481 10.638S39.08 24.15 44.999 24.15c5.92 0 10.536-4.806 10.536-10.584 0-5.832-4.616-10.638-10.536-10.638zm0 24.03c-7.549 0-13.794-5.832-13.794-13.446S37.45.011 44.999.011s13.794 5.886 13.794 13.5c0 7.668-6.245 13.446-13.794 13.446zm-21.212-1.66c0 .918-.76 1.674-1.792 1.674-.598 0-1.14-.324-1.52-.864L3.964 5.425v20.142c0 .756-.652 1.404-1.521 1.404-.87 0-1.466-.594-1.466-1.404V3.535C.978 1.97.598 1.213 0 .89A2.564 2.564 0 011.955.025c1.14 0 2.064.54 3.802 2.754L20.8 21.571V1.483c0-.756.652-1.404 1.52-1.404.815 0 1.467.648 1.467 1.404v23.814zm69.56-7.668h10.915l-5.43-13.607-5.486 13.607zm11.73 2.484h-12.49l-2.336 5.724c-.272.703-.706 1.134-1.52 1.134-.924 0-1.467-.648-1.467-1.404 0-.215.109-.54.217-.81l9.233-23.165c.38-.864.923-1.566 2.118-1.566 1.303 0 1.792.702 2.172 1.566l9.232 23.111c.109.216.217.595.217.81 0 .864-.651 1.404-1.52 1.404-.761 0-1.304-.378-1.521-1.134l-2.335-5.67zM141.889 4.25c.453.246.782.424 1.083.424.815 0 1.412-.54 1.412-1.404 0-.864-.706-1.458-1.846-1.944C140.908.57 138.845.03 136.075.03c-7.44 0-13.794 6.048-13.794 13.446 0 8.208 6.191 13.5 13.794 13.5 2.77 0 4.942-.594 6.625-1.35 1.087-.54 1.901-1.08 1.901-1.944 0-.81-.651-1.404-1.412-1.404-.336 0-.688.188-1.181.45-.461.247-1.046.559-1.86.846a13.157 13.157 0 01-4.127.648c-5.703 0-10.536-4.374-10.536-10.746 0-5.832 4.833-10.638 10.536-10.638 1.792 0 3.041.27 4.073.594.781.268 1.349.576 1.795.818zm8.764-2.699c0-.81.651-1.512 1.52-1.512s1.575.702 1.575 1.512v22.302h12.6c.76 0 1.303.594 1.303 1.404 0 .756-.597 1.35-1.303 1.35h-14.12a1.514 1.514 0 01-1.521-1.512V1.551h-.054zM175.165.04c-.815 0-1.521.702-1.521 1.512v23.922c0 .81.652 1.512 1.521 1.512.869 0 1.575-.702 1.575-1.512V1.551c0-.81-.706-1.512-1.575-1.512zm33.215 25.258c0 .918-.76 1.674-1.792 1.674-.597 0-1.14-.324-1.52-.864L188.504 5.425v20.142c0 .756-.652 1.404-1.521 1.404-.869 0-1.466-.594-1.466-1.404V1.7c0-.864.76-1.674 1.738-1.674.597 0 1.14.324 1.52.864l16.564 20.682V1.483c0-.756.652-1.404 1.521-1.404.814 0 1.466.648 1.466 1.404v23.814h.054zM218.734.04c-.814 0-1.52.702-1.52 1.512v23.922c0 .81.651 1.512 1.52 1.512s1.575-.702 1.575-1.512V1.551c0-.81-.706-1.512-1.575-1.512zm29.637 4.635c-.301 0-.63-.178-1.083-.424-.447-.242-1.014-.55-1.796-.818-1.031-.324-2.28-.594-4.073-.594-5.702 0-10.535 4.806-10.535 10.638 0 6.372 4.833 10.746 10.535 10.746a13.16 13.16 0 004.128-.648c.813-.287 1.399-.6 1.86-.845.493-.263.844-.45 1.181-.45.76 0 1.412.593 1.412 1.403 0 .864-.815 1.404-1.901 1.944-1.683.756-3.856 1.35-6.625 1.35-7.603 0-13.795-5.292-13.795-13.5 0-7.398 6.354-13.446 13.795-13.446 2.769 0 4.833.54 6.462 1.296 1.141.486 1.847 1.08 1.847 1.944 0 .864-.598 1.404-1.412 1.404z"/></symbol><symbol xmlns="http://www.w3.org/2000/svg" viewBox="0 0 18 23" id="icon-pin"><path fill-rule="evenodd" clip-rule="evenodd" d="M9 22.328l.658-.575C15.188 16.923 18 12.707 18 9c0-5.25-4.097-9-9-9S0 3.75 0 9c0 3.707 2.811 7.924 8.342 12.753l.658.575zm0-2.665C4.307 15.433 2 11.85 2 9c0-4.103 3.164-7 7-7s7 2.897 7 7c0 2.85-2.307 6.434-7 10.663zM9 4a5 5 0 110 10A5 5 0 019 4zM6 9a3 3 0 116 0 3 3 0 01-6 0z" fill="#5CC0E5"/></symbol><symbol xmlns="http://www.w3.org/2000/svg" viewBox="0 0 30 30" id="icon-close"><path fill-rule="evenodd" clip-rule="evenodd" d="M16.414 15l6.364 6.364-1.414 1.414L15 16.414l-6.364 6.364-1.414-1.414L13.586 15 7.222 8.636l1.414-1.414L15 13.586l6.364-6.364 1.414 1.414L16.414 15z"/></symbol></svg>