<svg width="850" height="807" fill="none" xmlns="http://www.w3.org/2000/svg"><g opacity=".1"><path d="M399.623 610.591c-18.693-24.258-54.21-51.005-94.088-61.579-31.156 88.325-102.189 145.55-212.478 159.234 49.848 36.699 95.334 60.335 135.213 73.397 181.946 59.713 236.155-87.081 171.353-171.052zm126.691-375.102c25.547 26.124 188.8 252.535 145.806 417.367 122.751-211.483 21.185-417.989 177.583-467.127-86.611-98.278-211.231-81.483-323.389 49.76z" fill="#58C0E7"/><path d="M572.126 262.755C441.274 171.32 180.818 136.487 43.736.268-21.69 179.406-1.128 287.013 70.529 370.362c67.295 76.507 174.468 114.449 234.909 178.516 36.763 23.014 67.918 45.406 86.611 69.665 73.526 95.167 0 216.458-163.875 162.966 206.869 67.798 378.222-14.307 444.271-128.756 87.234-151.148 9.346-312.87-100.319-389.998z" fill="#8BCFED"/><path d="M65.348 375.692c66.672 77.129 165.122 126.268 239.894 173.54C411.169 250.669-37.464 228.277 43.54 0-26.87 179.138-6.31 292.965 65.348 375.692z" fill="#58C0E7"/></g></svg>