<svg width="866" height="822" fill="none" xmlns="http://www.w3.org/2000/svg"><g opacity=".2"><path d="M458.713 622.302c19.051-24.724 55.249-51.983 95.893-62.76 31.752 90.019 104.148 148.341 216.552 162.288-50.804 37.402-97.163 61.492-137.806 74.804-185.435 60.858-240.685-88.751-174.639-174.332zM329.592 240.005c-26.037 26.626-192.421 257.379-148.602 425.372C55.885 449.838 159.398 239.371 0 189.29c88.272-100.162 215.283-83.045 329.592 50.715z" fill="#FEB6CE"/><path d="M282.902 267.794C416.263 174.605 681.714 139.105 821.426.272c66.68 182.574 45.723 292.245-27.307 377.193-68.586 77.974-177.815 116.644-239.415 181.94-37.468 23.455-69.221 46.277-88.272 71.001-74.936 96.992 0 220.61 167.018 166.091-210.837 69.099-385.476-14.581-452.792-131.225-88.907-154.047-9.525-318.87 102.244-397.478z" fill="#FFDEE9"/><path d="M799.399 382.898c-67.951 78.608-168.289 128.689-244.495 176.868C446.945 255.477 904.182 232.655 821.625 0c71.761 182.574 50.805 298.584-22.226 382.898z" fill="#FEB6CE"/></g></svg>