<svg width="36" height="36" viewBox="0 0 36 36" fill="none" xmlns="http://www.w3.org/2000/svg">
<path fill-rule="evenodd" clip-rule="evenodd" d="M32.2359 17.9196C36.1636 24.3427 37.1501 30.5404 33.8452 33.8452C30.5404 37.1501 24.3427 36.1636 17.9196 32.2359C11.4965 36.1636 5.29876 37.1501 1.99392 33.8452C-1.31091 30.5404 -0.324448 24.3427 3.60329 17.9196C-0.324448 11.4965 -1.31091 5.29876 1.99392 1.99392C5.29876 -1.31091 11.4965 -0.324448 17.9196 3.60329C24.3427 -0.324448 30.5404 -1.31091 33.8452 1.99392C37.1501 5.29876 36.1636 11.4965 32.2359 17.9196ZM12.6111 12.6111C14.3498 10.8724 16.1493 9.36574 17.9197 8.11203C19.69 9.36572 21.4895 10.8724 23.2281 12.611C24.9668 14.3497 26.4735 16.1493 27.7272 17.9196C26.4735 19.69 24.9669 21.4895 23.2282 23.2282C21.4895 24.9669 19.69 26.4735 17.9197 27.7272C16.1493 26.4735 14.3498 24.9668 12.6111 23.2281C10.8724 21.4895 9.36574 19.69 8.11204 17.9196C9.36574 16.1493 10.8724 14.3498 12.6111 12.6111ZM25.8824 9.95673C27.3536 11.4279 28.6885 12.9499 29.8688 14.4862C32.2437 10.0753 32.8079 6.26515 31.191 4.64827C29.5741 3.0314 25.7639 3.59552 21.3531 5.9705C22.8893 7.15069 24.4113 8.48561 25.8824 9.95673ZM14.4862 29.8688C10.0753 32.2438 6.26511 32.8079 4.64823 31.191C3.03135 29.5742 3.59549 25.7639 5.9705 21.3531C7.1507 22.8893 8.48563 24.4113 9.95678 25.8824C11.4279 27.3536 12.95 28.6885 14.4862 29.8688ZM21.353 29.8687C22.8893 28.6885 24.4113 27.3536 25.8824 25.8824C27.3536 24.4113 28.6885 22.8893 29.8687 21.353C32.2437 25.7639 32.8079 29.5742 31.191 31.191C29.5741 32.8079 25.7639 32.2438 21.353 29.8688L21.353 29.8687ZM14.4861 5.97048C10.0753 3.59552 6.2651 3.03141 4.64823 4.64827C3.03136 6.26514 3.59548 10.0753 5.97044 14.4862C7.15066 12.9499 8.4856 11.4279 9.95676 9.95676C11.4279 8.48561 12.9499 7.15069 14.4861 5.97048ZM19.7965 17.9196C19.7965 16.8831 18.9562 16.0428 17.9196 16.0428C16.883 16.0428 16.0428 16.8831 16.0428 17.9196C16.0428 18.9562 16.883 19.7965 17.9196 19.7965C18.9562 19.7965 19.7965 18.9562 19.7965 17.9196Z" fill="url(#paint0_linear)"/>
<defs>
<linearGradient id="paint0_linear" x1="17.9196" y1="0" x2="17.9196" y2="35.8392" gradientUnits="userSpaceOnUse">
<stop stop-color="#58C0E7"/>
<stop offset="1" stop-color="#FA9ABA"/>
</linearGradient>
</defs>
</svg>
