<svg width="32" height="39" viewBox="0 0 32 39" fill="none" xmlns="http://www.w3.org/2000/svg">
<path fill-rule="evenodd" clip-rule="evenodd" d="M0 23.0459C0 31.7273 6.68574 39 16 39C25.3143 39 32 31.7273 32 23.0459C32 19.1458 30.6833 14.5169 28.2454 9.82133C24.7708 3.12906 21.6929 0 16.8889 0H15.1111C10.2599 0 6.38223 3.90241 3.70808 9.91797C1.12419 15.7305 0 19.474 0 23.0459ZM28.4444 23.0458C28.4444 29.8347 23.2782 35.4545 16 35.4545C8.72176 35.4545 3.55551 29.8347 3.55551 23.0458C3.55551 20.0964 4.56109 16.7478 6.95855 11.3547C9.12372 6.48412 12.0438 3.54541 15.1111 3.54541H16.8888C19.9145 3.54541 22.1777 5.84623 25.0879 11.4513C27.2814 15.6762 28.4444 19.7648 28.4444 23.0458ZM16 29.6931C12.0727 29.6931 8.8889 26.5184 8.8889 22.6022C8.8889 18.5272 12.128 14.1818 16 14.1818C19.872 14.1818 23.1111 18.5272 23.1111 22.6022C23.1111 26.5184 19.9274 29.6931 16 29.6931ZM19.5555 22.6023C19.5555 24.5604 17.9636 26.1478 16 26.1478C14.0363 26.1478 12.4444 24.5604 12.4444 22.6023C12.4444 20.2958 14.359 17.7273 16 17.7273C17.6409 17.7273 19.5555 20.2958 19.5555 22.6023Z" fill="url(#paint0_linear)"/>
<defs>
<linearGradient id="paint0_linear" x1="16" y1="0" x2="16" y2="39" gradientUnits="userSpaceOnUse">
<stop stop-color="#58C0E7"/>
<stop offset="1" stop-color="#FA9ABA"/>
</linearGradient>
</defs>
</svg>
