<svg width="37" height="37" viewBox="0 0 37 37" fill="none" xmlns="http://www.w3.org/2000/svg">
<path fill-rule="evenodd" clip-rule="evenodd" d="M32.8889 11.1H25.9V4.11111C25.9 1.84061 24.394 0 22.5364 0H14.4636C12.606 0 11.1 1.84061 11.1 4.11111V11.1H4.11111C1.84061 11.1 0 12.606 0 14.4636V22.5364C0 24.394 1.84061 25.9 4.11111 25.9H11.1V32.8889C11.1 35.1594 12.606 37 14.4636 37H22.5364C24.394 37 25.9 35.1594 25.9 32.8889V25.9H32.8889C35.1594 25.9 37 24.394 37 22.5364V14.4636C37 12.606 35.1594 11.1 32.8889 11.1ZM33.3 14.8H22.2V3.70001H14.8V14.8H3.70001V22.2H14.8V33.3H22.2V22.2H33.3V14.8Z" fill="url(#paint0_linear)"/>
<defs>
<linearGradient id="paint0_linear" x1="18.5" y1="0" x2="18.5" y2="37" gradientUnits="userSpaceOnUse">
<stop stop-color="#58C0E7"/>
<stop offset="1" stop-color="#FA9ABA"/>
</linearGradient>
</defs>
</svg>
