<svg width="42" height="42" viewBox="0 0 42 42" fill="none" xmlns="http://www.w3.org/2000/svg">
<path fill-rule="evenodd" clip-rule="evenodd" d="M22.9091 7.77169C22.2856 7.6825 21.6482 7.63636 21 7.63636C20.3518 7.63636 19.7144 7.6825 19.0909 7.77169V0.0856093C19.7197 0.0289468 20.3565 0 21 0C21.6435 0 22.2803 0.0289468 22.9091 0.0856093V7.77169ZM11.4545 21C11.4545 26.2718 15.7282 30.5454 21 30.5454C26.2718 30.5454 30.5454 26.2718 30.5454 21C30.5454 15.7282 26.2718 11.4546 21 11.4546C15.7282 11.4546 11.4545 15.7282 11.4545 21ZM26.7273 21C26.7273 24.1631 24.1631 26.7273 21 26.7273C17.837 26.7273 15.2728 24.1631 15.2728 21C15.2728 17.8369 17.837 15.2727 21 15.2727C24.1631 15.2727 26.7273 17.8369 26.7273 21ZM22.9091 41.9144V34.2283C22.2855 34.3175 21.6482 34.3636 21 34.3636C20.3518 34.3636 19.7144 34.3175 19.0909 34.2283V41.9144C19.7197 41.971 20.3564 42 21 42C21.6435 42 22.2803 41.971 22.9091 41.9144ZM34.2283 19.0909H41.9144C41.9711 19.7197 42 20.3565 42 21C42 21.6435 41.9711 22.2803 41.9144 22.9091H34.2283C34.3175 22.2856 34.3637 21.6482 34.3637 21C34.3637 20.3518 34.3175 19.7144 34.2283 19.0909ZM7.63637 21C7.63637 20.3518 7.68251 19.7144 7.7717 19.0909H0.0856094C0.0289468 19.7197 0 20.3565 0 21C0 21.6435 0.0289468 22.2803 0.0856094 22.9091H7.7717C7.68251 22.2856 7.63637 21.6482 7.63637 21ZM29.0032 10.2969L34.4382 4.86191C35.4176 5.67838 36.3216 6.58234 37.1381 7.56177L31.7031 12.9967C30.9366 11.9733 30.0267 11.0634 29.0032 10.2969ZM4.86194 7.56177L10.2969 12.9967C11.0634 11.9733 11.9733 11.0634 12.9968 10.2969L7.5618 4.86191C6.58236 5.67838 5.67841 6.58234 4.86194 7.56177ZM31.7031 29.0032L37.1381 34.4381C36.3216 35.4176 35.4176 36.3215 34.4382 37.138L29.0032 31.703C30.0267 30.9365 30.9366 30.0266 31.7031 29.0032ZM7.5618 37.138L12.9968 31.703C11.9733 30.9365 11.0634 30.0266 10.2969 29.0032L4.86194 34.4381C5.67841 35.4176 6.58236 36.3215 7.5618 37.138Z" fill="url(#paint0_linear)"/>
<defs>
<linearGradient id="paint0_linear" x1="21" y1="0" x2="21" y2="42" gradientUnits="userSpaceOnUse">
<stop stop-color="#58C0E7"/>
<stop offset="1" stop-color="#FA9ABA"/>
</linearGradient>
</defs>
</svg>
