<svg width="30" height="30" viewBox="0 0 30 30" fill="none" xmlns="http://www.w3.org/2000/svg">
<path fill-rule="evenodd" clip-rule="evenodd" d="M8.72733 5.81818H5.81824V4.36371H2.9091V8.72729H26.1818V4.36371H23.2727V5.81818H20.3636V4.36371H8.72733V5.81818ZM26.1818 11.6364H2.9091V26.1819H26.1818V11.6364ZM20.3636 1.45459H8.72733V0H5.81824V1.45459H2.90909C1.30244 1.45459 0 2.75703 0 4.36368V26.1819C0 27.7885 1.30244 29.091 2.90909 29.091H26.1818C27.7885 29.091 29.0909 27.7885 29.0909 26.1819V4.36368C29.0909 2.75703 27.7885 1.45459 26.1818 1.45459H23.2727V0H20.3636V1.45459ZM10.1818 17.4545H7.27271V14.5454H10.1818V17.4545ZM13.0909 17.4545H16V14.5454H13.0909V17.4545ZM21.8181 17.4545H18.9091V14.5454H21.8181V17.4545ZM7.27271 23.2727H10.1818V20.3636H7.27271V23.2727ZM16 23.2727H13.0909V20.3636H16V23.2727Z" fill="url(#paint0_linear)"/>
<defs>
<linearGradient id="paint0_linear" x1="14.5455" y1="0" x2="14.5455" y2="29.091" gradientUnits="userSpaceOnUse">
<stop stop-color="#58C0E7"/>
<stop offset="1" stop-color="#FA9ABA"/>
</linearGradient>
</defs>
</svg>
