<svg width="32" height="32" viewBox="0 0 32 32" fill="none" xmlns="http://www.w3.org/2000/svg">
<path fill-rule="evenodd" clip-rule="evenodd" d="M25.2567 6.74333L27.3137 4.68629C30.2091 7.58172 32 11.5817 32 16C32 24.8366 24.8366 32 16 32C7.16344 32 0 24.8366 0 16C0 7.65376 6.39054 0.800114 14.5454 0.0652275V-5.72205e-05H17.4545V14.5455L19.0856 12.9145C19.8752 13.7041 20.3636 14.795 20.3636 16C20.3636 18.41 18.41 20.3636 16 20.3636C13.59 20.3636 11.6364 18.41 11.6364 16C11.6364 14.1001 12.8506 12.4837 14.5454 11.8847L14.5454 8.8727C11.2258 9.54656 8.72728 12.4815 8.72728 15.9999C8.72728 20.0166 11.9834 23.2727 16 23.2727C20.0166 23.2727 23.2727 20.0166 23.2727 15.9999C23.2727 13.9916 22.4587 12.1735 21.1426 10.8573L23.1996 8.80031C25.0422 10.6429 26.1818 13.1883 26.1818 15.9999C26.1818 21.6232 21.6233 26.1818 16 26.1818C10.3767 26.1818 5.81819 21.6232 5.81819 15.9999C5.81819 10.8705 9.6112 6.62704 14.5454 5.92124V2.98899C8.00006 3.71255 2.90909 9.26175 2.90909 16C2.90909 23.2299 8.77009 29.0909 16 29.0909C23.2299 29.0909 29.0909 23.2299 29.0909 16C29.0909 12.385 27.6257 9.11232 25.2567 6.74333ZM17.4545 16.0091V15.9909C17.4545 15.994 17.4546 15.997 17.4546 16C17.4546 16.003 17.4545 16.0061 17.4545 16.0091Z" fill="url(#paint0_linear)"/>
<defs>
<linearGradient id="paint0_linear" x1="32" y1="16" x2="0" y2="16" gradientUnits="userSpaceOnUse">
<stop stop-color="#58C0E7"/>
<stop offset="1" stop-color="#FA9ABA"/>
</linearGradient>
</defs>
</svg>
