<svg width="38" height="37" viewBox="0 0 38 37" fill="none" xmlns="http://www.w3.org/2000/svg">
<path fill-rule="evenodd" clip-rule="evenodd" d="M25.5561 0.145683C27.574 -0.424977 29.6772 0.731552 30.2538 2.72886C30.3508 3.06489 30.4 3.41266 30.4 3.76213L30.4 6.91066H34.2C36.2987 6.91066 38 8.59459 38 10.6718V33.2388C38 35.3161 36.2987 37 34.2 37H3.8C1.70132 37 0 35.3161 0 33.2388H0.0507242C0.0170042 33.0366 0 32.8318 0 32.6263V10.2098C0 8.53056 1.12471 7.05473 2.75606 6.59339L25.5561 0.145683ZM15.4664 33.2388H34.2V10.6718H30.4V14.4331H34.2V18.1942H30.4L30.4 26.1786C30.4 27.8579 29.2753 29.3337 27.6439 29.7951L15.4664 33.2388ZM3.79993 10.2098V32.6263L26.5999 26.1786V3.76209L3.79993 10.2098ZM22.8 14.4331C22.8 15.4717 21.9493 16.3137 20.9 16.3137C19.8507 16.3137 19 15.4717 19 14.4331C19 13.3945 19.8507 12.5525 20.9 12.5525C21.9493 12.5525 22.8 13.3945 22.8 14.4331Z" fill="url(#paint0_linear)"/>
<defs>
<linearGradient id="paint0_linear" x1="19" y1="0" x2="19" y2="37" gradientUnits="userSpaceOnUse">
<stop stop-color="#58C0E7"/>
<stop offset="1" stop-color="#FA9ABA"/>
</linearGradient>
</defs>
</svg>
