<svg width="34" height="41" viewBox="0 0 34 41" fill="none" xmlns="http://www.w3.org/2000/svg">
<path fill-rule="evenodd" clip-rule="evenodd" d="M16.9889 41C5.66297 36.0186 0 31.0489 0 26.0909V7.45455C0 6.02403 0.556101 5.69157 2.09516 4.77145C2.56115 4.49286 3.11725 4.1604 3.77531 3.72727C4.08072 3.52626 10.5014 0 16.9889 0C22.6429 0 27.371 1.86364 30.2025 3.72727C30.8606 4.1604 31.4167 4.49286 31.8827 4.77145C33.4217 5.69157 33.9778 6.02403 33.9778 7.45455C34.015 7.85936 33.9967 16.468 33.985 21.9799V21.981L33.985 21.9879C33.981 23.8644 33.9778 25.3809 33.9778 26.0909C33.9778 31.0606 28.3149 36.0303 16.9889 41ZM30.2025 26.0909C30.2025 25.6617 30.2036 24.9425 30.206 23.7701L30.2136 20.1299C30.216 18.9523 30.218 17.9417 30.2196 16.9773C30.2265 12.8174 30.2247 9.24703 30.2206 8.14277L29.9613 7.98386L29.9612 7.98379C29.3508 7.60994 28.5553 7.1227 28.1084 6.82856C25.3217 4.9944 21.2554 3.72728 16.9889 3.72728C12.908 3.72728 7.6047 5.68648 5.8695 6.82856C5.42259 7.12271 4.62704 7.60997 4.01664 7.98383L4.01658 7.98386L3.77533 8.13168V26.0909C3.77533 28.9021 7.98313 32.7418 16.9907 36.9037C25.9971 32.7511 30.2025 28.9129 30.2025 26.0909ZM23.2048 13.5914L15.1013 21.5918L10.7731 17.3187L8.10358 19.9542L15.1013 26.8629L25.8744 16.227L23.2048 13.5914Z" fill="url(#paint0_linear)"/>
<defs>
<linearGradient id="paint0_linear" x1="17" y1="0" x2="17" y2="41" gradientUnits="userSpaceOnUse">
<stop stop-color="#58C0E7"/>
<stop offset="1" stop-color="#FA9ABA"/>
</linearGradient>
</defs>
</svg>
