<svg width="29" height="30" viewBox="0 0 29 30" fill="none" xmlns="http://www.w3.org/2000/svg">
<path fill-rule="evenodd" clip-rule="evenodd" d="M16.6833 6.81547L18.7792 8.92047L9.48635 18.544C9.02005 19.0294 9.02005 19.8105 9.48635 20.2959C9.92884 20.7565 10.668 20.7544 11.1058 20.2934L21.33 9.70105C22.8226 8.14762 22.8226 5.65281 21.33 4.09938C19.9059 2.61725 17.3861 2.65022 15.9904 4.10221L4.83094 15.6554C2.31143 18.2765 2.31143 22.4854 4.83094 25.1065C7.2775 27.6517 11.4803 27.6103 13.8887 25.1042L26.9039 11.6234L29 13.7282L15.9872 27.2065C12.4368 30.901 6.33932 30.9612 2.73031 27.2066C-0.910522 23.4189 -0.910522 17.3429 2.73282 13.5527L13.8923 1.99951C16.4271 -0.637581 20.8415 -0.69534 23.431 1.99972C26.0444 4.7196 26.0444 9.08084 23.4287 11.8032L13.2106 22.3891C11.63 24.054 8.98569 24.0615 7.38514 22.3954C5.79829 20.7436 5.79829 18.0963 7.38779 16.4418L16.6833 6.81547Z" fill="url(#paint0_linear)"/>
<defs>
<linearGradient id="paint0_linear" x1="14.5" y1="0" x2="14.5" y2="30" gradientUnits="userSpaceOnUse">
<stop stop-color="#58C0E7"/>
<stop offset="1" stop-color="#FA9ABA"/>
</linearGradient>
</defs>
</svg>
