<svg width="36" height="32" viewBox="0 0 36 32" fill="none" xmlns="http://www.w3.org/2000/svg">
<path fill-rule="evenodd" clip-rule="evenodd" d="M19.8001 28.4444V26.5406C23.3704 26.0363 26.4578 24.0536 28.4065 21.2406C33.2918 20.5757 36 16.3961 36 10.6666V5.33331C36 3.36963 34.3882 1.77776 32.4 1.77776H30.1184C29.496 0.71501 28.3326 0 27.0001 0H9.00006C7.66756 0 6.50414 0.71501 5.88168 1.77776H3.6C1.61177 1.77776 0 3.36963 0 5.33331V10.6666C0 16.3962 2.70827 20.5758 7.59363 21.2406C9.54228 24.0536 12.6298 26.0363 16.2001 26.5406V28.4444H14.4001C12.4118 28.4444 10.8001 30.0363 10.8001 32H25.2001C25.2001 30.0363 23.5883 28.4444 21.6001 28.4444H19.8001ZM3.6 5.33331H5.40006V14.2222C5.40006 15.036 5.47915 15.8316 5.63015 16.6018C4.30252 15.4216 3.6 13.3889 3.6 10.6666V5.33331ZM30.6001 5.33331V14.2222C30.6001 15.036 30.521 15.8315 30.37 16.6017C31.6975 15.4215 32.4 13.3888 32.4 10.6666V5.33331H30.6001ZM9 14.2222V3.55557H27V14.2222C27 19.1314 22.9706 23.1111 18 23.1111C13.0294 23.1111 9 19.1314 9 14.2222Z" fill="url(#paint0_linear)"/>
<defs>
<linearGradient id="paint0_linear" x1="18" y1="0" x2="18" y2="32" gradientUnits="userSpaceOnUse">
<stop stop-color="#58C0E7"/>
<stop offset="1" stop-color="#FA9ABA"/>
</linearGradient>
</defs>
</svg>
