<svg width="42" height="42" viewBox="0 0 42 42" fill="none" xmlns="http://www.w3.org/2000/svg">
<path fill-rule="evenodd" clip-rule="evenodd" d="M13.3636 9.54545H7.85418C11.5398 5.32899 15.5767 3.81818 21 3.81818C30.4893 3.81818 38.1818 11.5107 38.1818 21C38.1818 30.4893 30.4893 38.1818 21 38.1818C11.5107 38.1818 3.81818 30.4893 3.81818 21H0C0 32.598 9.40202 42 21 42C32.598 42 42 32.598 42 21C42 9.40202 32.598 0 21 0C14.8654 0 9.99806 1.73834 5.72727 6.21686V1.89231H1.90909V13.3636H13.3636V9.54545ZM30.5455 19.0909H22.9091V9.54545H19.0909V22.9091H30.5455V19.0909Z" fill="url(#paint0_linear)"/>
<defs>
<linearGradient id="paint0_linear" x1="21" y1="0" x2="21" y2="42" gradientUnits="userSpaceOnUse">
<stop stop-color="#58C0E7"/>
<stop offset="1" stop-color="#FA9ABA"/>
</linearGradient>
</defs>
</svg>
