<svg width="491" height="466" viewBox="0 0 491 466" fill="none" xmlns="http://www.w3.org/2000/svg">
<path d="M260.079 352.829C270.88 338.812 291.404 323.356 314.447 317.246C332.45 368.285 373.497 401.352 437.227 409.259C408.423 430.465 382.138 444.124 359.095 451.671C253.958 486.176 222.632 401.352 260.079 352.829Z" fill="#FEB6CE"/>
<path d="M186.87 136.077C172.108 151.173 77.7726 282.004 102.617 377.252C31.6851 255.047 90.3746 135.718 -1.40517e-05 107.323C50.0481 50.5336 122.06 60.2382 186.87 136.077Z" fill="#FEB6CE"/>
<path d="M160.398 151.832C236.01 98.9967 386.515 78.8688 465.727 0.154541C503.534 103.669 491.652 165.85 450.245 214.013C411.359 258.222 349.429 280.147 314.503 317.168C293.26 330.467 275.257 343.406 264.455 357.424C221.968 412.416 264.455 482.504 359.15 451.594C239.611 490.771 140.595 443.327 102.429 377.192C52.0206 289.852 97.0278 196.401 160.398 151.832Z" fill="#FFDEE9"/>
<path d="M453.239 217.093C414.712 261.662 357.823 290.057 314.616 317.373C253.406 144.849 512.648 131.909 465.841 0C506.527 103.515 494.645 169.29 453.239 217.093Z" fill="#FEB6CE"/>
</svg>
